Sansita-Regular.ufo
<glyph name="exclam" format="1">
  <advance width="245"/>
  <unicode hex="0021"/>
  <outline>
    <contour>
      <point x="104" y="680"/>
      <point x="80" y="672"/>
      <point x="65" y="659" type="curve"/>
      <point x="77" y="264" type="line" smooth="yes"/>
      <point x="79" y="224"/>
      <point x="85" y="200"/>
      <point x="125" y="200" type="curve" smooth="yes"/>
      <point x="139" y="200"/>
      <point x="150" y="203"/>
      <point x="158" y="209" type="curve"/>
      <point x="182" y="500" type="line" smooth="yes"/>
      <point x="185" y="537"/>
      <point x="188" y="568"/>
      <point x="188" y="613" type="curve" smooth="yes"/>
      <point x="188" y="657"/>
      <point x="169" y="680"/>
      <point x="125" y="680" type="curve" smooth="yes"/>
    </contour>
    <component base="period"/>
  </outline>
</glyph>
<glyph name="quotedbl" format="1">
  <advance width="384"/>
  <unicode hex="0022"/>
  <outline>
    <contour>
      <point x="128" y="491" type="line"/>
      <point x="146" y="515"/>
      <point x="168" y="577"/>
      <point x="168" y="623" type="curve" smooth="yes"/>
      <point x="168" y="683"/>
      <point x="149" y="710"/>
      <point x="89" y="710" type="curve" smooth="yes"/>
      <point x="73" y="710"/>
      <point x="57" y="707"/>
      <point x="46" y="704" type="curve"/>
      <point x="58" y="637"/>
      <point x="60" y="559"/>
      <point x="60" y="491" type="curve"/>
    </contour>
    <contour>
      <point x="298" y="491" type="line"/>
      <point x="316" y="515"/>
      <point x="338" y="577"/>
      <point x="338" y="623" type="curve" smooth="yes"/>
      <point x="338" y="683"/>
      <point x="319" y="710"/>
      <point x="259" y="710" type="curve" smooth="yes"/>
      <point x="243" y="710"/>
      <point x="227" y="707"/>
      <point x="216" y="704" type="curve"/>
      <point x="228" y="637"/>
      <point x="230" y="559"/>
      <point x="230" y="491" type="curve"/>
    </contour>
  </outline>
</glyph>
<glyph name="numbersign" format="1">
  <advance width="540"/>
  <unicode hex="0023"/>
  <outline>
    <contour>
      <point x="349" y="663"/>
      <point x="327" y="646"/>
      <point x="327" y="611" type="curve" smooth="yes"/>
      <point x="327" y="491" type="line"/>
      <point x="213" y="491" type="line"/>
      <point x="213" y="653" type="line"/>
      <point x="202" y="660"/>
      <point x="190" y="663"/>
      <point x="175" y="663" type="curve" smooth="yes"/>
      <point x="142" y="663"/>
      <point x="120" y="646"/>
      <point x="120" y="611" type="curve" smooth="yes"/>
      <point x="120" y="491" type="line"/>
      <point x="46" y="491" type="line" smooth="yes"/>
      <point x="15" y="491"/>
      <point x="-2" y="472"/>
      <point x="-2" y="441" type="curve" smooth="yes"/>
      <point x="-2" y="428"/>
      <point x="2" y="417"/>
      <point x="7" y="406" type="curve"/>
      <point x="120" y="406" type="line"/>
      <point x="120" y="263" type="line"/>
      <point x="46" y="263" type="line" smooth="yes"/>
      <point x="15" y="263"/>
      <point x="-2" y="244"/>
      <point x="-2" y="213" type="curve" smooth="yes"/>
      <point x="-2" y="200"/>
      <point x="2" y="189"/>
      <point x="7" y="178" type="curve"/>
      <point x="120" y="178" type="line"/>
      <point x="120" y="10" type="line"/>
      <point x="131" y="3"/>
      <point x="143" y="0"/>
      <point x="158" y="0" type="curve" smooth="yes"/>
      <point x="191" y="0"/>
      <point x="213" y="17"/>
      <point x="213" y="52" type="curve" smooth="yes"/>
      <point x="213" y="178" type="line"/>
      <point x="327" y="178" type="line"/>
      <point x="327" y="10" type="line"/>
      <point x="338" y="3"/>
      <point x="350" y="0"/>
      <point x="365" y="0" type="curve" smooth="yes"/>
      <point x="398" y="0"/>
      <point x="420" y="17"/>
      <point x="420" y="52" type="curve" smooth="yes"/>
      <point x="420" y="178" type="line"/>
      <point x="494" y="178" type="line" smooth="yes"/>
      <point x="525" y="178"/>
      <point x="542" y="197"/>
      <point x="542" y="228" type="curve" smooth="yes"/>
      <point x="542" y="241"/>
      <point x="538" y="252"/>
      <point x="533" y="263" type="curve"/>
      <point x="420" y="263" type="line"/>
      <point x="420" y="406" type="line"/>
      <point x="494" y="406" type="line" smooth="yes"/>
      <point x="525" y="406"/>
      <point x="542" y="425"/>
      <point x="542" y="456" type="curve" smooth="yes"/>
      <point x="542" y="469"/>
      <point x="538" y="480"/>
      <point x="533" y="491" type="curve"/>
      <point x="420" y="491" type="line"/>
      <point x="420" y="653" type="line"/>
      <point x="409" y="660"/>
      <point x="397" y="663"/>
      <point x="382" y="663" type="curve" smooth="yes"/>
    </contour>
    <contour>
      <point x="327" y="263" type="line"/>
      <point x="213" y="263" type="line"/>
      <point x="213" y="406" type="line"/>
      <point x="327" y="406" type="line"/>
    </contour>
  </outline>
</glyph>
<glyph name="dollar" format="1">
  <advance width="540"/>
  <unicode hex="0024"/>
  <outline>
    <contour>
      <point x="215" y="661"/>
      <point x="84" y="628"/>
      <point x="84" y="491" type="curve" smooth="yes"/>
      <point x="84" y="283"/>
      <point x="372" y="282"/>
      <point x="372" y="135" type="curve" smooth="yes"/>
      <point x="372" y="78"/>
      <point x="329" y="44"/>
      <point x="272" y="44" type="curve" smooth="yes"/>
      <point x="210" y="44"/>
      <point x="181" y="77"/>
      <point x="181" y="139" type="curve" smooth="yes"/>
      <point x="181" y="153"/>
      <point x="184" y="175"/>
      <point x="189" y="189" type="curve"/>
      <point x="176" y="201"/>
      <point x="154" y="205"/>
      <point x="137" y="205" type="curve" smooth="yes"/>
      <point x="90" y="205"/>
      <point x="60" y="171"/>
      <point x="60" y="124" type="curve" smooth="yes"/>
      <point x="60" y="-1"/>
      <point x="195" y="-22"/>
      <point x="257" y="-22" type="curve" smooth="yes"/>
      <point x="336" y="-22"/>
      <point x="481" y="10"/>
      <point x="481" y="165" type="curve" smooth="yes"/>
      <point x="481" y="360"/>
      <point x="193" y="361"/>
      <point x="193" y="521" type="curve" smooth="yes"/>
      <point x="193" y="570"/>
      <point x="225" y="594"/>
      <point x="274" y="594" type="curve" smooth="yes"/>
      <point x="329" y="594"/>
      <point x="353" y="561"/>
      <point x="353" y="506" type="curve" smooth="yes"/>
      <point x="353" y="492"/>
      <point x="350" y="470"/>
      <point x="345" y="456" type="curve"/>
      <point x="358" y="444"/>
      <point x="380" y="440"/>
      <point x="397" y="440" type="curve" smooth="yes"/>
      <point x="444" y="440"/>
      <point x="474" y="474"/>
      <point x="474" y="521" type="curve" smooth="yes"/>
      <point x="474" y="642"/>
      <point x="351" y="661"/>
      <point x="281" y="661" type="curve" smooth="yes"/>
    </contour>
    <contour>
      <point x="221" y="-108" type="line"/>
      <point x="232" y="-115"/>
      <point x="248" y="-117"/>
      <point x="260" y="-117" type="curve" smooth="yes"/>
      <point x="294" y="-117"/>
      <point x="306" y="-95"/>
      <point x="306" y="-60" type="curve" smooth="yes"/>
      <point x="306" y="-8" type="line"/>
      <point x="221" y="17" type="line"/>
    </contour>
    <contour>
      <point x="252" y="755"/>
      <point x="240" y="733"/>
      <point x="240" y="697" type="curve" smooth="yes"/>
      <point x="240" y="626" type="line"/>
      <point x="325" y="647" type="line"/>
      <point x="325" y="746" type="line"/>
      <point x="314" y="752"/>
      <point x="298" y="755"/>
      <point x="286" y="755" type="curve" smooth="yes"/>
    </contour>
  </outline>
</glyph>
<glyph name="ampersand" format="1">
  <advance width="681"/>
  <unicode hex="0026"/>
  <outline>
    <contour>
      <point x="199" y="680"/>
      <point x="110" y="625"/>
      <point x="110" y="510" type="curve" smooth="yes"/>
      <point x="110" y="355"/>
      <point x="286" y="139"/>
      <point x="426" y="43" type="curve" smooth="yes"/>
      <point x="485" y="4"/>
      <point x="545" y="-20"/>
      <point x="592" y="-20" type="curve" smooth="yes"/>
      <point x="640" y="-20"/>
      <point x="680" y="-1"/>
      <point x="680" y="47" type="curve" smooth="yes"/>
      <point x="680" y="61"/>
      <point x="675" y="76"/>
      <point x="667" y="85" type="curve"/>
      <point x="650" y="77"/>
      <point x="631" y="74"/>
      <point x="611" y="74" type="curve" smooth="yes"/>
      <point x="574" y="74"/>
      <point x="516" y="94"/>
      <point x="465" y="137" type="curve" smooth="yes"/>
      <point x="348" y="231"/>
      <point x="222" y="395"/>
      <point x="222" y="514" type="curve" smooth="yes"/>
      <point x="222" y="579"/>
      <point x="255" y="610"/>
      <point x="308" y="610" type="curve" smooth="yes"/>
      <point x="355" y="610"/>
      <point x="379" y="586"/>
      <point x="379" y="539" type="curve" smooth="yes"/>
      <point x="379" y="525"/>
      <point x="376" y="503"/>
      <point x="371" y="489" type="curve"/>
      <point x="384" y="477"/>
      <point x="406" y="473"/>
      <point x="423" y="473" type="curve" smooth="yes"/>
      <point x="470" y="473"/>
      <point x="500" y="507"/>
      <point x="500" y="554" type="curve" smooth="yes"/>
      <point x="500" y="652"/>
      <point x="415" y="680"/>
      <point x="317" y="680" type="curve" smooth="yes"/>
    </contour>
    <contour>
      <point x="467" y="374"/>
      <point x="441" y="367"/>
      <point x="425" y="358" type="curve"/>
      <point x="454" y="327"/>
      <point x="468" y="289"/>
      <point x="468" y="246" type="curve" smooth="yes"/>
      <point x="468" y="98"/>
      <point x="399" y="51"/>
      <point x="315" y="51" type="curve" smooth="yes"/>
      <point x="222" y="51"/>
      <point x="163" y="109"/>
      <point x="163" y="202" type="curve" smooth="yes"/>
      <point x="163" y="248"/>
      <point x="179" y="280"/>
      <point x="198" y="293" type="curve"/>
      <point x="169" y="357" type="line"/>
      <point x="97" y="329"/>
      <point x="40" y="278"/>
      <point x="40" y="184" type="curve" smooth="yes"/>
      <point x="40" y="44"/>
      <point x="149" y="-22"/>
      <point x="289" y="-22" type="curve" smooth="yes"/>
      <point x="461" y="-22"/>
      <point x="584" y="131"/>
      <point x="584" y="257" type="curve" smooth="yes"/>
      <point x="584" y="325"/>
      <point x="562" y="374"/>
      <point x="488" y="374" type="curve" smooth="yes"/>
    </contour>
  </outline>
</glyph>
<glyph name="quotesingle" format="1">
  <advance width="214"/>
  <unicode hex="0027"/>
  <outline>
    <contour>
      <point x="128" y="491" type="line"/>
      <point x="146" y="515"/>
      <point x="168" y="577"/>
      <point x="168" y="623" type="curve" smooth="yes"/>
      <point x="168" y="683"/>
      <point x="149" y="710"/>
      <point x="89" y="710" type="curve" smooth="yes"/>
      <point x="73" y="710"/>
      <point x="57" y="707"/>
      <point x="46" y="704" type="curve"/>
      <point x="58" y="637"/>
      <point x="60" y="559"/>
      <point x="60" y="491" type="curve"/>
    </contour>
  </outline>
</glyph>
<glyph name="parenleft" format="1">
  <advance width="376"/>
  <unicode hex="0028"/>
  <outline>
    <contour>
      <point x="242" y="800"/>
      <point x="110" y="562"/>
      <point x="110" y="300" type="curve" smooth="yes"/>
      <point x="110" y="38"/>
      <point x="242" y="-200"/>
      <point x="383" y="-200" type="curve" smooth="yes"/>
      <point x="404" y="-200"/>
      <point x="421" y="-194"/>
      <point x="430" y="-179" type="curve"/>
      <point x="299" y="-84"/>
      <point x="233" y="93"/>
      <point x="233" y="300" type="curve" smooth="yes"/>
      <point x="233" y="507"/>
      <point x="299" y="684"/>
      <point x="430" y="779" type="curve"/>
      <point x="421" y="794"/>
      <point x="404" y="800"/>
      <point x="383" y="800" type="curve" smooth="yes"/>
    </contour>
  </outline>
</glyph>
<glyph name="parenright" format="1">
  <advance width="375"/>
  <unicode hex="0029"/>
  <outline>
    <contour>
      <point x="-24" y="800"/>
      <point x="-41" y="794"/>
      <point x="-54" y="779" type="curve"/>
      <point x="77" y="684"/>
      <point x="143" y="507"/>
      <point x="143" y="300" type="curve" smooth="yes"/>
      <point x="143" y="94"/>
      <point x="77" y="-83"/>
      <point x="-54" y="-178" type="curve"/>
      <point x="-41" y="-193"/>
      <point x="-24" y="-199"/>
      <point x="0" y="-199" type="curve" smooth="yes"/>
      <point x="151" y="-199"/>
      <point x="266" y="39"/>
      <point x="266" y="300" type="curve" smooth="yes"/>
      <point x="266" y="562"/>
      <point x="151" y="800"/>
      <point x="0" y="800" type="curve" smooth="yes"/>
    </contour>
  </outline>
</glyph>
<glyph name="asterisk" format="1">
  <advance width="427"/>
  <unicode hex="002A"/>
  <outline>
    <contour>
      <point x="255" y="548" type="line"/>
      <point x="258" y="567"/>
      <point x="260" y="586"/>
      <point x="260" y="604" type="curve" smooth="yes"/>
      <point x="260" y="649"/>
      <point x="252" y="697"/>
      <point x="207" y="697" type="curve" smooth="yes"/>
      <point x="192" y="697"/>
      <point x="177" y="692"/>
      <point x="164" y="683" type="curve"/>
      <point x="182" y="548" type="line"/>
      <point x="164" y="557"/>
      <point x="145" y="566"/>
      <point x="127" y="572" type="curve" smooth="yes"/>
      <point x="84" y="586"/>
      <point x="36" y="593"/>
      <point x="22" y="550" type="curve" smooth="yes"/>
      <point x="17" y="536"/>
      <point x="18" y="520"/>
      <point x="22" y="505" type="curve"/>
      <point x="146" y="482" type="line"/>
      <point x="133" y="469"/>
      <point x="121" y="455"/>
      <point x="111" y="441" type="curve" smooth="yes"/>
      <point x="84" y="405"/>
      <point x="62" y="361"/>
      <point x="99" y="335" type="curve" smooth="yes"/>
      <point x="111" y="326"/>
      <point x="126" y="321"/>
      <point x="142" y="321" type="curve"/>
      <point x="214" y="454" type="line"/>
      <point x="225" y="431"/>
      <point x="238" y="408"/>
      <point x="251" y="390" type="curve" smooth="yes"/>
      <point x="277" y="353"/>
      <point x="312" y="319"/>
      <point x="348" y="345" type="curve" smooth="yes"/>
      <point x="360" y="354"/>
      <point x="370" y="367"/>
      <point x="375" y="382" type="curve"/>
      <point x="284" y="478" type="line"/>
      <point x="300" y="481"/>
      <point x="316" y="485"/>
      <point x="330" y="489" type="curve" smooth="yes"/>
      <point x="373" y="503"/>
      <point x="416" y="526"/>
      <point x="402" y="569" type="curve" smooth="yes"/>
      <point x="397" y="583"/>
      <point x="388" y="596"/>
      <point x="375" y="605" type="curve"/>
    </contour>
  </outline>
</glyph>
<glyph name="plus" format="1">
  <advance width="540"/>
  <unicode hex="002B"/>
  <outline>
    <contour>
      <point x="240" y="467"/>
      <point x="218" y="450"/>
      <point x="218" y="415" type="curve" smooth="yes"/>
      <point x="218" y="16" type="line"/>
      <point x="229" y="9"/>
      <point x="241" y="6"/>
      <point x="256" y="6" type="curve" smooth="yes"/>
      <point x="289" y="6"/>
      <point x="311" y="23"/>
      <point x="311" y="58" type="curve" smooth="yes"/>
      <point x="311" y="457" type="line"/>
      <point x="300" y="464"/>
      <point x="288" y="467"/>
      <point x="273" y="467" type="curve" smooth="yes"/>
    </contour>
    <contour>
      <point x="111" y="283" type="line" smooth="yes"/>
      <point x="80" y="283"/>
      <point x="63" y="264"/>
      <point x="63" y="233" type="curve" smooth="yes"/>
      <point x="63" y="220"/>
      <point x="67" y="209"/>
      <point x="72" y="198" type="curve"/>
      <point x="428" y="198" type="line" smooth="yes"/>
      <point x="459" y="198"/>
      <point x="476" y="217"/>
      <point x="476" y="248" type="curve" smooth="yes"/>
      <point x="476" y="261"/>
      <point x="472" y="272"/>
      <point x="467" y="283" type="curve"/>
    </contour>
  </outline>
</glyph>
<glyph name="comma" format="1">
  <advance width="235"/>
  <unicode hex="002C"/>
  <outline>
    <contour>
      <point x="96" y="98"/>
      <point x="74" y="94"/>
      <point x="58" y="85" type="curve"/>
      <point x="73" y="59"/>
      <point x="79" y="38"/>
      <point x="79" y="8" type="curve" smooth="yes"/>
      <point x="79" y="-36"/>
      <point x="67" y="-77"/>
      <point x="42" y="-114" type="curve"/>
      <point x="54" y="-119"/>
      <point x="67" y="-121"/>
      <point x="80" y="-121" type="curve" smooth="yes"/>
      <point x="144" y="-121"/>
      <point x="193" y="-52"/>
      <point x="193" y="12" type="curve" smooth="yes"/>
      <point x="193" y="65"/>
      <point x="167" y="98"/>
      <point x="114" y="98" type="curve" smooth="yes"/>
    </contour>
  </outline>
</glyph>
<glyph name="period" format="1">
  <advance width="241"/>
  <unicode hex="002E"/>
  <outline>
    <contour>
      <point x="79" y="106"/>
      <point x="45" y="85"/>
      <point x="45" y="42" type="curve" smooth="yes"/>
      <point x="45" y="1"/>
      <point x="76" y="-20"/>
      <point x="118" y="-20" type="curve" smooth="yes"/>
      <point x="160" y="-20"/>
      <point x="194" y="1"/>
      <point x="194" y="44" type="curve" smooth="yes"/>
      <point x="194" y="85"/>
      <point x="163" y="106"/>
      <point x="121" y="106" type="curve" smooth="yes"/>
    </contour>
  </outline>
</glyph>
<glyph name="slash" format="1">
  <advance width="328"/>
  <unicode hex="002F"/>
  <outline>
    <contour>
      <point x="215" y="798"/>
      <point x="200" y="796"/>
      <point x="194" y="794" type="curve"/>
      <point x="39" y="-124" type="line" smooth="yes"/>
      <point x="38" y="-131"/>
      <point x="36" y="-146"/>
      <point x="36" y="-155" type="curve" smooth="yes"/>
      <point x="36" y="-193"/>
      <point x="68" y="-200"/>
      <point x="97" y="-200" type="curve" smooth="yes"/>
      <point x="113" y="-200"/>
      <point x="128" y="-198"/>
      <point x="134" y="-196" type="curve"/>
      <point x="289" y="722" type="line" smooth="yes"/>
      <point x="290" y="729"/>
      <point x="292" y="744"/>
      <point x="292" y="753" type="curve" smooth="yes"/>
      <point x="292" y="791"/>
      <point x="260" y="798"/>
      <point x="231" y="798" type="curve" smooth="yes"/>
    </contour>
  </outline>
</glyph>
<glyph name="zero" format="1">
  <advance width="540"/>
  <unicode hex="0030"/>
  <outline>
    <contour>
      <point x="89" y="680"/>
      <point x="37" y="507"/>
      <point x="37" y="327" type="curve" smooth="yes"/>
      <point x="37" y="147"/>
      <point x="89" y="-22"/>
      <point x="269" y="-22" type="curve" smooth="yes"/>
      <point x="449" y="-22"/>
      <point x="502" y="159"/>
      <point x="502" y="339" type="curve" smooth="yes"/>
      <point x="502" y="519"/>
      <point x="449" y="680"/>
      <point x="269" y="680" type="curve" smooth="yes"/>
    </contour>
    <contour>
      <point x="172" y="48"/>
      <point x="162" y="192"/>
      <point x="162" y="332" type="curve" smooth="yes"/>
      <point x="162" y="459"/>
      <point x="172" y="610"/>
      <point x="269" y="610" type="curve" smooth="yes"/>
      <point x="366" y="610"/>
      <point x="377" y="459"/>
      <point x="377" y="332" type="curve" smooth="yes"/>
      <point x="377" y="192"/>
      <point x="367" y="48"/>
      <point x="269" y="48" type="curve" smooth="yes"/>
    </contour>
  </outline>
</glyph>
<glyph name="one" format="1">
  <advance width="540"/>
  <unicode hex="0031"/>
  <outline>
    <contour>
      <point x="362" y="660" type="line"/>
      <point x="330" y="676" type="line"/>
      <point x="245" y="625"/>
      <point x="123" y="556"/>
      <point x="35" y="522" type="curve"/>
      <point x="35" y="482"/>
      <point x="49" y="456"/>
      <point x="89" y="456" type="curve" smooth="yes"/>
      <point x="121" y="456"/>
      <point x="158" y="480"/>
      <point x="321" y="577" type="curve"/>
      <point x="246" y="588" type="line"/>
      <point x="246" y="74" type="line"/>
      <point x="66" y="74" type="line"/>
      <point x="66" y="0" type="line"/>
      <point x="498" y="0" type="line"/>
      <point x="498" y="74" type="line"/>
      <point x="362" y="74" type="line"/>
    </contour>
  </outline>
</glyph>
<glyph name="two" format="1">
  <advance width="540"/>
  <unicode hex="0032"/>
  <outline>
    <contour>
      <point x="148" y="680"/>
      <point x="44" y="632"/>
      <point x="34" y="538" type="curve" smooth="yes"/>
      <point x="38" y="498"/>
      <point x="44" y="472"/>
      <point x="73" y="459" type="curve"/>
      <point x="107" y="555"/>
      <point x="165" y="589"/>
      <point x="232" y="589" type="curve" smooth="yes"/>
      <point x="298" y="589"/>
      <point x="350" y="554"/>
      <point x="350" y="488" type="curve" smooth="yes"/>
      <point x="350" y="402"/>
      <point x="297" y="334"/>
      <point x="240" y="268" type="curve" smooth="yes"/>
      <point x="178" y="203"/>
      <point x="112" y="139"/>
      <point x="28" y="73" type="curve"/>
      <point x="35" y="0" type="line"/>
      <point x="482" y="0" type="line"/>
      <point x="489" y="94" type="line"/>
      <point x="178" y="94" type="line"/>
      <point x="190" y="105"/>
      <point x="201" y="116"/>
      <point x="213" y="126" type="curve" smooth="yes"/>
      <point x="416" y="297"/>
      <point x="475" y="380"/>
      <point x="475" y="488" type="curve" smooth="yes"/>
      <point x="475" y="616"/>
      <point x="382" y="680"/>
      <point x="242" y="680" type="curve" smooth="yes"/>
    </contour>
  </outline>
</glyph>
<glyph name="three" format="1">
  <advance width="540"/>
  <unicode hex="0033"/>
  <outline>
    <contour>
      <point x="142" y="679"/>
      <point x="38" y="638"/>
      <point x="38" y="547" type="curve" smooth="yes"/>
      <point x="38" y="517"/>
      <point x="48" y="497"/>
      <point x="77" y="488" type="curve"/>
      <point x="97" y="554"/>
      <point x="145" y="588"/>
      <point x="213" y="588" type="curve" smooth="yes"/>
      <point x="293" y="588"/>
      <point x="341" y="556"/>
      <point x="341" y="494" type="curve" smooth="yes"/>
      <point x="341" y="404"/>
      <point x="263" y="368"/>
      <point x="173" y="365" type="curve"/>
      <point x="173" y="302" type="line"/>
      <point x="194" y="305"/>
      <point x="218" y="306"/>
      <point x="239" y="305" type="curve" smooth="yes"/>
      <point x="316" y="301"/>
      <point x="369" y="267"/>
      <point x="369" y="190" type="curve" smooth="yes"/>
      <point x="369" y="109"/>
      <point x="316" y="69"/>
      <point x="223" y="69" type="curve" smooth="yes"/>
      <point x="147" y="69"/>
      <point x="87" y="95"/>
      <point x="54" y="162" type="curve"/>
      <point x="35" y="153"/>
      <point x="29" y="131"/>
      <point x="29" y="110" type="curve" smooth="yes"/>
      <point x="29" y="13"/>
      <point x="127" y="-22"/>
      <point x="224" y="-22" type="curve" smooth="yes"/>
      <point x="385" y="-22"/>
      <point x="494" y="61"/>
      <point x="494" y="190" type="curve" smooth="yes"/>
      <point x="494" y="278"/>
      <point x="433" y="334"/>
      <point x="346" y="351" type="curve"/>
      <point x="414" y="382"/>
      <point x="459" y="444"/>
      <point x="459" y="518" type="curve" smooth="yes"/>
      <point x="459" y="630"/>
      <point x="363" y="679"/>
      <point x="233" y="679" type="curve" smooth="yes"/>
    </contour>
  </outline>
</glyph>
<glyph name="four" format="1">
  <advance width="540"/>
  <unicode hex="0034"/>
  <outline>
    <contour>
      <point x="319" y="660" type="line"/>
      <point x="32" y="242" type="line" smooth="yes"/>
      <point x="21" y="225"/>
      <point x="10" y="204"/>
      <point x="10" y="186" type="curve" smooth="yes"/>
      <point x="10" y="162"/>
      <point x="23" y="144"/>
      <point x="47" y="144" type="curve" smooth="yes"/>
      <point x="319" y="144" type="line"/>
      <point x="319" y="0" type="line"/>
      <point x="435" y="0" type="line"/>
      <point x="435" y="144" type="line"/>
      <point x="517" y="144" type="line"/>
      <point x="524" y="218" type="line"/>
      <point x="435" y="218" type="line"/>
      <point x="435" y="660" type="line"/>
    </contour>
    <contour>
      <point x="319" y="218" type="line"/>
      <point x="111" y="218" type="line"/>
      <point x="319" y="520" type="line"/>
    </contour>
  </outline>
</glyph>
<glyph name="five" format="1">
  <advance width="540"/>
  <unicode hex="0035"/>
  <outline>
    <contour>
      <point x="85" y="660" type="line"/>
      <point x="59" y="311" type="line"/>
      <point x="101" y="319"/>
      <point x="146" y="325"/>
      <point x="186" y="325" type="curve" smooth="yes"/>
      <point x="289" y="325"/>
      <point x="363" y="291"/>
      <point x="363" y="200" type="curve" smooth="yes"/>
      <point x="363" y="118"/>
      <point x="314" y="69"/>
      <point x="230" y="69" type="curve" smooth="yes"/>
      <point x="143" y="69"/>
      <point x="84" y="99"/>
      <point x="52" y="162" type="curve"/>
      <point x="33" y="153"/>
      <point x="27" y="131"/>
      <point x="27" y="110" type="curve" smooth="yes"/>
      <point x="27" y="17"/>
      <point x="122" y="-22"/>
      <point x="234" y="-22" type="curve" smooth="yes"/>
      <point x="379" y="-22"/>
      <point x="488" y="70"/>
      <point x="488" y="200" type="curve" smooth="yes"/>
      <point x="488" y="344"/>
      <point x="397" y="403"/>
      <point x="245" y="403" type="curve" smooth="yes"/>
      <point x="218" y="403"/>
      <point x="181" y="401"/>
      <point x="154" y="398" type="curve"/>
      <point x="166" y="560" type="line"/>
      <point x="446" y="560" type="line"/>
      <point x="439" y="660" type="line"/>
    </contour>
  </outline>
</glyph>
<glyph name="six" format="1">
  <advance width="540"/>
  <unicode hex="0036"/>
  <outline>
    <contour>
      <point x="130" y="680"/>
      <point x="37" y="497"/>
      <point x="37" y="307" type="curve" smooth="yes"/>
      <point x="37" y="127"/>
      <point x="89" y="-22"/>
      <point x="269" y="-22" type="curve" smooth="yes"/>
      <point x="408" y="-22"/>
      <point x="494" y="85"/>
      <point x="494" y="225" type="curve" smooth="yes"/>
      <point x="494" y="348"/>
      <point x="432" y="449"/>
      <point x="309" y="449" type="curve" smooth="yes"/>
      <point x="245" y="449"/>
      <point x="182" y="422"/>
      <point x="160" y="369" type="curve"/>
      <point x="165" y="489"/>
      <point x="210" y="589"/>
      <point x="327" y="589" type="curve" smooth="yes"/>
      <point x="362" y="589"/>
      <point x="401" y="580"/>
      <point x="432" y="548" type="curve"/>
      <point x="449" y="559"/>
      <point x="458" y="571"/>
      <point x="458" y="591" type="curve" smooth="yes"/>
      <point x="458" y="653"/>
      <point x="382" y="680"/>
      <point x="320" y="680" type="curve" smooth="yes"/>
    </contour>
    <contour>
      <point x="340" y="375"/>
      <point x="369" y="287"/>
      <point x="369" y="218" type="curve" smooth="yes"/>
      <point x="369" y="142"/>
      <point x="345" y="48"/>
      <point x="269" y="48" type="curve" smooth="yes"/>
      <point x="194" y="48"/>
      <point x="172" y="142"/>
      <point x="169" y="218" type="curve" smooth="yes"/>
      <point x="174" y="296"/>
      <point x="197" y="375"/>
      <point x="269" y="375" type="curve" smooth="yes"/>
    </contour>
  </outline>
</glyph>
<glyph name="seven" format="1">
  <advance width="540"/>
  <unicode hex="0037"/>
  <outline>
    <contour>
      <point x="43" y="660" type="line"/>
      <point x="36" y="566" type="line"/>
      <point x="407" y="566" type="line"/>
      <point x="114" y="0" type="line"/>
      <point x="245" y="-22" type="line"/>
      <point x="521" y="587" type="line"/>
      <point x="514" y="660" type="line"/>
    </contour>
  </outline>
</glyph>
<glyph name="eight" format="1">
  <advance width="540"/>
  <unicode hex="0038"/>
  <outline>
    <contour>
      <point x="476" y="635"/>
      <point x="382" y="680"/>
      <point x="270" y="680" type="curve" smooth="yes"/>
      <point x="156" y="680"/>
      <point x="59" y="627"/>
      <point x="59" y="513" type="curve" smooth="yes"/>
      <point x="59" y="437"/>
      <point x="117" y="386"/>
      <point x="176" y="343" type="curve"/>
      <point x="101" y="308"/>
      <point x="37" y="242"/>
      <point x="37" y="162" type="curve" smooth="yes"/>
      <point x="37" y="34"/>
      <point x="142" y="-22"/>
      <point x="270" y="-22" type="curve" smooth="yes"/>
      <point x="402" y="-22"/>
      <point x="503" y="31"/>
      <point x="503" y="163" type="curve" smooth="yes"/>
      <point x="503" y="254"/>
      <point x="426" y="313"/>
      <point x="350" y="357" type="curve"/>
      <point x="417" y="393"/>
      <point x="476" y="447"/>
      <point x="476" y="523" type="curve" smooth="yes"/>
    </contour>
    <contour>
      <point x="373" y="85"/>
      <point x="337" y="48"/>
      <point x="270" y="48" type="curve" smooth="yes"/>
      <point x="200" y="48"/>
      <point x="163" y="92"/>
      <point x="163" y="162" type="curve" smooth="yes"/>
      <point x="163" y="216"/>
      <point x="190" y="269"/>
      <point x="231" y="305" type="curve"/>
      <point x="304" y="259"/>
      <point x="373" y="217"/>
      <point x="373" y="152" type="curve" smooth="yes"/>
    </contour>
    <contour>
      <point x="189" y="575"/>
      <point x="218" y="610"/>
      <point x="270" y="610" type="curve" smooth="yes"/>
      <point x="322" y="610"/>
      <point x="357" y="575"/>
      <point x="357" y="523" type="curve" smooth="yes"/>
      <point x="357" y="471"/>
      <point x="334" y="425"/>
      <point x="293" y="394" type="curve"/>
      <point x="236" y="431"/>
      <point x="189" y="469"/>
      <point x="189" y="523" type="curve" smooth="yes"/>
    </contour>
  </outline>
</glyph>
<glyph name="nine" format="1">
  <advance width="540"/>
  <unicode hex="0039"/>
  <outline>
    <contour>
      <point x="122" y="680"/>
      <point x="37" y="573"/>
      <point x="37" y="433" type="curve" smooth="yes"/>
      <point x="37" y="310"/>
      <point x="99" y="209"/>
      <point x="222" y="209" type="curve" smooth="yes"/>
      <point x="286" y="209"/>
      <point x="345" y="236"/>
      <point x="371" y="289" type="curve"/>
      <point x="366" y="169"/>
      <point x="324" y="69"/>
      <point x="204" y="69" type="curve"/>
      <point x="169" y="69"/>
      <point x="130" y="78"/>
      <point x="99" y="110" type="curve"/>
      <point x="82" y="99"/>
      <point x="73" y="87"/>
      <point x="73" y="67" type="curve" smooth="yes"/>
      <point x="73" y="5"/>
      <point x="149" y="-22"/>
      <point x="211" y="-22" type="curve" smooth="yes"/>
      <point x="401" y="-22"/>
      <point x="494" y="161"/>
      <point x="494" y="351" type="curve" smooth="yes"/>
      <point x="494" y="531"/>
      <point x="442" y="680"/>
      <point x="262" y="680" type="curve" smooth="yes"/>
    </contour>
    <contour>
      <point x="338" y="610"/>
      <point x="362" y="516"/>
      <point x="362" y="440" type="curve" smooth="yes"/>
      <point x="362" y="362"/>
      <point x="340" y="283"/>
      <point x="262" y="283" type="curve" smooth="yes"/>
      <point x="186" y="283"/>
      <point x="162" y="371"/>
      <point x="162" y="440" type="curve"/>
      <point x="162" y="516"/>
      <point x="186" y="610"/>
      <point x="262" y="610" type="curve" smooth="yes"/>
    </contour>
  </outline>
</glyph>
<glyph name="less" format="1">
  <advance width="540"/>
  <unicode hex="003C"/>
  <outline>
    <contour>
      <point x="86" y="275" type="line"/>
      <point x="375" y="42" type="line"/>
      <point x="408" y="42"/>
      <point x="435" y="57"/>
      <point x="435" y="90" type="curve" smooth="yes"/>
      <point x="435" y="111"/>
      <point x="422" y="132"/>
      <point x="405" y="146" type="curve" smooth="yes"/>
      <point x="232" y="275" type="line"/>
    </contour>
    <contour>
      <point x="232" y="275" type="line"/>
      <point x="435" y="429" type="line"/>
      <point x="435" y="462"/>
      <point x="413" y="482"/>
      <point x="380" y="482" type="curve" smooth="yes"/>
      <point x="359" y="482"/>
      <point x="342" y="469"/>
      <point x="324" y="456" type="curve" smooth="yes"/>
      <point x="86" y="275" type="line"/>
    </contour>
  </outline>
</glyph>
<glyph name="equal" format="1">
  <advance width="540"/>
  <unicode hex="003D"/>
  <outline>
    <contour>
      <point x="428" y="264" type="line" smooth="yes"/>
      <point x="459" y="264"/>
      <point x="476" y="283"/>
      <point x="476" y="314" type="curve" smooth="yes"/>
      <point x="476" y="327"/>
      <point x="472" y="338"/>
      <point x="467" y="349" type="curve"/>
      <point x="111" y="349" type="line" smooth="yes"/>
      <point x="80" y="349"/>
      <point x="63" y="330"/>
      <point x="63" y="299" type="curve" smooth="yes"/>
      <point x="63" y="286"/>
      <point x="67" y="275"/>
      <point x="72" y="264" type="curve"/>
    </contour>
    <contour>
      <point x="428" y="103" type="line" smooth="yes"/>
      <point x="459" y="103"/>
      <point x="476" y="122"/>
      <point x="476" y="153" type="curve" smooth="yes"/>
      <point x="476" y="166"/>
      <point x="472" y="177"/>
      <point x="467" y="188" type="curve"/>
      <point x="111" y="188" type="line" smooth="yes"/>
      <point x="80" y="188"/>
      <point x="63" y="169"/>
      <point x="63" y="138" type="curve" smooth="yes"/>
      <point x="63" y="125"/>
      <point x="67" y="114"/>
      <point x="72" y="103" type="curve"/>
    </contour>
  </outline>
</glyph>
<glyph name="greater" format="1">
  <advance width="540"/>
  <unicode hex="003E"/>
  <outline>
    <contour>
      <point x="308" y="249" type="line"/>
      <point x="105" y="95" type="line"/>
      <point x="105" y="62"/>
      <point x="127" y="42"/>
      <point x="160" y="42" type="curve" smooth="yes"/>
      <point x="181" y="42"/>
      <point x="198" y="55"/>
      <point x="216" y="68" type="curve" smooth="yes"/>
      <point x="454" y="249" type="line"/>
    </contour>
    <contour>
      <point x="454" y="249" type="line"/>
      <point x="165" y="482" type="line"/>
      <point x="132" y="482"/>
      <point x="105" y="467"/>
      <point x="105" y="434" type="curve" smooth="yes"/>
      <point x="105" y="413"/>
      <point x="118" y="392"/>
      <point x="135" y="378" type="curve" smooth="yes"/>
      <point x="308" y="249" type="line"/>
    </contour>
  </outline>
</glyph>
<glyph name="question" format="1">
  <advance width="413"/>
  <unicode hex="003F"/>
  <outline>
    <contour>
      <point x="119" y="680"/>
      <point x="2" y="660"/>
      <point x="2" y="566" type="curve" smooth="yes"/>
      <point x="2" y="516"/>
      <point x="35" y="491"/>
      <point x="85" y="491" type="curve" smooth="yes"/>
      <point x="98" y="491"/>
      <point x="117" y="494"/>
      <point x="128" y="503" type="curve"/>
      <point x="123" y="519"/>
      <point x="119" y="535"/>
      <point x="119" y="551" type="curve" smooth="yes"/>
      <point x="119" y="600"/>
      <point x="154" y="620"/>
      <point x="197" y="620" type="curve" smooth="yes"/>
      <point x="252" y="620"/>
      <point x="276" y="586"/>
      <point x="276" y="540" type="curve" smooth="yes"/>
      <point x="276" y="417"/>
      <point x="115" y="333"/>
      <point x="115" y="251" type="curve" smooth="yes"/>
      <point x="115" y="219"/>
      <point x="129" y="203"/>
      <point x="161" y="203" type="curve" smooth="yes"/>
      <point x="172" y="203"/>
      <point x="192" y="206"/>
      <point x="198" y="212" type="curve"/>
      <point x="198" y="325"/>
      <point x="395" y="384"/>
      <point x="395" y="540" type="curve" smooth="yes"/>
      <point x="395" y="645"/>
      <point x="305" y="680"/>
      <point x="200" y="680" type="curve" smooth="yes"/>
    </contour>
    <component base="period" xOffset="40"/>
  </outline>
</glyph>
<glyph name="at" format="1">
  <advance width="830"/>
  <unicode hex="0040"/>
  <outline>
    <contour>
      <point x="186" y="601"/>
      <point x="44" y="455"/>
      <point x="44" y="248" type="curve" smooth="yes"/>
      <point x="44" y="28"/>
      <point x="199" y="-98"/>
      <point x="419" y="-98" type="curve" smooth="yes"/>
      <point x="504" y="-98"/>
      <point x="599" y="-79"/>
      <point x="599" y="-24" type="curve" smooth="yes"/>
      <point x="599" y="-10"/>
      <point x="593" y="3"/>
      <point x="582" y="10" type="curve"/>
      <point x="542" y="-28"/>
      <point x="473" y="-32"/>
      <point x="418" y="-32" type="curve" smooth="yes"/>
      <point x="238" y="-32"/>
      <point x="138" y="68"/>
      <point x="138" y="248" type="curve" smooth="yes"/>
      <point x="138" y="422"/>
      <point x="241" y="540"/>
      <point x="415" y="540" type="curve" smooth="yes"/>
      <point x="596" y="540"/>
      <point x="693" y="442"/>
      <point x="693" y="261" type="curve" smooth="yes"/>
      <point x="693" y="177"/>
      <point x="673" y="108"/>
      <point x="599" y="108" type="curve" smooth="yes"/>
      <point x="565" y="108"/>
      <point x="556" y="124"/>
      <point x="556" y="151" type="curve" smooth="yes"/>
      <point x="556" y="321" type="line" smooth="yes"/>
      <point x="556" y="417"/>
      <point x="523" y="455"/>
      <point x="427" y="455" type="curve" smooth="yes"/>
      <point x="352" y="455"/>
      <point x="280" y="427"/>
      <point x="280" y="372" type="curve" smooth="yes"/>
      <point x="280" y="338"/>
      <point x="307" y="320"/>
      <point x="342" y="320" type="curve" smooth="yes"/>
      <point x="354" y="320"/>
      <point x="370" y="322"/>
      <point x="378" y="328" type="curve"/>
      <point x="374" y="339"/>
      <point x="372" y="352"/>
      <point x="372" y="362" type="curve" smooth="yes"/>
      <point x="372" y="391"/>
      <point x="386" y="409"/>
      <point x="419" y="409" type="curve" smooth="yes"/>
      <point x="459" y="409"/>
      <point x="464" y="379"/>
      <point x="464" y="339" type="curve" smooth="yes"/>
      <point x="464" y="284" type="line"/>
      <point x="370" y="284"/>
      <point x="263" y="265"/>
      <point x="263" y="168" type="curve" smooth="yes"/>
      <point x="263" y="102"/>
      <point x="315" y="61"/>
      <point x="381" y="61" type="curve" smooth="yes"/>
      <point x="422" y="61"/>
      <point x="461" y="73"/>
      <point x="481" y="109" type="curve"/>
      <point x="503" y="74"/>
      <point x="548" y="61"/>
      <point x="589" y="61" type="curve" smooth="yes"/>
      <point x="716" y="61"/>
      <point x="786" y="159"/>
      <point x="786" y="286" type="curve" smooth="yes"/>
      <point x="786" y="497"/>
      <point x="626" y="601"/>
      <point x="415" y="601" type="curve" smooth="yes"/>
    </contour>
    <contour>
      <point x="464" y="189" type="line" smooth="yes"/>
      <point x="464" y="151"/>
      <point x="448" y="117"/>
      <point x="409" y="117" type="curve" smooth="yes"/>
      <point x="378" y="117"/>
      <point x="360" y="140"/>
      <point x="360" y="171" type="curve" smooth="yes"/>
      <point x="360" y="225"/>
      <point x="410" y="238"/>
      <point x="464" y="238" type="curve"/>
    </contour>
  </outline>
</glyph>
<glyph name="A" format="1">
  <advance width="502"/>
  <unicode hex="0041"/>
  <outline>
    <contour>
      <point x="183" y="660" type="line"/>
      <point x="0" y="0" type="line"/>
      <point x="110" y="0" type="line"/>
      <point x="149" y="168" type="line"/>
      <point x="345" y="168" type="line"/>
      <point x="385" y="0" type="line"/>
      <point x="502" y="0" type="line"/>
      <point x="331" y="660" type="line"/>
    </contour>
    <contour>
      <point x="247" y="586" type="line"/>
      <point x="328" y="242" type="line"/>
      <point x="167" y="242" type="line"/>
    </contour>
    <contour>
      <point x="501" y="10" type="move" name="ogonek"/>
    </contour>
    <contour>
      <point x="253" y="660" type="move" name="top"/>
    </contour>
    <contour>
      <point x="253" y="700" type="move" name="topcase"/>
    </contour>
  </outline>
</glyph>
<glyph name="B" format="1">
  <advance width="539"/>
  <unicode hex="0042"/>
  <outline>
    <contour>
      <point x="464" y="631"/>
      <point x="370" y="664"/>
      <point x="247" y="664" type="curve" smooth="yes"/>
      <point x="188" y="664"/>
      <point x="119" y="660"/>
      <point x="60" y="656" type="curve"/>
      <point x="60" y="5" type="line"/>
      <point x="120" y="-4"/>
      <point x="182" y="-10"/>
      <point x="243" y="-10" type="curve" smooth="yes"/>
      <point x="382" y="-10"/>
      <point x="512" y="54"/>
      <point x="512" y="193" type="curve" smooth="yes"/>
      <point x="512" y="284"/>
      <point x="465" y="351"/>
      <point x="375" y="369" type="curve"/>
      <point x="426" y="397"/>
      <point x="464" y="450"/>
      <point x="464" y="508" type="curve" smooth="yes"/>
    </contour>
    <contour>
      <point x="176" y="315" type="line"/>
      <point x="188" y="317"/>
      <point x="209" y="318"/>
      <point x="221" y="318" type="curve" smooth="yes"/>
      <point x="327" y="318"/>
      <point x="389" y="296"/>
      <point x="389" y="190" type="curve" smooth="yes"/>
      <point x="389" y="99"/>
      <point x="334" y="60"/>
      <point x="243" y="60" type="curve" smooth="yes"/>
      <point x="219" y="60"/>
      <point x="200" y="62"/>
      <point x="176" y="66" type="curve"/>
    </contour>
    <contour>
      <point x="176" y="589" type="line"/>
      <point x="196" y="592"/>
      <point x="220" y="594"/>
      <point x="240" y="594" type="curve" smooth="yes"/>
      <point x="307" y="594"/>
      <point x="345" y="565"/>
      <point x="345" y="498" type="curve" smooth="yes"/>
      <point x="345" y="420"/>
      <point x="305" y="386"/>
      <point x="227" y="386" type="curve" smooth="yes"/>
      <point x="212" y="386"/>
      <point x="191" y="387"/>
      <point x="176" y="389" type="curve"/>
    </contour>
  </outline>
</glyph>
<glyph name="C" format="1">
  <advance width="511"/>
  <unicode hex="0043"/>
  <outline>
    <contour>
      <point x="341" y="610"/>
      <point x="365" y="576"/>
      <point x="365" y="519" type="curve" smooth="yes"/>
      <point x="365" y="505"/>
      <point x="362" y="483"/>
      <point x="357" y="469" type="curve"/>
      <point x="370" y="457"/>
      <point x="392" y="453"/>
      <point x="409" y="453" type="curve" smooth="yes"/>
      <point x="456" y="453"/>
      <point x="486" y="487"/>
      <point x="486" y="534" type="curve" smooth="yes"/>
      <point x="486" y="642"/>
      <point x="401" y="680"/>
      <point x="293" y="680" type="curve" smooth="yes"/>
      <point x="99" y="680"/>
      <point x="34" y="521"/>
      <point x="34" y="327" type="curve" smooth="yes"/>
      <point x="34" y="132"/>
      <point x="91" y="-22"/>
      <point x="284" y="-22" type="curve" smooth="yes"/>
      <point x="378" y="-22"/>
      <point x="475" y="26"/>
      <point x="475" y="120" type="curve" smooth="yes"/>
      <point x="475" y="150"/>
      <point x="465" y="170"/>
      <point x="436" y="179" type="curve"/>
      <point x="415" y="111"/>
      <point x="365" y="69"/>
      <point x="294" y="69" type="curve" smooth="yes"/>
      <point x="171" y="69"/>
      <point x="159" y="209"/>
      <point x="159" y="332" type="curve" smooth="yes"/>
      <point x="159" y="447"/>
      <point x="169" y="610"/>
      <point x="284" y="610" type="curve" smooth="yes"/>
    </contour>
    <contour>
      <point x="288" y="660" type="move" name="top"/>
    </contour>
    <contour>
      <point x="294" y="0" type="move" name="bottom"/>
    </contour>
    <contour>
      <point x="284" y="700" type="move" name="topcase"/>
    </contour>
  </outline>
</glyph>
<glyph name="D" format="1">
  <advance width="563"/>
  <unicode hex="0044"/>
  <outline>
    <contour>
      <point x="60" y="5" type="line"/>
      <point x="120" y="-4"/>
      <point x="182" y="-10"/>
      <point x="243" y="-10" type="curve" smooth="yes"/>
      <point x="454" y="-10"/>
      <point x="529" y="135"/>
      <point x="529" y="346" type="curve" smooth="yes"/>
      <point x="529" y="537"/>
      <point x="458" y="664"/>
      <point x="267" y="664" type="curve" smooth="yes"/>
      <point x="208" y="664"/>
      <point x="119" y="660"/>
      <point x="60" y="656" type="curve"/>
    </contour>
    <contour>
      <point x="219" y="60"/>
      <point x="200" y="62"/>
      <point x="176" y="66" type="curve"/>
      <point x="176" y="589" type="line"/>
      <point x="204" y="592"/>
      <point x="232" y="594"/>
      <point x="260" y="594" type="curve" smooth="yes"/>
      <point x="386" y="594"/>
      <point x="408" y="458"/>
      <point x="408" y="332" type="curve" smooth="yes"/>
      <point x="408" y="183"/>
      <point x="392" y="60"/>
      <point x="243" y="60" type="curve" smooth="yes"/>
    </contour>
    <contour>
      <point x="267" y="0" type="move" name="bottom"/>
    </contour>
    <contour>
      <point x="267" y="700" type="move" name="topcase"/>
    </contour>
    <contour>
      <point x="267" y="664" type="move" name="top"/>
    </contour>
    <contour>
      <point x="282" y="330" type="move" name="center"/>
    </contour>
  </outline>
</glyph>
<glyph name="E" format="1">
  <advance width="438"/>
  <unicode hex="0045"/>
  <outline>
    <contour>
      <point x="60" y="660" type="line"/>
      <point x="60" y="0" type="line"/>
      <point x="401" y="0" type="line"/>
      <point x="408" y="74" type="line"/>
      <point x="176" y="74" type="line"/>
      <point x="176" y="302" type="line"/>
      <point x="364" y="302" type="line"/>
      <point x="364" y="376" type="line"/>
      <point x="176" y="376" type="line"/>
      <point x="176" y="586" type="line"/>
      <point x="394" y="586" type="line"/>
      <point x="394" y="660" type="line"/>
    </contour>
    <contour>
      <point x="227" y="700" type="move" name="topcase"/>
    </contour>
    <contour>
      <point x="403" y="10" type="move" name="ogonek"/>
    </contour>
    <contour>
      <point x="229" y="660" type="move" name="top"/>
    </contour>
    <contour>
      <point x="206" y="0" type="move" name="bottom"/>
    </contour>
  </outline>
</glyph>
<glyph name="F" format="1">
  <advance width="417"/>
  <unicode hex="0046"/>
  <outline>
    <contour>
      <point x="60" y="660" type="line"/>
      <point x="60" y="0" type="line"/>
      <point x="176" y="0" type="line"/>
      <point x="176" y="288" type="line"/>
      <point x="364" y="288" type="line"/>
      <point x="364" y="362" type="line"/>
      <point x="176" y="362" type="line"/>
      <point x="176" y="586" type="line"/>
      <point x="394" y="586" type="line"/>
      <point x="394" y="660" type="line"/>
    </contour>
  </outline>
</glyph>
<glyph name="G" format="1">
  <advance width="545"/>
  <unicode hex="0047"/>
  <outline>
    <contour>
      <point x="352" y="610"/>
      <point x="382" y="576"/>
      <point x="382" y="519" type="curve" smooth="yes"/>
      <point x="382" y="505"/>
      <point x="379" y="483"/>
      <point x="374" y="469" type="curve"/>
      <point x="387" y="457"/>
      <point x="409" y="453"/>
      <point x="426" y="453" type="curve" smooth="yes"/>
      <point x="473" y="453"/>
      <point x="503" y="487"/>
      <point x="503" y="534" type="curve" smooth="yes"/>
      <point x="503" y="642"/>
      <point x="412" y="680"/>
      <point x="304" y="680" type="curve" smooth="yes"/>
      <point x="104" y="680"/>
      <point x="34" y="527"/>
      <point x="34" y="327" type="curve" smooth="yes"/>
      <point x="34" y="125"/>
      <point x="97" y="-22"/>
      <point x="297" y="-22" type="curve" smooth="yes"/>
      <point x="354" y="-22"/>
      <point x="440" y="-8"/>
      <point x="491" y="19" type="curve"/>
      <point x="491" y="20" type="line"/>
      <point x="491" y="317" type="line"/>
      <point x="383" y="303" type="line"/>
      <point x="387" y="69" type="line"/>
      <point x="359" y="59"/>
      <point x="330" y="55"/>
      <point x="300" y="55" type="curve" smooth="yes"/>
      <point x="174" y="55"/>
      <point x="159" y="206"/>
      <point x="159" y="332" type="curve" smooth="yes"/>
      <point x="159" y="453"/>
      <point x="175" y="610"/>
      <point x="295" y="610" type="curve" smooth="yes"/>
    </contour>
    <contour>
      <point x="293" y="660" type="move" name="top"/>
    </contour>
    <contour>
      <point x="317" y="0" type="move" name="bottom"/>
    </contour>
    <contour>
      <point x="295" y="700" type="move" name="topcase"/>
    </contour>
  </outline>
</glyph>
<glyph name="H" format="1">
  <advance width="577"/>
  <unicode hex="0048"/>
  <outline>
    <contour>
      <point x="401" y="660" type="line"/>
      <point x="401" y="371" type="line"/>
      <point x="176" y="371" type="line"/>
      <point x="176" y="660" type="line"/>
      <point x="60" y="660" type="line"/>
      <point x="60" y="0" type="line"/>
      <point x="176" y="0" type="line"/>
      <point x="176" y="297" type="line"/>
      <point x="401" y="297" type="line"/>
      <point x="401" y="0" type="line"/>
      <point x="517" y="0" type="line"/>
      <point x="517" y="660" type="line"/>
    </contour>
    <contour>
      <point x="289" y="330" type="move" name="center"/>
    </contour>
    <contour>
      <point x="300" y="0" type="move" name="bottom"/>
    </contour>
    <contour>
      <point x="289" y="660" type="move" name="top"/>
    </contour>
  </outline>
</glyph>
<glyph name="I" format="1">
  <advance width="236"/>
  <unicode hex="0049"/>
  <outline>
    <contour>
      <point x="60" y="660" type="line"/>
      <point x="60" y="0" type="line"/>
      <point x="176" y="0" type="line"/>
      <point x="176" y="660" type="line"/>
    </contour>
    <contour>
      <point x="118" y="700" type="move" name="topcase"/>
    </contour>
    <contour>
      <point x="184" y="10" type="move" name="ogonek"/>
    </contour>
    <contour>
      <point x="118" y="660" type="move" name="top"/>
    </contour>
    <contour>
      <point x="116" y="0" type="move" name="bottom"/>
    </contour>
  </outline>
</glyph>
<glyph name="J" format="1">
  <advance width="236"/>
  <unicode hex="004A"/>
  <outline>
    <contour>
      <point x="176" y="660" type="line"/>
      <point x="60" y="660" type="line"/>
      <point x="60" y="59" type="line" smooth="yes"/>
      <point x="60" y="-26"/>
      <point x="47" y="-113"/>
      <point x="-38" y="-113" type="curve"/>
      <point x="-38" y="-147"/>
      <point x="2" y="-160"/>
      <point x="35" y="-160" type="curve" smooth="yes"/>
      <point x="157" y="-160"/>
      <point x="176" y="-26"/>
      <point x="176" y="95" type="curve" smooth="yes"/>
    </contour>
    <contour>
      <point x="118" y="660" type="move" name="top"/>
    </contour>
    <contour>
      <point x="118" y="700" type="move" name="topcase"/>
    </contour>
  </outline>
</glyph>
<glyph name="K" format="1">
  <advance width="493"/>
  <unicode hex="004B"/>
  <outline>
    <contour>
      <point x="176" y="660" type="line"/>
      <point x="60" y="660" type="line"/>
      <point x="60" y="0" type="line"/>
      <point x="176" y="0" type="line"/>
    </contour>
    <contour>
      <point x="197" y="334" type="line"/>
      <point x="387" y="0" type="line"/>
      <point x="514" y="0" type="line"/>
      <point x="308" y="353" type="line"/>
      <point x="500" y="660" type="line"/>
      <point x="380" y="660" type="line"/>
    </contour>
    <contour>
      <point x="242" y="660" type="move" name="top"/>
    </contour>
    <contour>
      <point x="281" y="0" type="move" name="bottom"/>
    </contour>
  </outline>
</glyph>
<glyph name="L" format="1">
  <advance width="399"/>
  <unicode hex="004C"/>
  <outline>
    <contour>
      <point x="60" y="0" type="line"/>
      <point x="387" y="0" type="line"/>
      <point x="394" y="74" type="line"/>
      <point x="176" y="74" type="line"/>
      <point x="176" y="660" type="line"/>
      <point x="60" y="660" type="line"/>
    </contour>
    <contour>
      <point x="119" y="700" type="move" name="topcase"/>
    </contour>
    <contour>
      <point x="119" y="660" type="move" name="top"/>
    </contour>
    <contour>
      <point x="289" y="660" type="move" name="topright"/>
    </contour>
    <contour>
      <point x="225" y="0" type="move" name="bottom"/>
    </contour>
  </outline>
</glyph>
<glyph name="M" format="1">
  <advance width="727"/>
  <unicode hex="004D"/>
  <outline>
    <contour>
      <point x="501" y="660" type="line"/>
      <point x="368" y="184" type="line"/>
      <point x="235" y="660" type="line"/>
      <point x="60" y="660" type="line"/>
      <point x="60" y="0" type="line"/>
      <point x="154" y="0" type="line"/>
      <point x="154" y="553" type="line"/>
      <point x="314" y="0" type="line"/>
      <point x="391" y="0" type="line"/>
      <point x="551" y="551" type="line"/>
      <point x="551" y="0" type="line"/>
      <point x="667" y="0" type="line"/>
      <point x="667" y="660" type="line"/>
    </contour>
  </outline>
</glyph>
<glyph name="N" format="1">
  <advance width="567"/>
  <unicode hex="004E"/>
  <outline>
    <contour>
      <point x="507" y="0" type="line"/>
      <point x="507" y="660" type="line"/>
      <point x="413" y="660" type="line"/>
      <point x="413" y="208" type="line"/>
      <point x="147" y="660" type="line"/>
      <point x="60" y="660" type="line"/>
      <point x="60" y="0" type="line"/>
      <point x="154" y="0" type="line"/>
      <point x="154" y="452" type="line"/>
      <point x="420" y="0" type="line"/>
    </contour>
    <contour>
      <point x="284" y="660" type="move" name="top"/>
    </contour>
    <contour>
      <point x="282" y="0" type="move" name="bottom"/>
    </contour>
    <contour>
      <point x="282" y="700" type="move" name="topcase"/>
    </contour>
  </outline>
</glyph>
<glyph name="O" format="1">
  <advance width="580"/>
  <unicode hex="004F"/>
  <outline>
    <contour>
      <point x="97" y="680"/>
      <point x="34" y="520"/>
      <point x="34" y="327" type="curve" smooth="yes"/>
      <point x="34" y="128"/>
      <point x="93" y="-22"/>
      <point x="290" y="-22" type="curve" smooth="yes"/>
      <point x="489" y="-22"/>
      <point x="546" y="140"/>
      <point x="546" y="339" type="curve" smooth="yes"/>
      <point x="546" y="533"/>
      <point x="484" y="680"/>
      <point x="290" y="680" type="curve" smooth="yes"/>
    </contour>
    <contour>
      <point x="168" y="48"/>
      <point x="159" y="210"/>
      <point x="159" y="332" type="curve" smooth="yes"/>
      <point x="159" y="450"/>
      <point x="172" y="610"/>
      <point x="290" y="610" type="curve" smooth="yes"/>
      <point x="408" y="610"/>
      <point x="421" y="450"/>
      <point x="421" y="332" type="curve" smooth="yes"/>
      <point x="421" y="210"/>
      <point x="412" y="48"/>
      <point x="290" y="48" type="curve" smooth="yes"/>
    </contour>
    <contour>
      <point x="290" y="700" type="move" name="topcase"/>
    </contour>
    <contour>
      <point x="402" y="0" type="move" name="ogonek"/>
    </contour>
    <contour>
      <point x="290" y="660" type="move" name="top"/>
    </contour>
    <contour>
      <point x="290" y="0" type="move" name="bottom"/>
    </contour>
  </outline>
</glyph>
<glyph name="P" format="1">
  <advance width="494"/>
  <unicode hex="0050"/>
  <outline>
    <contour>
      <point x="484" y="616"/>
      <point x="389" y="664"/>
      <point x="247" y="664" type="curve" smooth="yes"/>
      <point x="188" y="664"/>
      <point x="119" y="660"/>
      <point x="60" y="656" type="curve"/>
      <point x="60" y="0" type="line"/>
      <point x="176" y="0" type="line"/>
      <point x="176" y="589" type="line"/>
      <point x="196" y="592"/>
      <point x="220" y="594"/>
      <point x="240" y="594" type="curve" smooth="yes"/>
      <point x="324" y="594"/>
      <point x="365" y="554"/>
      <point x="365" y="470" type="curve" smooth="yes"/>
      <point x="365" y="370"/>
      <point x="316" y="326"/>
      <point x="216" y="326" type="curve"/>
      <point x="216" y="290"/>
      <point x="260" y="280"/>
      <point x="296" y="280" type="curve" smooth="yes"/>
      <point x="411" y="280"/>
      <point x="484" y="359"/>
      <point x="484" y="474" type="curve" smooth="yes"/>
    </contour>
  </outline>
</glyph>
<glyph name="Q" format="1">
  <advance width="580"/>
  <unicode hex="0051"/>
  <outline>
    <contour>
      <point x="97" y="680"/>
      <point x="34" y="520"/>
      <point x="34" y="327" type="curve" smooth="yes"/>
      <point x="34" y="156"/>
      <point x="77" y="21"/>
      <point x="214" y="-13" type="curve"/>
      <point x="178" y="-13"/>
      <point x="150" y="-23"/>
      <point x="150" y="-57" type="curve" smooth="yes"/>
      <point x="150" y="-69"/>
      <point x="155" y="-83"/>
      <point x="164" y="-92" type="curve"/>
      <point x="180" y="-85"/>
      <point x="202" y="-84"/>
      <point x="219" y="-84" type="curve" smooth="yes"/>
      <point x="297" y="-84"/>
      <point x="388" y="-142"/>
      <point x="482" y="-142" type="curve" smooth="yes"/>
      <point x="527" y="-142"/>
      <point x="561" y="-126"/>
      <point x="561" y="-81" type="curve" smooth="yes"/>
      <point x="561" y="-61"/>
      <point x="551" y="-41"/>
      <point x="538" y="-23" type="curve"/>
      <point x="515" y="-42"/>
      <point x="488" y="-45"/>
      <point x="459" y="-45" type="curve" smooth="yes"/>
      <point x="409" y="-45"/>
      <point x="339" y="-33"/>
      <point x="290" y="-22" type="curve"/>
      <point x="489" y="-22"/>
      <point x="546" y="140"/>
      <point x="546" y="339" type="curve" smooth="yes"/>
      <point x="546" y="533"/>
      <point x="484" y="680"/>
      <point x="290" y="680" type="curve" smooth="yes"/>
    </contour>
    <contour>
      <point x="408" y="610"/>
      <point x="421" y="450"/>
      <point x="421" y="332" type="curve" smooth="yes"/>
      <point x="421" y="210"/>
      <point x="412" y="48"/>
      <point x="290" y="48" type="curve" smooth="yes"/>
      <point x="168" y="48"/>
      <point x="159" y="210"/>
      <point x="159" y="332" type="curve" smooth="yes"/>
      <point x="159" y="450"/>
      <point x="172" y="610"/>
      <point x="290" y="610" type="curve" smooth="yes"/>
    </contour>
  </outline>
</glyph>
<glyph name="R" format="1">
  <advance width="530"/>
  <unicode hex="0052"/>
  <outline>
    <contour>
      <point x="484" y="615"/>
      <point x="387" y="664"/>
      <point x="247" y="664" type="curve" smooth="yes"/>
      <point x="188" y="664"/>
      <point x="119" y="660"/>
      <point x="60" y="656" type="curve"/>
      <point x="60" y="0" type="line"/>
      <point x="176" y="0" type="line"/>
      <point x="176" y="589" type="line"/>
      <point x="196" y="592"/>
      <point x="220" y="594"/>
      <point x="240" y="594" type="curve" smooth="yes"/>
      <point x="324" y="594"/>
      <point x="365" y="555"/>
      <point x="365" y="475" type="curve" smooth="yes"/>
      <point x="365" y="378"/>
      <point x="317" y="336"/>
      <point x="217" y="336" type="curve"/>
      <point x="217" y="329"/>
      <point x="219" y="323"/>
      <point x="223" y="316" type="curve" smooth="yes"/>
      <point x="402" y="0" type="line"/>
      <point x="529" y="0" type="line"/>
      <point x="355" y="298" type="line"/>
      <point x="435" y="320"/>
      <point x="484" y="388"/>
      <point x="484" y="479" type="curve" smooth="yes"/>
    </contour>
    <contour>
      <point x="248" y="660" type="move" name="top"/>
    </contour>
    <contour>
      <point x="289" y="0" type="move" name="bottom"/>
    </contour>
    <contour>
      <point x="247" y="700" type="move" name="topcase"/>
    </contour>
  </outline>
</glyph>
<glyph name="S" format="1">
  <advance width="471"/>
  <unicode hex="0053"/>
  <outline>
    <contour>
      <point x="133" y="680"/>
      <point x="44" y="621"/>
      <point x="44" y="511" type="curve" smooth="yes"/>
      <point x="44" y="312"/>
      <point x="332" y="286"/>
      <point x="332" y="135" type="curve" smooth="yes"/>
      <point x="332" y="78"/>
      <point x="289" y="44"/>
      <point x="232" y="44" type="curve" smooth="yes"/>
      <point x="170" y="44"/>
      <point x="141" y="77"/>
      <point x="141" y="139" type="curve" smooth="yes"/>
      <point x="141" y="153"/>
      <point x="144" y="175"/>
      <point x="149" y="189" type="curve"/>
      <point x="136" y="201"/>
      <point x="114" y="205"/>
      <point x="97" y="205" type="curve" smooth="yes"/>
      <point x="50" y="205"/>
      <point x="20" y="171"/>
      <point x="20" y="124" type="curve" smooth="yes"/>
      <point x="20" y="17"/>
      <point x="116" y="-22"/>
      <point x="223" y="-22" type="curve" smooth="yes"/>
      <point x="346" y="-22"/>
      <point x="441" y="42"/>
      <point x="441" y="165" type="curve" smooth="yes"/>
      <point x="441" y="364"/>
      <point x="153" y="390"/>
      <point x="153" y="541" type="curve" smooth="yes"/>
      <point x="153" y="590"/>
      <point x="185" y="614"/>
      <point x="234" y="614" type="curve" smooth="yes"/>
      <point x="289" y="614"/>
      <point x="313" y="581"/>
      <point x="313" y="526" type="curve" smooth="yes"/>
      <point x="313" y="512"/>
      <point x="310" y="490"/>
      <point x="305" y="476" type="curve"/>
      <point x="318" y="464"/>
      <point x="340" y="460"/>
      <point x="357" y="460" type="curve" smooth="yes"/>
      <point x="404" y="460"/>
      <point x="434" y="494"/>
      <point x="434" y="541" type="curve" smooth="yes"/>
      <point x="434" y="645"/>
      <point x="347" y="680"/>
      <point x="243" y="680" type="curve" smooth="yes"/>
    </contour>
    <contour>
      <point x="236" y="660" type="move" name="top"/>
    </contour>
    <contour>
      <point x="233" y="0" type="move" name="bottom"/>
    </contour>
    <contour>
      <point x="234" y="699" type="move" name="topcase"/>
    </contour>
  </outline>
</glyph>
<glyph name="T" format="1">
  <advance width="400"/>
  <unicode hex="0054"/>
  <outline>
    <contour>
      <point x="-15" y="660" type="line"/>
      <point x="-15" y="586" type="line"/>
      <point x="142" y="586" type="line"/>
      <point x="142" y="0" type="line"/>
      <point x="258" y="0" type="line"/>
      <point x="258" y="586" type="line"/>
      <point x="412" y="586" type="line"/>
      <point x="419" y="660" type="line"/>
    </contour>
    <contour>
      <point x="200" y="0" type="move" name="bottom"/>
    </contour>
    <contour>
      <point x="200" y="700" type="move" name="topcase"/>
    </contour>
    <contour>
      <point x="203" y="660" type="move" name="top"/>
    </contour>
    <contour>
      <point x="191" y="330" type="move" name="center"/>
    </contour>
  </outline>
</glyph>
<glyph name="U" format="1">
  <advance width="546"/>
  <unicode hex="0055"/>
  <outline>
    <contour>
      <point x="491" y="660" type="line"/>
      <point x="391" y="660" type="line"/>
      <point x="391" y="263" type="line" smooth="yes"/>
      <point x="391" y="157"/>
      <point x="387" y="48"/>
      <point x="281" y="48" type="curve" smooth="yes"/>
      <point x="176" y="48"/>
      <point x="171" y="147"/>
      <point x="171" y="252" type="curve" smooth="yes"/>
      <point x="171" y="660" type="line"/>
      <point x="55" y="660" type="line"/>
      <point x="55" y="241" type="line" smooth="yes"/>
      <point x="55" y="66"/>
      <point x="99" y="-22"/>
      <point x="274" y="-22" type="curve" smooth="yes"/>
      <point x="456" y="-22"/>
      <point x="491" y="88"/>
      <point x="491" y="274" type="curve" smooth="yes"/>
    </contour>
    <contour>
      <point x="281" y="700" type="move" name="topcase"/>
    </contour>
    <contour>
      <point x="406" y="10" type="move" name="ogonek"/>
    </contour>
    <contour>
      <point x="282" y="660" type="move" name="top"/>
    </contour>
    <contour>
      <point x="286" y="0" type="move" name="bottom"/>
    </contour>
  </outline>
</glyph>
<glyph name="V" format="1">
  <advance width="478"/>
  <unicode hex="0056"/>
  <outline>
    <contour>
      <point x="373" y="660" type="line"/>
      <point x="243" y="74" type="line"/>
      <point x="112" y="660" type="line"/>
      <point x="-5" y="660" type="line"/>
      <point x="158" y="0" type="line"/>
      <point x="307" y="0" type="line"/>
      <point x="483" y="660" type="line"/>
    </contour>
  </outline>
</glyph>
<glyph name="W" format="1">
  <advance width="793"/>
  <unicode hex="0057"/>
  <outline>
    <contour>
      <point x="688" y="660" type="line"/>
      <point x="572" y="74" type="line"/>
      <point x="455" y="660" type="line"/>
      <point x="345" y="660" type="line"/>
      <point x="229" y="74" type="line"/>
      <point x="112" y="660" type="line"/>
      <point x="-5" y="660" type="line"/>
      <point x="144" y="0" type="line"/>
      <point x="293" y="0" type="line"/>
      <point x="390" y="476" type="line"/>
      <point x="487" y="0" type="line"/>
      <point x="636" y="0" type="line"/>
      <point x="798" y="660" type="line"/>
    </contour>
    <contour>
      <point x="399" y="660" type="move" name="top"/>
    </contour>
    <contour>
      <point x="400" y="700" type="move" name="topcase"/>
    </contour>
  </outline>
</glyph>
<glyph name="X" format="1">
  <advance width="516"/>
  <unicode hex="0058"/>
  <outline>
    <contour>
      <point x="388" y="660" type="line"/>
      <point x="269" y="430" type="line"/>
      <point x="142" y="660" type="line"/>
      <point x="15" y="660" type="line"/>
      <point x="200" y="337" type="line"/>
      <point x="1" y="0" type="line"/>
      <point x="121" y="0" type="line"/>
      <point x="249" y="248" type="line"/>
      <point x="388" y="0" type="line"/>
      <point x="515" y="0" type="line"/>
      <point x="319" y="340" type="line"/>
      <point x="508" y="660" type="line"/>
    </contour>
  </outline>
</glyph>
<glyph name="Y" format="1">
  <advance width="503"/>
  <unicode hex="0059"/>
  <outline>
    <contour>
      <point x="502" y="660" type="line"/>
      <point x="382" y="660" type="line"/>
      <point x="258" y="389" type="line"/>
      <point x="128" y="660" type="line"/>
      <point x="1" y="660" type="line"/>
      <point x="193" y="293" type="line"/>
      <point x="193" y="0" type="line"/>
      <point x="309" y="0" type="line"/>
      <point x="309" y="305" type="line"/>
    </contour>
    <contour>
      <point x="257" y="660" type="move" name="top"/>
    </contour>
    <contour>
      <point x="258" y="700" type="move" name="topcase"/>
    </contour>
  </outline>
</glyph>
<glyph name="Z" format="1">
  <advance width="419"/>
  <unicode hex="005A"/>
  <outline>
    <contour>
      <point x="29" y="660" type="line"/>
      <point x="22" y="586" type="line"/>
      <point x="282" y="586" type="line"/>
      <point x="4" y="73" type="line"/>
      <point x="11" y="0" type="line"/>
      <point x="408" y="0" type="line"/>
      <point x="415" y="74" type="line"/>
      <point x="128" y="74" type="line"/>
      <point x="406" y="587" type="line"/>
      <point x="399" y="660" type="line"/>
    </contour>
    <contour>
      <point x="212" y="660" type="move" name="top"/>
    </contour>
    <contour>
      <point x="197" y="0" type="move" name="bottom"/>
    </contour>
    <contour>
      <point x="212" y="701" type="move" name="topcase"/>
    </contour>
  </outline>
</glyph>
<glyph name="bracketleft" format="1">
  <advance width="301"/>
  <unicode hex="005B"/>
  <outline>
    <contour>
      <point x="80" y="790" type="line"/>
      <point x="80" y="-190" type="line"/>
      <point x="335" y="-190" type="line"/>
      <point x="339" y="-182"/>
      <point x="341" y="-169"/>
      <point x="341" y="-160" type="curve" smooth="yes"/>
      <point x="341" y="-133"/>
      <point x="324" y="-124"/>
      <point x="297" y="-124" type="curve" smooth="yes"/>
      <point x="197" y="-124" type="line"/>
      <point x="197" y="724" type="line"/>
      <point x="297" y="724" type="line" smooth="yes"/>
      <point x="324" y="724"/>
      <point x="341" y="733"/>
      <point x="341" y="760" type="curve" smooth="yes"/>
      <point x="341" y="769"/>
      <point x="339" y="782"/>
      <point x="335" y="790" type="curve"/>
    </contour>
  </outline>
</glyph>
<glyph name="backslash" format="1">
  <advance width="328"/>
  <unicode hex="005C"/>
  <outline>
    <contour>
      <point x="68" y="798"/>
      <point x="36" y="791"/>
      <point x="36" y="753" type="curve" smooth="yes"/>
      <point x="36" y="744"/>
      <point x="38" y="729"/>
      <point x="39" y="722" type="curve" smooth="yes"/>
      <point x="194" y="-196" type="line"/>
      <point x="200" y="-198"/>
      <point x="215" y="-200"/>
      <point x="231" y="-200" type="curve" smooth="yes"/>
      <point x="260" y="-200"/>
      <point x="292" y="-193"/>
      <point x="292" y="-155" type="curve" smooth="yes"/>
      <point x="292" y="-146"/>
      <point x="290" y="-131"/>
      <point x="289" y="-124" type="curve" smooth="yes"/>
      <point x="134" y="794" type="line"/>
      <point x="128" y="796"/>
      <point x="113" y="798"/>
      <point x="97" y="798" type="curve" smooth="yes"/>
    </contour>
  </outline>
</glyph>
<glyph name="bracketright" format="1">
  <advance width="301"/>
  <unicode hex="005D"/>
  <outline>
    <contour>
      <point x="221" y="790" type="line"/>
      <point x="-34" y="790" type="line"/>
      <point x="-38" y="782"/>
      <point x="-40" y="769"/>
      <point x="-40" y="760" type="curve" smooth="yes"/>
      <point x="-40" y="733"/>
      <point x="-23" y="724"/>
      <point x="4" y="724" type="curve" smooth="yes"/>
      <point x="104" y="724" type="line"/>
      <point x="104" y="-124" type="line"/>
      <point x="4" y="-124" type="line" smooth="yes"/>
      <point x="-23" y="-124"/>
      <point x="-40" y="-133"/>
      <point x="-40" y="-160" type="curve" smooth="yes"/>
      <point x="-40" y="-169"/>
      <point x="-38" y="-182"/>
      <point x="-34" y="-190" type="curve"/>
      <point x="221" y="-190" type="line"/>
    </contour>
  </outline>
</glyph>
<glyph name="asciicircum" format="1">
  <advance width="477"/>
  <unicode hex="005E"/>
  <outline>
    <contour>
      <point x="198" y="660" type="line"/>
      <point x="163" y="524"/>
      <point x="99" y="396"/>
      <point x="7" y="344" type="curve"/>
      <point x="17" y="313"/>
      <point x="36" y="295"/>
      <point x="68" y="295" type="curve" smooth="yes"/>
      <point x="121" y="295"/>
      <point x="172" y="363"/>
      <point x="235" y="537" type="curve"/>
      <point x="283" y="363"/>
      <point x="347" y="295"/>
      <point x="409" y="295" type="curve" smooth="yes"/>
      <point x="441" y="295"/>
      <point x="460" y="313"/>
      <point x="470" y="344" type="curve"/>
      <point x="388" y="406"/>
      <point x="334" y="504"/>
      <point x="299" y="660" type="curve"/>
    </contour>
  </outline>
</glyph>
<glyph name="underscore" format="1">
  <advance width="508"/>
  <unicode hex="005F"/>
  <outline>
    <contour>
      <point x="443" y="-134" type="line" smooth="yes"/>
      <point x="478" y="-134"/>
      <point x="501" y="-122"/>
      <point x="501" y="-86" type="curve" smooth="yes"/>
      <point x="501" y="-74"/>
      <point x="499" y="-57"/>
      <point x="493" y="-46" type="curve"/>
      <point x="66" y="-46" type="line" smooth="yes"/>
      <point x="30" y="-46"/>
      <point x="7" y="-58"/>
      <point x="7" y="-94" type="curve" smooth="yes"/>
      <point x="7" y="-106"/>
      <point x="9" y="-123"/>
      <point x="16" y="-134" type="curve"/>
    </contour>
  </outline>
</glyph>
<glyph name="grave" format="1">
  <advance width="238"/>
  <unicode hex="0060"/>
  <outline>
    <contour>
      <point x="228" y="607" type="line"/>
      <point x="57" y="759" type="line"/>
      <point x="30" y="752"/>
      <point x="10" y="729"/>
      <point x="10" y="702" type="curve" smooth="yes"/>
      <point x="10" y="662"/>
      <point x="58" y="637"/>
      <point x="94" y="621" type="curve" smooth="yes"/>
      <point x="203" y="572" type="line"/>
    </contour>
    <contour>
      <point x="146" y="530" type="move" name="_top"/>
    </contour>
  </outline>
</glyph>
<glyph name="a" format="1">
  <advance width="499"/>
  <unicode hex="0061"/>
  <outline>
    <contour>
      <point x="342" y="8"/>
      <point x="369" y="-15"/>
      <point x="407" y="-15" type="curve" smooth="yes"/>
      <point x="432" y="-15"/>
      <point x="455" y="-5"/>
      <point x="466" y="16" type="curve"/>
      <point x="442" y="29"/>
      <point x="435" y="53"/>
      <point x="435" y="82" type="curve" smooth="yes"/>
      <point x="435" y="342" type="line" smooth="yes"/>
      <point x="435" y="474"/>
      <point x="393" y="530"/>
      <point x="261" y="530" type="curve" smooth="yes"/>
      <point x="138" y="530"/>
      <point x="63" y="484"/>
      <point x="63" y="421" type="curve" smooth="yes"/>
      <point x="63" y="374"/>
      <point x="94" y="351"/>
      <point x="141" y="351" type="curve" smooth="yes"/>
      <point x="153" y="351"/>
      <point x="171" y="354"/>
      <point x="181" y="362" type="curve"/>
      <point x="176" y="377"/>
      <point x="173" y="392"/>
      <point x="173" y="407" type="curve" smooth="yes"/>
      <point x="173" y="452"/>
      <point x="209" y="477"/>
      <point x="254" y="477" type="curve" smooth="yes"/>
      <point x="314" y="477"/>
      <point x="326" y="438"/>
      <point x="326" y="378" type="curve" smooth="yes"/>
      <point x="326" y="291" type="line"/>
      <point x="190" y="291"/>
      <point x="37" y="265"/>
      <point x="37" y="129" type="curve" smooth="yes"/>
      <point x="37" y="38"/>
      <point x="108" y="-22"/>
      <point x="199" y="-22" type="curve" smooth="yes"/>
      <point x="255" y="-22"/>
      <point x="310" y="-4"/>
      <point x="337" y="46" type="curve"/>
    </contour>
    <contour>
      <point x="186" y="45"/>
      <point x="156" y="81"/>
      <point x="156" y="133" type="curve" smooth="yes"/>
      <point x="156" y="220"/>
      <point x="239" y="241"/>
      <point x="326" y="241" type="curve"/>
      <point x="326" y="162" type="line" smooth="yes"/>
      <point x="326" y="100"/>
      <point x="300" y="45"/>
      <point x="238" y="45" type="curve" smooth="yes"/>
    </contour>
    <contour>
      <point x="457" y="10" type="move" name="ogonek"/>
    </contour>
    <contour>
      <point x="266" y="0" type="move" name="bottom"/>
    </contour>
    <contour>
      <point x="248" y="530" type="move" name="top"/>
    </contour>
  </outline>
</glyph>
<glyph name="b" format="1">
  <advance width="523"/>
  <unicode hex="0062"/>
  <outline>
    <contour>
      <point x="70" y="700" type="line"/>
      <point x="70" y="25" type="line"/>
      <point x="125" y="-5"/>
      <point x="204" y="-22"/>
      <point x="268" y="-22" type="curve" smooth="yes"/>
      <point x="427" y="-22"/>
      <point x="491" y="103"/>
      <point x="491" y="262" type="curve" smooth="yes"/>
      <point x="491" y="399"/>
      <point x="447" y="530"/>
      <point x="310" y="530" type="curve" smooth="yes"/>
      <point x="249" y="530"/>
      <point x="194" y="495"/>
      <point x="169" y="439" type="curve"/>
      <point x="176" y="475"/>
      <point x="179" y="532"/>
      <point x="179" y="599" type="curve" smooth="yes"/>
      <point x="179" y="712" type="line"/>
    </contour>
    <contour>
      <point x="179" y="259" type="line" smooth="yes"/>
      <point x="179" y="347"/>
      <point x="190" y="453"/>
      <point x="278" y="453" type="curve" smooth="yes"/>
      <point x="363" y="453"/>
      <point x="372" y="342"/>
      <point x="372" y="257" type="curve" smooth="yes"/>
      <point x="372" y="165"/>
      <point x="365" y="38"/>
      <point x="273" y="38" type="curve" smooth="yes"/>
      <point x="240" y="38"/>
      <point x="207" y="49"/>
      <point x="179" y="68" type="curve"/>
    </contour>
  </outline>
</glyph>
<glyph name="c" format="1">
  <advance width="445"/>
  <unicode hex="0063"/>
  <outline>
    <contour>
      <point x="290" y="471"/>
      <point x="308" y="445"/>
      <point x="308" y="402" type="curve" smooth="yes"/>
      <point x="308" y="387"/>
      <point x="305" y="372"/>
      <point x="300" y="357" type="curve"/>
      <point x="310" y="349"/>
      <point x="328" y="346"/>
      <point x="340" y="346" type="curve" smooth="yes"/>
      <point x="387" y="346"/>
      <point x="418" y="369"/>
      <point x="418" y="416" type="curve" smooth="yes"/>
      <point x="418" y="498"/>
      <point x="345" y="530"/>
      <point x="263" y="530" type="curve" smooth="yes"/>
      <point x="101" y="530"/>
      <point x="32" y="404"/>
      <point x="32" y="242" type="curve" smooth="yes"/>
      <point x="32" y="90"/>
      <point x="95" y="-22"/>
      <point x="247" y="-22" type="curve" smooth="yes"/>
      <point x="323" y="-22"/>
      <point x="407" y="22"/>
      <point x="407" y="98" type="curve" smooth="yes"/>
      <point x="407" y="122"/>
      <point x="397" y="135"/>
      <point x="375" y="145" type="curve"/>
      <point x="360" y="88"/>
      <point x="316" y="54"/>
      <point x="257" y="54" type="curve" smooth="yes"/>
      <point x="161" y="54"/>
      <point x="147" y="157"/>
      <point x="147" y="253" type="curve" smooth="yes"/>
      <point x="147" y="341"/>
      <point x="159" y="471"/>
      <point x="247" y="471" type="curve" smooth="yes"/>
    </contour>
    <contour>
      <point x="250" y="530" type="move" name="top"/>
    </contour>
    <contour>
      <point x="247" y="0" type="move" name="bottom"/>
    </contour>
  </outline>
</glyph>
<glyph name="d" format="1">
  <advance width="526"/>
  <unicode hex="0064"/>
  <outline>
    <contour>
      <point x="452" y="712" type="line"/>
      <point x="343" y="700" type="line"/>
      <point x="343" y="517" type="line"/>
      <point x="316" y="526"/>
      <point x="284" y="530"/>
      <point x="255" y="530" type="curve" smooth="yes"/>
      <point x="96" y="530"/>
      <point x="32" y="415"/>
      <point x="32" y="256" type="curve" smooth="yes"/>
      <point x="32" y="110"/>
      <point x="80" y="-22"/>
      <point x="226" y="-22" type="curve" smooth="yes"/>
      <point x="277" y="-22"/>
      <point x="331" y="0"/>
      <point x="354" y="46" type="curve"/>
      <point x="359" y="8"/>
      <point x="386" y="-15"/>
      <point x="424" y="-15" type="curve" smooth="yes"/>
      <point x="449" y="-15"/>
      <point x="472" y="-5"/>
      <point x="483" y="16" type="curve"/>
      <point x="459" y="29"/>
      <point x="452" y="53"/>
      <point x="452" y="82" type="curve" smooth="yes"/>
    </contour>
    <contour>
      <point x="343" y="162" type="line" smooth="yes"/>
      <point x="343" y="100"/>
      <point x="317" y="45"/>
      <point x="255" y="45" type="curve" smooth="yes"/>
      <point x="165" y="45"/>
      <point x="151" y="171"/>
      <point x="151" y="261" type="curve" smooth="yes"/>
      <point x="151" y="353"/>
      <point x="158" y="470"/>
      <point x="250" y="470" type="curve" smooth="yes"/>
      <point x="283" y="470"/>
      <point x="315" y="458"/>
      <point x="343" y="439" type="curve"/>
    </contour>
    <contour>
      <point x="262" y="265" type="move" name="center"/>
    </contour>
    <contour>
      <point x="275" y="0" type="move" name="bottom"/>
    </contour>
  </outline>
</glyph>
<glyph name="e" format="1">
  <advance width="457"/>
  <unicode hex="0065"/>
  <outline>
    <contour>
      <point x="101" y="530"/>
      <point x="32" y="404"/>
      <point x="32" y="242" type="curve" smooth="yes"/>
      <point x="32" y="90"/>
      <point x="95" y="-22"/>
      <point x="247" y="-22" type="curve" smooth="yes"/>
      <point x="323" y="-22"/>
      <point x="410" y="22"/>
      <point x="410" y="98" type="curve" smooth="yes"/>
      <point x="410" y="116"/>
      <point x="404" y="133"/>
      <point x="387" y="141" type="curve"/>
      <point x="362" y="87"/>
      <point x="316" y="54"/>
      <point x="257" y="54" type="curve" smooth="yes"/>
      <point x="169" y="54"/>
      <point x="150" y="140"/>
      <point x="147" y="228" type="curve"/>
      <point x="160" y="227"/>
      <point x="186" y="226"/>
      <point x="202" y="226" type="curve" smooth="yes"/>
      <point x="326" y="226"/>
      <point x="427" y="259"/>
      <point x="427" y="383" type="curve" smooth="yes"/>
      <point x="427" y="479"/>
      <point x="359" y="530"/>
      <point x="263" y="530" type="curve" smooth="yes"/>
    </contour>
    <contour>
      <point x="297" y="473"/>
      <point x="318" y="427"/>
      <point x="318" y="377" type="curve" smooth="yes"/>
      <point x="318" y="302"/>
      <point x="267" y="276"/>
      <point x="192" y="276" type="curve" smooth="yes"/>
      <point x="169" y="276"/>
      <point x="140" y="278"/>
      <point x="115" y="284" type="curve"/>
      <point x="147" y="243" type="line"/>
      <point x="145" y="331"/>
      <point x="155" y="473"/>
      <point x="247" y="473" type="curve" smooth="yes"/>
    </contour>
    <contour>
      <point x="358" y="10" type="move" name="ogonek"/>
    </contour>
    <contour>
      <point x="244" y="0" type="move" name="bottom"/>
    </contour>
    <contour>
      <point x="246" y="530" type="move" name="top"/>
    </contour>
  </outline>
</glyph>
<glyph name="f" format="1">
  <advance width="312"/>
  <unicode hex="0066"/>
  <outline>
    <contour>
      <point x="185" y="465" type="line"/>
      <point x="293" y="465" type="line"/>
      <point x="293" y="510" type="line"/>
      <point x="184" y="510" type="line"/>
      <point x="184" y="564" type="line" smooth="yes"/>
      <point x="184" y="622"/>
      <point x="192" y="676"/>
      <point x="250" y="676" type="curve" smooth="yes"/>
      <point x="284" y="676"/>
      <point x="300" y="655"/>
      <point x="300" y="621" type="curve" smooth="yes"/>
      <point x="300" y="606"/>
      <point x="297" y="591"/>
      <point x="292" y="576" type="curve"/>
      <point x="302" y="568"/>
      <point x="320" y="565"/>
      <point x="332" y="565" type="curve" smooth="yes"/>
      <point x="379" y="565"/>
      <point x="410" y="588"/>
      <point x="410" y="635" type="curve" smooth="yes"/>
      <point x="410" y="703"/>
      <point x="324" y="720"/>
      <point x="256" y="720" type="curve" smooth="yes"/>
      <point x="148" y="720"/>
      <point x="85" y="672"/>
      <point x="79" y="564" type="curve" smooth="yes"/>
      <point x="76" y="510" type="line"/>
      <point x="5" y="510" type="line"/>
      <point x="5" y="465" type="line"/>
      <point x="76" y="465" type="line"/>
      <point x="76" y="-12" type="line"/>
      <point x="185" y="0" type="line"/>
    </contour>
  </outline>
</glyph>
<glyph name="g" format="1">
  <advance width="518"/>
  <unicode hex="0067"/>
  <outline>
    <contour>
      <point x="201" y="-141"/>
      <point x="176" y="-118"/>
      <point x="176" y="-72" type="curve" smooth="yes"/>
      <point x="176" y="-57"/>
      <point x="179" y="-42"/>
      <point x="184" y="-27" type="curve"/>
      <point x="174" y="-19"/>
      <point x="156" y="-16"/>
      <point x="144" y="-16" type="curve" smooth="yes"/>
      <point x="97" y="-16"/>
      <point x="66" y="-39"/>
      <point x="66" y="-86" type="curve" smooth="yes"/>
      <point x="66" y="-170"/>
      <point x="154" y="-200"/>
      <point x="238" y="-200" type="curve" smooth="yes"/>
      <point x="415" y="-200"/>
      <point x="452" y="-76"/>
      <point x="452" y="101" type="curve" smooth="yes"/>
      <point x="452" y="522" type="line"/>
      <point x="354" y="511" type="line"/>
      <point x="322" y="523"/>
      <point x="288" y="530"/>
      <point x="254" y="530" type="curve" smooth="yes"/>
      <point x="107" y="530"/>
      <point x="36" y="438"/>
      <point x="36" y="291" type="curve" smooth="yes"/>
      <point x="36" y="153"/>
      <point x="87" y="48"/>
      <point x="225" y="48" type="curve" smooth="yes"/>
      <point x="272" y="48"/>
      <point x="320" y="65"/>
      <point x="347" y="104" type="curve"/>
      <point x="347" y="77" type="line" smooth="yes"/>
      <point x="347" y="-22"/>
      <point x="346" y="-141"/>
      <point x="247" y="-141" type="curve" smooth="yes"/>
    </contour>
    <contour>
      <point x="343" y="232" type="line" smooth="yes"/>
      <point x="343" y="169"/>
      <point x="317" y="115"/>
      <point x="254" y="115" type="curve" smooth="yes"/>
      <point x="166" y="115"/>
      <point x="153" y="208"/>
      <point x="153" y="296" type="curve" smooth="yes"/>
      <point x="153" y="378"/>
      <point x="167" y="470"/>
      <point x="249" y="470" type="curve" smooth="yes"/>
      <point x="282" y="470"/>
      <point x="315" y="457"/>
      <point x="343" y="438" type="curve"/>
    </contour>
    <contour>
      <point x="254" y="530" type="move" name="top"/>
    </contour>
  </outline>
</glyph>
<glyph name="h" format="1">
  <advance width="531"/>
  <unicode hex="0068"/>
  <outline>
    <contour>
      <point x="70" y="700" type="line"/>
      <point x="70" y="0" type="line"/>
      <point x="179" y="0" type="line"/>
      <point x="179" y="259" type="line" smooth="yes"/>
      <point x="179" y="350"/>
      <point x="191" y="453"/>
      <point x="282" y="453" type="curve" smooth="yes"/>
      <point x="352" y="453"/>
      <point x="358" y="398"/>
      <point x="358" y="328" type="curve" smooth="yes"/>
      <point x="358" y="69" type="line" smooth="yes"/>
      <point x="358" y="17"/>
      <point x="382" y="-15"/>
      <point x="434" y="-15" type="curve" smooth="yes"/>
      <point x="459" y="-15"/>
      <point x="487" y="-5"/>
      <point x="498" y="16" type="curve"/>
      <point x="474" y="29"/>
      <point x="467" y="53"/>
      <point x="467" y="82" type="curve" smooth="yes"/>
      <point x="467" y="342" type="line" smooth="yes"/>
      <point x="467" y="460"/>
      <point x="435" y="530"/>
      <point x="317" y="530" type="curve" smooth="yes"/>
      <point x="250" y="530"/>
      <point x="197" y="500"/>
      <point x="169" y="439" type="curve"/>
      <point x="176" y="475"/>
      <point x="179" y="532"/>
      <point x="179" y="599" type="curve" smooth="yes"/>
      <point x="179" y="712" type="line"/>
    </contour>
    <contour>
      <point x="268" y="265" type="move" name="center"/>
    </contour>
    <contour>
      <point x="276" y="0" type="move" name="bottom"/>
    </contour>
    <contour>
      <point x="129" y="660" type="move" name="top"/>
    </contour>
  </outline>
</glyph>
<glyph name="j" format="1">
  <advance width="246"/>
  <unicode hex="006A"/>
  <outline>
    <contour>
      <point x="180" y="510" type="line"/>
      <point x="70" y="510" type="line"/>
      <point x="70" y="7" type="line" smooth="yes"/>
      <point x="70" y="-75"/>
      <point x="53" y="-156"/>
      <point x="-29" y="-156" type="curve"/>
      <point x="-29" y="-188"/>
      <point x="8" y="-200"/>
      <point x="40" y="-200" type="curve" smooth="yes"/>
      <point x="155" y="-200"/>
      <point x="180" y="-80"/>
      <point x="180" y="35" type="curve" smooth="yes"/>
    </contour>
    <component base="dotaccent" xOffset="40"/>
  </outline>
</glyph>
<glyph name="m" format="1">
  <advance width="808"/>
  <unicode hex="006D"/>
  <outline>
    <contour>
      <point x="175" y="0" type="line"/>
      <point x="175" y="259" type="line" smooth="yes"/>
      <point x="175" y="350"/>
      <point x="187" y="453"/>
      <point x="278" y="453" type="curve" smooth="yes"/>
      <point x="348" y="453"/>
      <point x="354" y="398"/>
      <point x="354" y="328" type="curve" smooth="yes"/>
      <point x="354" y="0" type="line"/>
      <point x="463" y="0" type="line"/>
      <point x="463" y="259" type="line" smooth="yes"/>
      <point x="463" y="346"/>
      <point x="472" y="453"/>
      <point x="559" y="453" type="curve" smooth="yes"/>
      <point x="629" y="453"/>
      <point x="635" y="398"/>
      <point x="635" y="328" type="curve" smooth="yes"/>
      <point x="635" y="69" type="line" smooth="yes"/>
      <point x="635" y="17"/>
      <point x="659" y="-15"/>
      <point x="711" y="-15" type="curve" smooth="yes"/>
      <point x="736" y="-15"/>
      <point x="764" y="-5"/>
      <point x="775" y="16" type="curve"/>
      <point x="751" y="29"/>
      <point x="744" y="53"/>
      <point x="744" y="82" type="curve" smooth="yes"/>
      <point x="744" y="342" type="line" smooth="yes"/>
      <point x="744" y="460"/>
      <point x="712" y="530"/>
      <point x="594" y="530" type="curve" smooth="yes"/>
      <point x="526" y="530"/>
      <point x="478" y="499"/>
      <point x="452" y="437" type="curve"/>
      <point x="434" y="496"/>
      <point x="394" y="530"/>
      <point x="313" y="530" type="curve" smooth="yes"/>
      <point x="243" y="530"/>
      <point x="188" y="497"/>
      <point x="162" y="432" type="curve"/>
      <point x="157" y="522" type="line"/>
      <point x="66" y="510" type="line"/>
      <point x="66" y="0" type="line"/>
    </contour>
  </outline>
</glyph>
<glyph name="o" format="1">
  <advance width="502"/>
  <unicode hex="006F"/>
  <outline>
    <contour>
      <point x="96" y="530"/>
      <point x="32" y="407"/>
      <point x="32" y="252" type="curve" smooth="yes"/>
      <point x="32" y="92"/>
      <point x="91" y="-22"/>
      <point x="251" y="-22" type="curve" smooth="yes"/>
      <point x="413" y="-22"/>
      <point x="470" y="100"/>
      <point x="470" y="262" type="curve" smooth="yes"/>
      <point x="470" y="417"/>
      <point x="406" y="530"/>
      <point x="251" y="530" type="curve" smooth="yes"/>
    </contour>
    <contour>
      <point x="157" y="38"/>
      <point x="151" y="163"/>
      <point x="151" y="257" type="curve" smooth="yes"/>
      <point x="151" y="345"/>
      <point x="163" y="470"/>
      <point x="251" y="470" type="curve" smooth="yes"/>
      <point x="340" y="470"/>
      <point x="351" y="346"/>
      <point x="351" y="257" type="curve" smooth="yes"/>
      <point x="351" y="163"/>
      <point x="345" y="38"/>
      <point x="251" y="38" type="curve" smooth="yes"/>
    </contour>
    <contour>
      <point x="356" y="0" type="move" name="ogonek"/>
    </contour>
    <contour>
      <point x="247" y="0" type="move" name="bottom"/>
    </contour>
    <contour>
      <point x="251" y="530" type="move" name="top"/>
    </contour>
  </outline>
</glyph>
<glyph name="p" format="1">
  <advance width="522"/>
  <unicode hex="0070"/>
  <outline>
    <contour>
      <point x="245" y="530"/>
      <point x="194" y="498"/>
      <point x="166" y="432" type="curve"/>
      <point x="161" y="522" type="line"/>
      <point x="70" y="510" type="line"/>
      <point x="70" y="-193" type="line"/>
      <point x="179" y="-181" type="line"/>
      <point x="179" y="-9" type="line"/>
      <point x="206" y="-18"/>
      <point x="238" y="-22"/>
      <point x="267" y="-22" type="curve" smooth="yes"/>
      <point x="426" y="-22"/>
      <point x="490" y="103"/>
      <point x="490" y="262" type="curve" smooth="yes"/>
      <point x="490" y="398"/>
      <point x="452" y="530"/>
      <point x="316" y="530" type="curve" smooth="yes"/>
    </contour>
    <contour>
      <point x="366" y="453"/>
      <point x="371" y="345"/>
      <point x="371" y="257" type="curve" smooth="yes"/>
      <point x="371" y="165"/>
      <point x="364" y="38"/>
      <point x="272" y="38" type="curve" smooth="yes"/>
      <point x="239" y="38"/>
      <point x="207" y="50"/>
      <point x="179" y="69" type="curve"/>
      <point x="179" y="307" type="line" smooth="yes"/>
      <point x="179" y="382"/>
      <point x="203" y="453"/>
      <point x="278" y="453" type="curve" smooth="yes"/>
    </contour>
  </outline>
</glyph>
<glyph name="q" format="1">
  <advance width="523"/>
  <unicode hex="0071"/>
  <outline>
    <contour>
      <point x="453" y="-180" type="line"/>
      <point x="453" y="522" type="line"/>
      <point x="355" y="511" type="line"/>
      <point x="323" y="523"/>
      <point x="289" y="530"/>
      <point x="255" y="530" type="curve" smooth="yes"/>
      <point x="96" y="530"/>
      <point x="32" y="415"/>
      <point x="32" y="256" type="curve" smooth="yes"/>
      <point x="32" y="110"/>
      <point x="81" y="-22"/>
      <point x="227" y="-22" type="curve" smooth="yes"/>
      <point x="278" y="-22"/>
      <point x="332" y="0"/>
      <point x="355" y="46" type="curve"/>
      <point x="348" y="10"/>
      <point x="344" y="-24"/>
      <point x="344" y="-91" type="curve" smooth="yes"/>
      <point x="344" y="-192" type="line"/>
    </contour>
    <contour>
      <point x="344" y="162" type="line" smooth="yes"/>
      <point x="344" y="100"/>
      <point x="318" y="45"/>
      <point x="256" y="45" type="curve" smooth="yes"/>
      <point x="166" y="45"/>
      <point x="151" y="171"/>
      <point x="151" y="261" type="curve" smooth="yes"/>
      <point x="151" y="353"/>
      <point x="158" y="470"/>
      <point x="250" y="470" type="curve" smooth="yes"/>
      <point x="283" y="470"/>
      <point x="316" y="457"/>
      <point x="344" y="438" type="curve"/>
    </contour>
  </outline>
</glyph>
<glyph name="r" format="1">
  <advance width="394"/>
  <unicode hex="0072"/>
  <outline>
    <contour>
      <point x="277" y="453"/>
      <point x="291" y="431"/>
      <point x="291" y="398" type="curve" smooth="yes"/>
      <point x="291" y="383"/>
      <point x="288" y="368"/>
      <point x="283" y="353" type="curve"/>
      <point x="293" y="345"/>
      <point x="311" y="342"/>
      <point x="323" y="342" type="curve" smooth="yes"/>
      <point x="375" y="342"/>
      <point x="401" y="370"/>
      <point x="401" y="422" type="curve" smooth="yes"/>
      <point x="401" y="489"/>
      <point x="359" y="530"/>
      <point x="292" y="530" type="curve" smooth="yes"/>
      <point x="230" y="530"/>
      <point x="181" y="491"/>
      <point x="162" y="432" type="curve"/>
      <point x="157" y="522" type="line"/>
      <point x="66" y="510" type="line"/>
      <point x="66" y="0" type="line"/>
      <point x="175" y="0" type="line"/>
      <point x="175" y="257" type="line" smooth="yes"/>
      <point x="175" y="324"/>
      <point x="177" y="453"/>
      <point x="244" y="453" type="curve" smooth="yes"/>
    </contour>
    <contour>
      <point x="126" y="530" type="move" name="top"/>
    </contour>
    <contour>
      <point x="121" y="0" type="move" name="bottom"/>
    </contour>
  </outline>
</glyph>
<glyph name="s" format="1">
  <advance width="444"/>
  <unicode hex="0073"/>
  <outline>
    <contour>
      <point x="271" y="477"/>
      <point x="293" y="450"/>
      <point x="293" y="407" type="curve" smooth="yes"/>
      <point x="293" y="392"/>
      <point x="290" y="377"/>
      <point x="285" y="362" type="curve"/>
      <point x="295" y="354"/>
      <point x="313" y="351"/>
      <point x="325" y="351" type="curve" smooth="yes"/>
      <point x="372" y="351"/>
      <point x="403" y="374"/>
      <point x="403" y="421" type="curve" smooth="yes"/>
      <point x="403" y="505"/>
      <point x="326" y="530"/>
      <point x="242" y="530" type="curve" smooth="yes"/>
      <point x="147" y="530"/>
      <point x="57" y="484"/>
      <point x="57" y="390" type="curve" smooth="yes"/>
      <point x="57" y="222"/>
      <point x="300" y="234"/>
      <point x="300" y="108" type="curve" smooth="yes"/>
      <point x="300" y="58"/>
      <point x="274" y="31"/>
      <point x="224" y="31" type="curve" smooth="yes"/>
      <point x="180" y="31"/>
      <point x="150" y="56"/>
      <point x="150" y="100" type="curve" smooth="yes"/>
      <point x="150" y="115"/>
      <point x="153" y="130"/>
      <point x="158" y="145" type="curve"/>
      <point x="148" y="153"/>
      <point x="130" y="156"/>
      <point x="118" y="156" type="curve" smooth="yes"/>
      <point x="71" y="156"/>
      <point x="40" y="133"/>
      <point x="40" y="86" type="curve" smooth="yes"/>
      <point x="40" y="2"/>
      <point x="128" y="-22"/>
      <point x="212" y="-22" type="curve" smooth="yes"/>
      <point x="318" y="-22"/>
      <point x="404" y="30"/>
      <point x="404" y="136" type="curve" smooth="yes"/>
      <point x="404" y="304"/>
      <point x="161" y="291"/>
      <point x="161" y="417" type="curve" smooth="yes"/>
      <point x="161" y="456"/>
      <point x="189" y="477"/>
      <point x="228" y="477" type="curve" smooth="yes"/>
    </contour>
    <contour>
      <point x="228" y="530" type="move" name="top"/>
    </contour>
    <contour>
      <point x="224" y="0" type="move" name="bottom"/>
    </contour>
  </outline>
</glyph>
<glyph name="t" format="1">
  <advance width="284"/>
  <unicode hex="0074"/>
  <outline>
    <contour>
      <point x="76" y="77" type="line" smooth="yes"/>
      <point x="76" y="19"/>
      <point x="100" y="-15"/>
      <point x="157" y="-15" type="curve" smooth="yes"/>
      <point x="192" y="-15"/>
      <point x="225" y="5"/>
      <point x="232" y="37" type="curve"/>
      <point x="199" y="42"/>
      <point x="186" y="62"/>
      <point x="186" y="101" type="curve" smooth="yes"/>
      <point x="186" y="465" type="line"/>
      <point x="280" y="465" type="line"/>
      <point x="280" y="510" type="line"/>
      <point x="188" y="510" type="line"/>
      <point x="188" y="609" type="line"/>
      <point x="157" y="609" type="line"/>
      <point x="120" y="560"/>
      <point x="63" y="519"/>
      <point x="4" y="495" type="curve"/>
      <point x="5" y="465" type="line"/>
      <point x="76" y="465" type="line"/>
    </contour>
    <contour>
      <point x="135" y="265" type="move" name="center"/>
    </contour>
    <contour>
      <point x="158" y="0" type="move" name="bottom"/>
    </contour>
    <contour>
      <point x="271" y="660" type="move" name="topright"/>
    </contour>
  </outline>
</glyph>
<glyph name="u" format="1">
  <advance width="531"/>
  <unicode hex="0075"/>
  <outline>
    <contour>
      <point x="352" y="510" type="line"/>
      <point x="352" y="162" type="line" smooth="yes"/>
      <point x="352" y="100"/>
      <point x="326" y="45"/>
      <point x="264" y="45" type="curve" smooth="yes"/>
      <point x="174" y="45"/>
      <point x="173" y="151"/>
      <point x="173" y="241" type="curve" smooth="yes"/>
      <point x="173" y="510" type="line"/>
      <point x="64" y="510" type="line"/>
      <point x="64" y="236" type="line" smooth="yes"/>
      <point x="64" y="85"/>
      <point x="84" y="-22"/>
      <point x="235" y="-22" type="curve" smooth="yes"/>
      <point x="286" y="-22"/>
      <point x="340" y="0"/>
      <point x="363" y="46" type="curve"/>
      <point x="368" y="8"/>
      <point x="395" y="-15"/>
      <point x="433" y="-15" type="curve" smooth="yes"/>
      <point x="458" y="-15"/>
      <point x="481" y="-5"/>
      <point x="492" y="16" type="curve"/>
      <point x="468" y="29"/>
      <point x="461" y="53"/>
      <point x="461" y="82" type="curve" smooth="yes"/>
      <point x="461" y="510" type="line"/>
    </contour>
    <contour>
      <point x="489" y="10" type="move" name="ogonek"/>
    </contour>
    <contour>
      <point x="274" y="0" type="move" name="bottom"/>
    </contour>
    <contour>
      <point x="264" y="530" type="move" name="top"/>
    </contour>
  </outline>
</glyph>
<glyph name="v" format="1">
  <advance width="421"/>
  <unicode hex="0076"/>
  <outline>
    <contour>
      <point x="317" y="510" type="line"/>
      <point x="215" y="67" type="line"/>
      <point x="113" y="510" type="line"/>
      <point x="0" y="510" type="line"/>
      <point x="138" y="0" type="line"/>
      <point x="273" y="0" type="line"/>
      <point x="421" y="510" type="line"/>
    </contour>
  </outline>
</glyph>
<glyph name="w" format="1">
  <advance width="690"/>
  <unicode hex="0077"/>
  <outline>
    <contour>
      <point x="586" y="510" type="line"/>
      <point x="495" y="67" type="line"/>
      <point x="404" y="510" type="line"/>
      <point x="295" y="510" type="line"/>
      <point x="204" y="67" type="line"/>
      <point x="113" y="510" type="line"/>
      <point x="0" y="510" type="line"/>
      <point x="127" y="0" type="line"/>
      <point x="262" y="0" type="line"/>
      <point x="338" y="360" type="line"/>
      <point x="418" y="0" type="line"/>
      <point x="553" y="0" type="line"/>
      <point x="690" y="510" type="line"/>
    </contour>
    <contour>
      <point x="350" y="530" type="move" name="top"/>
    </contour>
  </outline>
</glyph>
<glyph name="x" format="1">
  <advance width="446"/>
  <unicode hex="0078"/>
  <outline>
    <contour>
      <point x="314" y="0" type="line"/>
      <point x="441" y="0" type="line"/>
      <point x="279" y="269" type="line"/>
      <point x="436" y="510" type="line"/>
      <point x="321" y="510" type="line"/>
      <point x="236" y="344" type="line"/>
      <point x="144" y="510" type="line"/>
      <point x="17" y="510" type="line"/>
      <point x="172" y="253" type="line"/>
      <point x="5" y="0" type="line"/>
      <point x="120" y="0" type="line"/>
      <point x="214" y="179" type="line"/>
    </contour>
  </outline>
</glyph>
<glyph name="y" format="1">
  <advance width="422"/>
  <unicode hex="0079"/>
  <outline>
    <contour>
      <point x="318" y="510" type="line"/>
      <point x="216" y="115" type="line"/>
      <point x="121" y="510" type="line"/>
      <point x="8" y="510" type="line"/>
      <point x="135" y="48" type="line"/>
      <point x="185" y="48" type="line"/>
      <point x="86" y="-180" type="line"/>
      <point x="195" y="-193" type="line"/>
      <point x="422" y="510" type="line"/>
    </contour>
    <contour>
      <point x="217" y="530" type="move" name="top"/>
    </contour>
  </outline>
</glyph>
<glyph name="z" format="1">
  <advance width="379"/>
  <unicode hex="007A"/>
  <outline>
    <contour>
      <point x="27" y="510" type="line"/>
      <point x="19" y="429" type="line"/>
      <point x="242" y="442" type="line"/>
      <point x="10" y="61" type="line"/>
      <point x="17" y="0" type="line"/>
      <point x="362" y="0" type="line"/>
      <point x="369" y="75" type="line"/>
      <point x="128" y="67" type="line"/>
      <point x="362" y="451" type="line"/>
      <point x="355" y="510" type="line"/>
    </contour>
    <contour>
      <point x="187" y="530" type="move" name="top"/>
    </contour>
    <contour>
      <point x="179" y="0" type="move" name="bottom"/>
    </contour>
  </outline>
</glyph>
<glyph name="braceleft" format="1">
  <advance width="327"/>
  <unicode hex="007B"/>
  <outline>
    <contour>
      <point x="128" y="800"/>
      <point x="105" y="762"/>
      <point x="105" y="669" type="curve" smooth="yes"/>
      <point x="105" y="451" type="line" smooth="yes"/>
      <point x="105" y="380"/>
      <point x="84" y="336"/>
      <point x="33" y="336" type="curve"/>
      <point x="31" y="280" type="line"/>
      <point x="100" y="280"/>
      <point x="104" y="224"/>
      <point x="104" y="165" type="curve" smooth="yes"/>
      <point x="104" y="-54" type="line" smooth="yes"/>
      <point x="104" y="-138"/>
      <point x="112" y="-200"/>
      <point x="220" y="-200" type="curve" smooth="yes"/>
      <point x="240" y="-200"/>
      <point x="264" y="-198"/>
      <point x="298" y="-193" type="curve"/>
      <point x="301" y="-147" type="line"/>
      <point x="277" y="-147" type="line" smooth="yes"/>
      <point x="221" y="-147"/>
      <point x="217" y="-69"/>
      <point x="217" y="-19" type="curve" smooth="yes"/>
      <point x="217" y="190" type="line" smooth="yes"/>
      <point x="217" y="247"/>
      <point x="218" y="305"/>
      <point x="141" y="311" type="curve"/>
      <point x="199" y="319"/>
      <point x="221" y="363"/>
      <point x="221" y="432" type="curve" smooth="yes"/>
      <point x="221" y="638" type="line" smooth="yes"/>
      <point x="221" y="707"/>
      <point x="229" y="748"/>
      <point x="283" y="748" type="curve" smooth="yes"/>
      <point x="307" y="748" type="line"/>
      <point x="307" y="793" type="line"/>
      <point x="276" y="798"/>
      <point x="249" y="800"/>
      <point x="226" y="800" type="curve" smooth="yes"/>
    </contour>
  </outline>
</glyph>
<glyph name="bar" format="1">
  <advance width="253"/>
  <unicode hex="007C"/>
  <outline>
    <contour>
      <point x="178" y="-200" type="line"/>
      <point x="75" y="-200" type="line"/>
      <point x="75" y="800" type="line"/>
      <point x="178" y="800" type="line"/>
    </contour>
  </outline>
</glyph>
<glyph name="braceright" format="1">
  <advance width="380"/>
  <unicode hex="007D"/>
  <outline>
    <contour>
      <point x="106" y="638" type="line" smooth="yes"/>
      <point x="106" y="707"/>
      <point x="98" y="748"/>
      <point x="44" y="748" type="curve" smooth="yes"/>
      <point x="20" y="748" type="line"/>
      <point x="20" y="793" type="line"/>
      <point x="51" y="798"/>
      <point x="78" y="800"/>
      <point x="101" y="800" type="curve" smooth="yes"/>
      <point x="199" y="800"/>
      <point x="222" y="762"/>
      <point x="222" y="669" type="curve" smooth="yes"/>
      <point x="222" y="451" type="line" smooth="yes"/>
      <point x="222" y="380"/>
      <point x="243" y="336"/>
      <point x="294" y="336" type="curve"/>
      <point x="296" y="280" type="line"/>
      <point x="227" y="280"/>
      <point x="223" y="224"/>
      <point x="223" y="165" type="curve" smooth="yes"/>
      <point x="223" y="-54" type="line" smooth="yes"/>
      <point x="223" y="-138"/>
      <point x="215" y="-200"/>
      <point x="107" y="-200" type="curve" smooth="yes"/>
      <point x="87" y="-200"/>
      <point x="63" y="-198"/>
      <point x="29" y="-193" type="curve"/>
      <point x="26" y="-147" type="line"/>
      <point x="50" y="-147" type="line" smooth="yes"/>
      <point x="106" y="-147"/>
      <point x="110" y="-69"/>
      <point x="110" y="-19" type="curve" smooth="yes"/>
      <point x="110" y="190" type="line" smooth="yes"/>
      <point x="110" y="247"/>
      <point x="109" y="305"/>
      <point x="186" y="311" type="curve"/>
      <point x="128" y="319"/>
      <point x="106" y="363"/>
      <point x="106" y="432" type="curve" smooth="yes"/>
    </contour>
  </outline>
</glyph>
<glyph name="asciitilde" format="1">
  <advance width="540"/>
  <unicode hex="007E"/>
  <outline>
    <contour>
      <point x="398" y="251"/>
      <point x="427" y="262"/>
      <point x="435" y="275" type="curve"/>
      <point x="450" y="260"/>
      <point x="459" y="240"/>
      <point x="459" y="223" type="curve" smooth="yes"/>
      <point x="459" y="190"/>
      <point x="427" y="170"/>
      <point x="379" y="170" type="curve" smooth="yes"/>
      <point x="315" y="170"/>
      <point x="220" y="206"/>
      <point x="169" y="206" type="curve" smooth="yes"/>
      <point x="141" y="206"/>
      <point x="112" y="195"/>
      <point x="104" y="182" type="curve"/>
      <point x="89" y="197"/>
      <point x="80" y="217"/>
      <point x="80" y="234" type="curve" smooth="yes"/>
      <point x="80" y="267"/>
      <point x="112" y="287"/>
      <point x="160" y="287" type="curve" smooth="yes"/>
      <point x="224" y="287"/>
      <point x="319" y="251"/>
      <point x="370" y="251" type="curve" smooth="yes"/>
    </contour>
  </outline>
</glyph>
<glyph name="exclamdown" format="1">
  <advance width="245"/>
  <unicode hex="00A1"/>
  <outline>
    <contour>
      <point x="106" y="310"/>
      <point x="95" y="307"/>
      <point x="87" y="301" type="curve"/>
      <point x="63" y="10" type="line"/>
      <point x="60" y="-27"/>
      <point x="57" y="-58"/>
      <point x="57" y="-103" type="curve" smooth="yes"/>
      <point x="57" y="-147"/>
      <point x="76" y="-170"/>
      <point x="120" y="-170" type="curve" smooth="yes"/>
      <point x="141" y="-170"/>
      <point x="165" y="-162"/>
      <point x="180" y="-149" type="curve"/>
      <point x="168" y="246" type="line"/>
      <point x="166" y="286"/>
      <point x="160" y="310"/>
      <point x="120" y="310" type="curve" smooth="yes"/>
    </contour>
    <component base="period" xOffset="3" yOffset="424"/>
  </outline>
</glyph>
<glyph name="cent" format="1">
  <advance width="540"/>
  <unicode hex="00A2"/>
  <outline>
    <contour>
      <point x="199" y="595"/>
      <point x="74" y="520"/>
      <point x="74" y="307" type="curve" smooth="yes"/>
      <point x="74" y="103"/>
      <point x="199" y="42"/>
      <point x="327" y="42" type="curve" smooth="yes"/>
      <point x="379" y="42"/>
      <point x="479" y="80"/>
      <point x="479" y="163" type="curve" smooth="yes"/>
      <point x="479" y="187"/>
      <point x="469" y="200"/>
      <point x="447" y="210" type="curve"/>
      <point x="432" y="153"/>
      <point x="388" y="119"/>
      <point x="329" y="119" type="curve" smooth="yes"/>
      <point x="206" y="119"/>
      <point x="189" y="222"/>
      <point x="189" y="318" type="curve" smooth="yes"/>
      <point x="189" y="406"/>
      <point x="204" y="536"/>
      <point x="319" y="536" type="curve" smooth="yes"/>
      <point x="362" y="536"/>
      <point x="380" y="510"/>
      <point x="380" y="467" type="curve" smooth="yes"/>
      <point x="380" y="452"/>
      <point x="377" y="437"/>
      <point x="372" y="422" type="curve"/>
      <point x="382" y="414"/>
      <point x="400" y="411"/>
      <point x="412" y="411" type="curve" smooth="yes"/>
      <point x="459" y="411"/>
      <point x="490" y="434"/>
      <point x="490" y="481" type="curve" smooth="yes"/>
      <point x="490" y="577"/>
      <point x="388" y="595"/>
      <point x="334" y="595" type="curve" smooth="yes"/>
    </contour>
    <contour>
      <point x="255" y="-40" type="line"/>
      <point x="266" y="-47"/>
      <point x="282" y="-49"/>
      <point x="294" y="-49" type="curve" smooth="yes"/>
      <point x="328" y="-49"/>
      <point x="340" y="-27"/>
      <point x="340" y="8" type="curve" smooth="yes"/>
      <point x="340" y="60" type="line"/>
      <point x="255" y="77" type="line"/>
    </contour>
    <contour>
      <point x="266" y="687"/>
      <point x="254" y="665"/>
      <point x="254" y="629" type="curve" smooth="yes"/>
      <point x="254" y="579" type="line"/>
      <point x="339" y="582" type="line"/>
      <point x="339" y="678" type="line"/>
      <point x="328" y="684"/>
      <point x="312" y="687"/>
      <point x="300" y="687" type="curve" smooth="yes"/>
    </contour>
  </outline>
</glyph>
<glyph name="sterling" format="1">
  <advance width="540"/>
  <unicode hex="00A3"/>
  <outline>
    <contour>
      <point x="94" y="401" type="line" smooth="yes"/>
      <point x="69" y="401"/>
      <point x="52" y="392"/>
      <point x="52" y="367" type="curve" smooth="yes"/>
      <point x="52" y="358"/>
      <point x="54" y="346"/>
      <point x="58" y="338" type="curve"/>
      <point x="358" y="338" type="line" smooth="yes"/>
      <point x="383" y="338"/>
      <point x="400" y="347"/>
      <point x="400" y="372" type="curve" smooth="yes"/>
      <point x="400" y="381"/>
      <point x="398" y="393"/>
      <point x="394" y="401" type="curve"/>
    </contour>
    <contour>
      <point x="353" y="616"/>
      <point x="367" y="581"/>
      <point x="367" y="526" type="curve" smooth="yes"/>
      <point x="367" y="512"/>
      <point x="364" y="490"/>
      <point x="359" y="476" type="curve"/>
      <point x="372" y="464"/>
      <point x="394" y="460"/>
      <point x="411" y="460" type="curve" smooth="yes"/>
      <point x="458" y="460"/>
      <point x="488" y="494"/>
      <point x="488" y="541" type="curve" smooth="yes"/>
      <point x="488" y="643"/>
      <point x="400" y="660"/>
      <point x="304" y="660" type="curve" smooth="yes"/>
      <point x="196" y="660"/>
      <point x="125" y="612"/>
      <point x="125" y="504" type="curve" smooth="yes"/>
      <point x="125" y="175" type="line" smooth="yes"/>
      <point x="125" y="118"/>
      <point x="111" y="81"/>
      <point x="58" y="63" type="curve"/>
      <point x="65" y="0" type="line"/>
      <point x="454" y="0" type="line"/>
      <point x="461" y="84" type="line"/>
      <point x="177" y="84" type="line"/>
      <point x="212" y="108"/>
      <point x="232" y="148"/>
      <point x="232" y="209" type="curve" smooth="yes"/>
      <point x="232" y="504" type="line" smooth="yes"/>
      <point x="232" y="562"/>
      <point x="240" y="616"/>
      <point x="298" y="616" type="curve" smooth="yes"/>
    </contour>
  </outline>
</glyph>
<glyph name="currency" format="1">
  <advance width="540"/>
  <unicode hex="00A4"/>
  <outline>
    <contour>
      <point x="158" y="168"/>
      <point x="269" y="168" type="curve" smooth="yes"/>
      <point x="367" y="168"/>
      <point x="435" y="224"/>
      <point x="435" y="332" type="curve" smooth="yes"/>
      <point x="435" y="428"/>
      <point x="374" y="501"/>
      <point x="270" y="501" type="curve" smooth="yes"/>
      <point x="173" y="501"/>
      <point x="104" y="434"/>
      <point x="104" y="332" type="curve" smooth="yes"/>
      <point x="104" y="237"/>
    </contour>
    <contour>
      <point x="327" y="435"/>
      <point x="363" y="392"/>
      <point x="363" y="334" type="curve" smooth="yes"/>
      <point x="363" y="279"/>
      <point x="331" y="235"/>
      <point x="269" y="235" type="curve" smooth="yes"/>
      <point x="207" y="235"/>
      <point x="176" y="279"/>
      <point x="176" y="334" type="curve" smooth="yes"/>
      <point x="176" y="392"/>
      <point x="212" y="435"/>
      <point x="270" y="435" type="curve" smooth="yes"/>
    </contour>
    <contour>
      <point x="186" y="470" type="line"/>
      <point x="76" y="571" type="line"/>
      <point x="23" y="508" type="line"/>
      <point x="133" y="414" type="line"/>
    </contour>
    <contour>
      <point x="406" y="414" type="line"/>
      <point x="516" y="508" type="line"/>
      <point x="463" y="571" type="line"/>
      <point x="353" y="470" type="line"/>
    </contour>
    <contour>
      <point x="345" y="193" type="line"/>
      <point x="432" y="98" type="line"/>
      <point x="499" y="160" type="line"/>
      <point x="406" y="251" type="line"/>
    </contour>
    <contour>
      <point x="133" y="251" type="line"/>
      <point x="40" y="160" type="line"/>
      <point x="107" y="98" type="line"/>
      <point x="194" y="193" type="line"/>
    </contour>
  </outline>
</glyph>
<glyph name="brokenbar" format="1">
  <advance width="254"/>
  <unicode hex="00A6"/>
  <outline>
    <contour>
      <point x="75" y="388" type="line"/>
      <point x="75" y="660" type="line"/>
      <point x="179" y="660" type="line"/>
      <point x="179" y="388" type="line"/>
    </contour>
    <contour>
      <point x="75" y="0" type="line"/>
      <point x="75" y="272" type="line"/>
      <point x="179" y="272" type="line"/>
      <point x="179" y="0" type="line"/>
    </contour>
  </outline>
</glyph>
<glyph name="section" format="1">
  <advance width="496"/>
  <unicode hex="00A7"/>
  <outline>
    <contour>
      <point x="99" y="374"/>
      <point x="48" y="327"/>
      <point x="48" y="254" type="curve" smooth="yes"/>
      <point x="48" y="91"/>
      <point x="304" y="58"/>
      <point x="304" y="-69" type="curve" smooth="yes"/>
      <point x="304" y="-107"/>
      <point x="281" y="-128"/>
      <point x="241" y="-128" type="curve" smooth="yes"/>
      <point x="195" y="-128"/>
      <point x="170" y="-99"/>
      <point x="170" y="-52" type="curve" smooth="yes"/>
      <point x="170" y="-39"/>
      <point x="172" y="-26"/>
      <point x="175" y="-13" type="curve"/>
      <point x="163" y="-4"/>
      <point x="146" y="-2"/>
      <point x="133" y="-2" type="curve" smooth="yes"/>
      <point x="92" y="-2"/>
      <point x="60" y="-22"/>
      <point x="60" y="-71" type="curve" smooth="yes"/>
      <point x="60" y="-151"/>
      <point x="146" y="-179"/>
      <point x="222" y="-179" type="curve" smooth="yes"/>
      <point x="322" y="-179"/>
      <point x="407" y="-131"/>
      <point x="407" y="-41" type="curve" smooth="yes"/>
      <point x="407" y="129"/>
      <point x="151" y="135"/>
      <point x="151" y="285" type="curve" smooth="yes"/>
      <point x="151" y="330"/>
      <point x="179" y="356"/>
      <point x="217" y="383" type="curve"/>
      <point x="173" y="417" type="line"/>
    </contour>
    <contour>
      <point x="176" y="680"/>
      <point x="89" y="631"/>
      <point x="89" y="545" type="curve" smooth="yes"/>
      <point x="89" y="371"/>
      <point x="345" y="360"/>
      <point x="345" y="216" type="curve" smooth="yes"/>
      <point x="345" y="168"/>
      <point x="316" y="145"/>
      <point x="278" y="117" type="curve"/>
      <point x="323" y="84" type="line"/>
      <point x="391" y="124"/>
      <point x="448" y="172"/>
      <point x="448" y="247" type="curve" smooth="yes"/>
      <point x="448" y="407"/>
      <point x="192" y="447"/>
      <point x="192" y="569" type="curve" smooth="yes"/>
      <point x="192" y="608"/>
      <point x="219" y="629"/>
      <point x="258" y="629" type="curve" smooth="yes"/>
      <point x="307" y="629"/>
      <point x="326" y="597"/>
      <point x="326" y="554" type="curve" smooth="yes"/>
      <point x="326" y="540"/>
      <point x="324" y="527"/>
      <point x="321" y="514" type="curve"/>
      <point x="333" y="505"/>
      <point x="350" y="503"/>
      <point x="363" y="503" type="curve" smooth="yes"/>
      <point x="404" y="503"/>
      <point x="436" y="524"/>
      <point x="436" y="571" type="curve" smooth="yes"/>
      <point x="436" y="650"/>
      <point x="348" y="680"/>
      <point x="272" y="680" type="curve" smooth="yes"/>
    </contour>
  </outline>
</glyph>
<glyph name="dieresis" format="1">
  <advance width="368"/>
  <unicode hex="00A8"/>
  <outline>
    <component base="dotaccent" xOffset="199"/>
    <component base="dotaccent"/>
    <contour>
      <point x="184" y="530" type="move" name="_top"/>
    </contour>
  </outline>
</glyph>
<glyph name="copyright" format="1">
  <advance width="800"/>
  <unicode hex="00A9"/>
  <outline>
    <contour>
      <point x="195" y="615"/>
      <point x="44" y="468"/>
      <point x="44" y="263" type="curve" smooth="yes"/>
      <point x="44" y="55"/>
      <point x="192" y="-79"/>
      <point x="400" y="-79" type="curve" smooth="yes"/>
      <point x="608" y="-79"/>
      <point x="756" y="55"/>
      <point x="756" y="263" type="curve" smooth="yes"/>
      <point x="756" y="468"/>
      <point x="605" y="615"/>
      <point x="400" y="615" type="curve" smooth="yes"/>
    </contour>
    <contour>
      <point x="297" y="468"/>
      <point x="244" y="382"/>
      <point x="244" y="263" type="curve" smooth="yes"/>
      <point x="244" y="150"/>
      <point x="294" y="76"/>
      <point x="407" y="76" type="curve" smooth="yes"/>
      <point x="464" y="76"/>
      <point x="524" y="105"/>
      <point x="524" y="162" type="curve" smooth="yes"/>
      <point x="524" y="178"/>
      <point x="517" y="187"/>
      <point x="501" y="194" type="curve"/>
      <point x="490" y="156"/>
      <point x="457" y="136"/>
      <point x="418" y="136" type="curve" smooth="yes"/>
      <point x="352" y="136"/>
      <point x="342" y="205"/>
      <point x="342" y="271" type="curve" smooth="yes"/>
      <point x="342" y="326"/>
      <point x="350" y="420"/>
      <point x="405" y="420" type="curve" smooth="yes"/>
      <point x="433" y="420"/>
      <point x="440" y="400"/>
      <point x="440" y="371" type="curve" smooth="yes"/>
      <point x="440" y="360"/>
      <point x="438" y="349"/>
      <point x="434" y="339" type="curve"/>
      <point x="444" y="333"/>
      <point x="458" y="331"/>
      <point x="469" y="331" type="curve" smooth="yes"/>
      <point x="503" y="331"/>
      <point x="532" y="348"/>
      <point x="532" y="382" type="curve" smooth="yes"/>
      <point x="532" y="444"/>
      <point x="477" y="468"/>
      <point x="416" y="468" type="curve" smooth="yes"/>
    </contour>
    <contour>
      <point x="568" y="553"/>
      <point x="662" y="431"/>
      <point x="662" y="263" type="curve" smooth="yes"/>
      <point x="662" y="92"/>
      <point x="571" y="-17"/>
      <point x="400" y="-17" type="curve" smooth="yes"/>
      <point x="229" y="-17"/>
      <point x="138" y="92"/>
      <point x="138" y="263" type="curve" smooth="yes"/>
      <point x="138" y="431"/>
      <point x="232" y="553"/>
      <point x="400" y="553" type="curve" smooth="yes"/>
    </contour>
  </outline>
</glyph>
<glyph name="ordfeminine" format="1">
  <advance width="435"/>
  <unicode hex="00AA"/>
  <outline>
    <contour>
      <point x="137" y="674"/>
      <point x="65" y="646"/>
      <point x="65" y="591" type="curve" smooth="yes"/>
      <point x="65" y="557"/>
      <point x="92" y="539"/>
      <point x="127" y="539" type="curve" smooth="yes"/>
      <point x="139" y="539"/>
      <point x="155" y="541"/>
      <point x="163" y="547" type="curve"/>
      <point x="159" y="558"/>
      <point x="157" y="571"/>
      <point x="157" y="581" type="curve" smooth="yes"/>
      <point x="157" y="610"/>
      <point x="171" y="628"/>
      <point x="204" y="628" type="curve" smooth="yes"/>
      <point x="244" y="628"/>
      <point x="249" y="598"/>
      <point x="249" y="558" type="curve" smooth="yes"/>
      <point x="249" y="503" type="line"/>
      <point x="155" y="503"/>
      <point x="48" y="484"/>
      <point x="48" y="387" type="curve" smooth="yes"/>
      <point x="48" y="321"/>
      <point x="100" y="280"/>
      <point x="166" y="280" type="curve" smooth="yes"/>
      <point x="207" y="280"/>
      <point x="246" y="292"/>
      <point x="266" y="328" type="curve"/>
      <point x="269" y="300"/>
      <point x="288" y="283"/>
      <point x="316" y="283" type="curve" smooth="yes"/>
      <point x="337" y="283"/>
      <point x="354" y="291"/>
      <point x="363" y="309" type="curve"/>
      <point x="346" y="318"/>
      <point x="341" y="335"/>
      <point x="341" y="356" type="curve" smooth="yes"/>
      <point x="341" y="540" type="line" smooth="yes"/>
      <point x="341" y="636"/>
      <point x="308" y="674"/>
      <point x="212" y="674" type="curve" smooth="yes"/>
    </contour>
    <contour>
      <point x="98" y="232" type="line" smooth="yes"/>
      <point x="73" y="232"/>
      <point x="59" y="217"/>
      <point x="59" y="192" type="curve" smooth="yes"/>
      <point x="59" y="181"/>
      <point x="62" y="171"/>
      <point x="66" y="162" type="curve"/>
      <point x="334" y="162" type="line" smooth="yes"/>
      <point x="359" y="162"/>
      <point x="373" y="177"/>
      <point x="373" y="202" type="curve" smooth="yes"/>
      <point x="373" y="213"/>
      <point x="370" y="223"/>
      <point x="366" y="232" type="curve"/>
    </contour>
    <contour>
      <point x="249" y="408" type="line" smooth="yes"/>
      <point x="249" y="370"/>
      <point x="233" y="336"/>
      <point x="194" y="336" type="curve" smooth="yes"/>
      <point x="163" y="336"/>
      <point x="145" y="359"/>
      <point x="145" y="390" type="curve" smooth="yes"/>
      <point x="145" y="444"/>
      <point x="195" y="457"/>
      <point x="249" y="457" type="curve"/>
    </contour>
  </outline>
</glyph>
<glyph name="guillemotleft" format="1">
  <advance width="493"/>
  <unicode hex="00AB"/>
  <outline>
    <contour>
      <point x="38" y="317" type="line"/>
      <point x="157" y="126" type="line"/>
      <point x="252" y="126" type="line"/>
      <point x="171" y="317" type="line"/>
      <point x="252" y="509" type="line"/>
      <point x="158" y="509" type="line"/>
    </contour>
    <contour>
      <point x="236" y="317" type="line"/>
      <point x="355" y="126" type="line"/>
      <point x="450" y="126" type="line"/>
      <point x="369" y="317" type="line"/>
      <point x="455" y="509" type="line"/>
      <point x="358" y="509" type="line"/>
    </contour>
  </outline>
</glyph>
<glyph name="logicalnot" format="1">
  <advance width="540"/>
  <unicode hex="00AC"/>
  <outline>
    <contour>
      <point x="83" y="284" type="line" smooth="yes"/>
      <point x="52" y="284"/>
      <point x="35" y="265"/>
      <point x="35" y="234" type="curve" smooth="yes"/>
      <point x="35" y="221"/>
      <point x="39" y="210"/>
      <point x="44" y="199" type="curve"/>
      <point x="367" y="199" type="line"/>
      <point x="367" y="54" type="line" smooth="yes"/>
      <point x="367" y="19"/>
      <point x="389" y="0"/>
      <point x="424" y="0" type="curve" smooth="yes"/>
      <point x="439" y="0"/>
      <point x="451" y="5"/>
      <point x="464" y="11" type="curve"/>
      <point x="464" y="284" type="line"/>
    </contour>
  </outline>
</glyph>
<glyph name="uni00AD" format="1">
  <advance width="411"/>
  <unicode hex="00AD"/>
  <outline>
    <contour>
      <point x="305" y="200" type="line" smooth="yes"/>
      <point x="341" y="202"/>
      <point x="363" y="215"/>
      <point x="363" y="249" type="curve" smooth="yes"/>
      <point x="363" y="261"/>
      <point x="359" y="278"/>
      <point x="352" y="289" type="curve"/>
      <point x="105" y="281" type="line" smooth="yes"/>
      <point x="70" y="279"/>
      <point x="48" y="266"/>
      <point x="48" y="232" type="curve" smooth="yes"/>
      <point x="48" y="220"/>
      <point x="51" y="203"/>
      <point x="59" y="192" type="curve"/>
    </contour>
  </outline>
</glyph>
<glyph name="registered" format="1">
  <advance width="800"/>
  <unicode hex="00AE"/>
  <outline>
    <contour>
      <point x="195" y="680"/>
      <point x="44" y="533"/>
      <point x="44" y="328" type="curve" smooth="yes"/>
      <point x="44" y="120"/>
      <point x="192" y="-14"/>
      <point x="400" y="-14" type="curve" smooth="yes"/>
      <point x="608" y="-14"/>
      <point x="756" y="120"/>
      <point x="756" y="328" type="curve" smooth="yes"/>
      <point x="756" y="533"/>
      <point x="605" y="680"/>
      <point x="400" y="680" type="curve" smooth="yes"/>
    </contour>
    <contour>
      <point x="568" y="618"/>
      <point x="662" y="496"/>
      <point x="662" y="328" type="curve" smooth="yes"/>
      <point x="662" y="157"/>
      <point x="571" y="48"/>
      <point x="400" y="48" type="curve" smooth="yes"/>
      <point x="229" y="48"/>
      <point x="138" y="157"/>
      <point x="138" y="328" type="curve" smooth="yes"/>
      <point x="138" y="496"/>
      <point x="232" y="618"/>
      <point x="400" y="618" type="curve" smooth="yes"/>
    </contour>
    <contour>
      <point x="362" y="531"/>
      <point x="304" y="529"/>
      <point x="271" y="527" type="curve"/>
      <point x="271" y="152" type="line"/>
      <point x="361" y="152" type="line"/>
      <point x="361" y="484" type="line"/>
      <point x="371" y="485"/>
      <point x="378" y="486"/>
      <point x="389" y="486" type="curve" smooth="yes"/>
      <point x="433" y="486"/>
      <point x="453" y="463"/>
      <point x="453" y="419" type="curve" smooth="yes"/>
      <point x="453" y="364"/>
      <point x="429" y="341"/>
      <point x="379" y="341" type="curve"/>
      <point x="379" y="337"/>
      <point x="380" y="333"/>
      <point x="382" y="330" type="curve" smooth="yes"/>
      <point x="464" y="152" type="line"/>
      <point x="562" y="152" type="line"/>
      <point x="472" y="322" type="line"/>
      <point x="521" y="335"/>
      <point x="548" y="373"/>
      <point x="548" y="425" type="curve" smooth="yes"/>
      <point x="548" y="509"/>
      <point x="484" y="531"/>
      <point x="400" y="531" type="curve" smooth="yes"/>
    </contour>
  </outline>
</glyph>
<glyph name="macron" format="1">
  <advance width="295"/>
  <unicode hex="00AF"/>
  <outline>
    <contour>
      <point x="61" y="694" type="line" smooth="yes"/>
      <point x="29" y="694"/>
      <point x="10" y="677"/>
      <point x="10" y="648" type="curve" smooth="yes"/>
      <point x="10" y="634"/>
      <point x="13" y="621"/>
      <point x="17" y="612" type="curve"/>
      <point x="227" y="612" type="line" smooth="yes"/>
      <point x="267" y="612"/>
      <point x="285" y="629"/>
      <point x="285" y="656" type="curve" smooth="yes"/>
      <point x="285" y="672"/>
      <point x="281" y="684"/>
      <point x="277" y="694" type="curve"/>
    </contour>
    <contour>
      <point x="147" y="530" type="move" name="_top"/>
    </contour>
  </outline>
</glyph>
<glyph name="degree" format="1">
  <advance width="363"/>
  <unicode hex="00B0"/>
  <outline>
    <contour>
      <point x="277" y="370"/>
      <point x="349" y="434"/>
      <point x="349" y="529" type="curve" smooth="yes"/>
      <point x="349" y="627"/>
      <point x="279" y="684"/>
      <point x="181" y="684" type="curve" smooth="yes"/>
      <point x="84" y="684"/>
      <point x="14" y="627"/>
      <point x="14" y="529" type="curve" smooth="yes"/>
      <point x="14" y="434"/>
      <point x="86" y="370"/>
      <point x="181" y="370" type="curve" smooth="yes"/>
    </contour>
    <contour>
      <point x="127" y="426"/>
      <point x="107" y="475"/>
      <point x="107" y="529" type="curve" smooth="yes"/>
      <point x="107" y="582"/>
      <point x="129" y="628"/>
      <point x="181" y="628" type="curve" smooth="yes"/>
      <point x="234" y="628"/>
      <point x="256" y="582"/>
      <point x="256" y="529" type="curve" smooth="yes"/>
      <point x="256" y="474"/>
      <point x="236" y="426"/>
      <point x="181" y="426" type="curve" smooth="yes"/>
    </contour>
  </outline>
</glyph>
<glyph name="plusminus" format="1">
  <advance width="540"/>
  <unicode hex="00B1"/>
  <outline>
    <contour>
      <point x="245" y="466"/>
      <point x="223" y="449"/>
      <point x="223" y="414" type="curve" smooth="yes"/>
      <point x="223" y="128" type="line"/>
      <point x="234" y="121"/>
      <point x="246" y="118"/>
      <point x="261" y="118" type="curve" smooth="yes"/>
      <point x="294" y="118"/>
      <point x="316" y="135"/>
      <point x="316" y="170" type="curve"/>
      <point x="316" y="456" type="line"/>
      <point x="305" y="463"/>
      <point x="293" y="466"/>
      <point x="278" y="466" type="curve" smooth="yes"/>
    </contour>
    <contour>
      <point x="150" y="93" type="line" smooth="yes"/>
      <point x="119" y="93"/>
      <point x="105" y="77"/>
      <point x="105" y="46" type="curve" smooth="yes"/>
      <point x="105" y="33"/>
      <point x="108" y="25"/>
      <point x="112" y="14" type="curve"/>
      <point x="385" y="14" type="line" smooth="yes"/>
      <point x="416" y="14"/>
      <point x="430" y="30"/>
      <point x="430" y="61" type="curve" smooth="yes"/>
      <point x="430" y="74"/>
      <point x="427" y="82"/>
      <point x="423" y="93" type="curve"/>
    </contour>
    <contour>
      <point x="136" y="329" type="line" smooth="yes"/>
      <point x="105" y="329"/>
      <point x="88" y="310"/>
      <point x="88" y="279" type="curve" smooth="yes"/>
      <point x="88" y="266"/>
      <point x="92" y="255"/>
      <point x="97" y="244" type="curve"/>
      <point x="403" y="244" type="line" smooth="yes"/>
      <point x="434" y="244"/>
      <point x="451" y="263"/>
      <point x="451" y="294" type="curve" smooth="yes"/>
      <point x="451" y="307"/>
      <point x="447" y="318"/>
      <point x="442" y="329" type="curve"/>
    </contour>
  </outline>
</glyph>
<glyph name="uni00B2" format="1">
  <advance width="360"/>
  <unicode hex="00B2"/>
  <outline>
    <contour>
      <point x="115" y="673"/>
      <point x="55" y="647"/>
      <point x="55" y="586" type="curve" smooth="yes"/>
      <point x="55" y="568"/>
      <point x="61" y="551"/>
      <point x="78" y="546" type="curve"/>
      <point x="90" y="586"/>
      <point x="119" y="610"/>
      <point x="160" y="610" type="curve" smooth="yes"/>
      <point x="194" y="610"/>
      <point x="210" y="591"/>
      <point x="210" y="557" type="curve" smooth="yes"/>
      <point x="210" y="513"/>
      <point x="181" y="477"/>
      <point x="151" y="444" type="curve" smooth="yes"/>
      <point x="117" y="408"/>
      <point x="84" y="373"/>
      <point x="50" y="337" type="curve"/>
      <point x="54" y="285" type="line"/>
      <point x="306" y="285" type="line"/>
      <point x="310" y="350" type="line"/>
      <point x="146" y="350" type="line"/>
      <point x="154" y="356"/>
      <point x="161" y="363"/>
      <point x="169" y="369" type="curve" smooth="yes"/>
      <point x="271" y="468"/>
      <point x="302" y="499"/>
      <point x="302" y="561" type="curve" smooth="yes"/>
      <point x="302" y="639"/>
      <point x="254" y="673"/>
      <point x="176" y="673" type="curve" smooth="yes"/>
    </contour>
  </outline>
</glyph>
<glyph name="uni00B3" format="1">
  <advance width="363"/>
  <unicode hex="00B3"/>
  <outline>
    <contour>
      <point x="118" y="672"/>
      <point x="61" y="650"/>
      <point x="61" y="597" type="curve" smooth="yes"/>
      <point x="61" y="578"/>
      <point x="66" y="560"/>
      <point x="83" y="554" type="curve"/>
      <point x="95" y="589"/>
      <point x="120" y="610"/>
      <point x="156" y="610" type="curve" smooth="yes"/>
      <point x="186" y="610"/>
      <point x="206" y="595"/>
      <point x="206" y="567" type="curve" smooth="yes"/>
      <point x="206" y="519"/>
      <point x="169" y="499"/>
      <point x="121" y="499" type="curve"/>
      <point x="121" y="452" type="line"/>
      <point x="132" y="454"/>
      <point x="139" y="454"/>
      <point x="151" y="454" type="curve" smooth="yes"/>
      <point x="193" y="454"/>
      <point x="222" y="437"/>
      <point x="222" y="395" type="curve" smooth="yes"/>
      <point x="222" y="357"/>
      <point x="194" y="336"/>
      <point x="156" y="336" type="curve" smooth="yes"/>
      <point x="116" y="336"/>
      <point x="84" y="350"/>
      <point x="66" y="387" type="curve"/>
      <point x="53" y="381"/>
      <point x="50" y="363"/>
      <point x="50" y="349" type="curve" smooth="yes"/>
      <point x="50" y="295"/>
      <point x="102" y="274"/>
      <point x="156" y="274" type="curve" smooth="yes"/>
      <point x="240" y="274"/>
      <point x="313" y="311"/>
      <point x="313" y="395" type="curve" smooth="yes"/>
      <point x="313" y="446"/>
      <point x="279" y="476"/>
      <point x="229" y="486" type="curve"/>
      <point x="269" y="503"/>
      <point x="293" y="538"/>
      <point x="293" y="581" type="curve" smooth="yes"/>
      <point x="293" y="649"/>
      <point x="239" y="672"/>
      <point x="171" y="672" type="curve" smooth="yes"/>
    </contour>
  </outline>
</glyph>
<glyph name="acute" format="1">
  <advance width="238"/>
  <unicode hex="00B4"/>
  <outline>
    <contour>
      <point x="35" y="572" type="line"/>
      <point x="144" y="621" type="line" smooth="yes"/>
      <point x="180" y="637"/>
      <point x="228" y="662"/>
      <point x="228" y="702" type="curve" smooth="yes"/>
      <point x="228" y="729"/>
      <point x="208" y="752"/>
      <point x="181" y="759" type="curve"/>
      <point x="10" y="607" type="line"/>
    </contour>
    <contour>
      <point x="92" y="530" type="move" name="_top"/>
    </contour>
  </outline>
</glyph>
<glyph name="paragraph" format="1">
  <advance width="674"/>
  <unicode hex="00B6"/>
  <outline>
    <contour>
      <point x="137" y="-103"/>
      <point x="131" y="-115"/>
      <point x="131" y="-128" type="curve" smooth="yes"/>
      <point x="131" y="-171"/>
      <point x="183" y="-200"/>
      <point x="248" y="-200" type="curve" smooth="yes"/>
      <point x="382" y="-200"/>
      <point x="423" y="-99"/>
      <point x="423" y="35" type="curve" smooth="yes"/>
      <point x="423" y="660" type="line"/>
      <point x="384" y="668"/>
      <point x="351" y="670"/>
      <point x="312" y="670" type="curve" smooth="yes"/>
      <point x="154" y="670"/>
      <point x="48" y="621"/>
      <point x="48" y="463" type="curve" smooth="yes"/>
      <point x="48" y="336"/>
      <point x="116" y="254"/>
      <point x="243" y="254" type="curve" smooth="yes"/>
      <point x="267" y="254"/>
      <point x="295" y="258"/>
      <point x="319" y="265" type="curve"/>
      <point x="319" y="7" type="line" smooth="yes"/>
      <point x="319" y="-68"/>
      <point x="303" y="-126"/>
      <point x="228" y="-126" type="curve" smooth="yes"/>
      <point x="197" y="-126"/>
      <point x="170" y="-119"/>
      <point x="146" y="-98" type="curve"/>
    </contour>
    <contour>
      <point x="501" y="660" type="line"/>
      <point x="501" y="-15" type="line"/>
      <point x="599" y="0" type="line"/>
      <point x="599" y="588" type="line"/>
      <point x="609" y="585"/>
      <point x="628" y="583"/>
      <point x="641" y="583" type="curve" smooth="yes"/>
      <point x="694" y="583"/>
      <point x="713" y="607"/>
      <point x="713" y="660" type="curve"/>
    </contour>
  </outline>
</glyph>
<glyph name="cedilla" format="1">
  <advance width="246"/>
  <unicode hex="00B8"/>
  <outline>
    <contour>
      <point x="79" y="11" type="line"/>
      <point x="32" y="-114" type="line"/>
      <point x="45" y="-112"/>
      <point x="61" y="-111"/>
      <point x="74" y="-111" type="curve" smooth="yes"/>
      <point x="118" y="-111"/>
      <point x="155" y="-120"/>
      <point x="155" y="-157" type="curve" smooth="yes"/>
      <point x="155" y="-189"/>
      <point x="124" y="-200"/>
      <point x="90" y="-200" type="curve" smooth="yes"/>
      <point x="64" y="-200"/>
      <point x="38" y="-192"/>
      <point x="20" y="-172" type="curve"/>
      <point x="13" y="-178"/>
      <point x="10" y="-188"/>
      <point x="10" y="-197" type="curve" smooth="yes"/>
      <point x="10" y="-239"/>
      <point x="63" y="-253"/>
      <point x="105" y="-253" type="curve" smooth="yes"/>
      <point x="173" y="-253"/>
      <point x="236" y="-215"/>
      <point x="236" y="-154" type="curve" smooth="yes"/>
      <point x="236" y="-92"/>
      <point x="190" y="-64"/>
      <point x="125" y="-64" type="curve" smooth="yes"/>
      <point x="109" y="-64"/>
      <point x="95" y="-64"/>
      <point x="76" y="-68" type="curve"/>
      <point x="90" y="-82" type="line"/>
      <point x="126" y="11" type="line"/>
    </contour>
    <contour>
      <point x="121" y="0" type="move" name="_bottom"/>
    </contour>
  </outline>
</glyph>
<glyph name="uni00B9" format="1">
  <advance width="335"/>
  <unicode hex="00B9"/>
  <outline>
    <contour>
      <point x="219" y="671" type="line"/>
      <point x="190" y="680" type="line"/>
      <point x="151" y="655"/>
      <point x="83" y="626"/>
      <point x="37" y="613" type="curve"/>
      <point x="37" y="583"/>
      <point x="48" y="565"/>
      <point x="78" y="565" type="curve" smooth="yes"/>
      <point x="94" y="565"/>
      <point x="117" y="574"/>
      <point x="131" y="587" type="curve"/>
      <point x="131" y="339" type="line"/>
      <point x="53" y="339" type="line"/>
      <point x="53" y="285" type="line"/>
      <point x="292" y="285" type="line"/>
      <point x="292" y="339" type="line"/>
      <point x="219" y="339" type="line"/>
    </contour>
  </outline>
</glyph>
<glyph name="ordmasculine" format="1">
  <advance width="435"/>
  <unicode hex="00BA"/>
  <outline>
    <contour>
      <point x="334" y="162" type="line" smooth="yes"/>
      <point x="359" y="162"/>
      <point x="373" y="177"/>
      <point x="373" y="202" type="curve" smooth="yes"/>
      <point x="373" y="213"/>
      <point x="370" y="223"/>
      <point x="366" y="232" type="curve"/>
      <point x="98" y="232" type="line" smooth="yes"/>
      <point x="73" y="232"/>
      <point x="59" y="217"/>
      <point x="59" y="192" type="curve" smooth="yes"/>
      <point x="59" y="181"/>
      <point x="62" y="171"/>
      <point x="66" y="162" type="curve"/>
    </contour>
    <contour>
      <point x="97" y="674"/>
      <point x="51" y="595"/>
      <point x="51" y="477" type="curve" smooth="yes"/>
      <point x="51" y="358"/>
      <point x="96" y="280"/>
      <point x="215" y="280" type="curve" smooth="yes"/>
      <point x="336" y="280"/>
      <point x="377" y="362"/>
      <point x="377" y="483" type="curve" smooth="yes"/>
      <point x="377" y="599"/>
      <point x="331" y="674"/>
      <point x="215" y="674" type="curve" smooth="yes"/>
    </contour>
    <contour>
      <point x="149" y="330"/>
      <point x="148" y="413"/>
      <point x="148" y="479" type="curve" smooth="yes"/>
      <point x="148" y="541"/>
      <point x="153" y="626"/>
      <point x="215" y="626" type="curve" smooth="yes"/>
      <point x="276" y="626"/>
      <point x="280" y="540"/>
      <point x="280" y="479" type="curve" smooth="yes"/>
      <point x="280" y="415"/>
      <point x="279" y="330"/>
      <point x="215" y="330" type="curve" smooth="yes"/>
    </contour>
  </outline>
</glyph>
<glyph name="guillemotright" format="1">
  <advance width="493"/>
  <unicode hex="00BB"/>
  <outline>
    <contour>
      <point x="38" y="509" type="line"/>
      <point x="124" y="317" type="line"/>
      <point x="43" y="126" type="line"/>
      <point x="138" y="126" type="line"/>
      <point x="257" y="317" type="line"/>
      <point x="135" y="509" type="line"/>
    </contour>
    <contour>
      <point x="241" y="509" type="line"/>
      <point x="322" y="317" type="line"/>
      <point x="241" y="126" type="line"/>
      <point x="336" y="126" type="line"/>
      <point x="455" y="317" type="line"/>
      <point x="335" y="509" type="line"/>
    </contour>
  </outline>
</glyph>
<glyph name="onequarter" format="1">
  <advance width="795"/>
  <unicode hex="00BC"/>
  <outline>
    <contour>
      <point x="448" y="720"/>
      <point x="441" y="719"/>
      <point x="435" y="718" type="curve"/>
      <point x="257" y="-17" type="line" smooth="yes"/>
      <point x="254" y="-29"/>
      <point x="251" y="-41"/>
      <point x="251" y="-53" type="curve" smooth="yes"/>
      <point x="251" y="-82"/>
      <point x="272" y="-91"/>
      <point x="301" y="-91" type="curve" smooth="yes"/>
      <point x="313" y="-91"/>
      <point x="320" y="-90"/>
      <point x="326" y="-89" type="curve"/>
      <point x="504" y="646" type="line" smooth="yes"/>
      <point x="507" y="658"/>
      <point x="510" y="670"/>
      <point x="510" y="682" type="curve" smooth="yes"/>
      <point x="510" y="711"/>
      <point x="489" y="720"/>
      <point x="460" y="720" type="curve" smooth="yes"/>
    </contour>
    <contour>
      <point x="132" y="655"/>
      <point x="64" y="626"/>
      <point x="18" y="613" type="curve"/>
      <point x="18" y="583"/>
      <point x="29" y="565"/>
      <point x="59" y="565" type="curve" smooth="yes"/>
      <point x="75" y="565"/>
      <point x="98" y="574"/>
      <point x="112" y="587" type="curve"/>
      <point x="112" y="339" type="line"/>
      <point x="34" y="339" type="line"/>
      <point x="34" y="285" type="line"/>
      <point x="273" y="285" type="line"/>
      <point x="273" y="339" type="line"/>
      <point x="200" y="339" type="line"/>
      <point x="200" y="671" type="line"/>
      <point x="171" y="680" type="line"/>
    </contour>
    <contour>
      <point x="635" y="138" type="line"/>
      <point x="540" y="138" type="line"/>
      <point x="635" y="305" type="line"/>
    </contour>
    <contour>
      <point x="625" y="388" type="line"/>
      <point x="478" y="141" type="line" smooth="yes"/>
      <point x="473" y="132"/>
      <point x="467" y="120"/>
      <point x="467" y="110" type="curve" smooth="yes"/>
      <point x="467" y="95"/>
      <point x="474" y="84"/>
      <point x="489" y="84" type="curve" smooth="yes"/>
      <point x="635" y="84" type="line"/>
      <point x="635" y="0" type="line"/>
      <point x="723" y="0" type="line"/>
      <point x="723" y="84" type="line"/>
      <point x="771" y="84" type="line"/>
      <point x="775" y="138" type="line"/>
      <point x="723" y="138" type="line"/>
      <point x="723" y="388" type="line"/>
    </contour>
  </outline>
</glyph>
<glyph name="onehalf" format="1">
  <advance width="795"/>
  <unicode hex="00BD"/>
  <outline>
    <contour>
      <point x="467" y="720"/>
      <point x="460" y="719"/>
      <point x="454" y="718" type="curve"/>
      <point x="276" y="-17" type="line" smooth="yes"/>
      <point x="273" y="-29"/>
      <point x="270" y="-41"/>
      <point x="270" y="-53" type="curve" smooth="yes"/>
      <point x="270" y="-82"/>
      <point x="291" y="-91"/>
      <point x="320" y="-91" type="curve" smooth="yes"/>
      <point x="332" y="-91"/>
      <point x="339" y="-90"/>
      <point x="345" y="-89" type="curve"/>
      <point x="523" y="646" type="line" smooth="yes"/>
      <point x="526" y="658"/>
      <point x="529" y="670"/>
      <point x="529" y="682" type="curve" smooth="yes"/>
      <point x="529" y="711"/>
      <point x="508" y="720"/>
      <point x="479" y="720" type="curve" smooth="yes"/>
    </contour>
    <contour>
      <point x="151" y="655"/>
      <point x="83" y="626"/>
      <point x="37" y="613" type="curve"/>
      <point x="37" y="583"/>
      <point x="48" y="565"/>
      <point x="78" y="565" type="curve" smooth="yes"/>
      <point x="94" y="565"/>
      <point x="117" y="574"/>
      <point x="131" y="587" type="curve"/>
      <point x="131" y="339" type="line"/>
      <point x="53" y="339" type="line"/>
      <point x="53" y="285" type="line"/>
      <point x="292" y="285" type="line"/>
      <point x="292" y="339" type="line"/>
      <point x="219" y="339" type="line"/>
      <point x="219" y="671" type="line"/>
      <point x="190" y="680" type="line"/>
    </contour>
    <contour>
      <point x="569" y="388"/>
      <point x="509" y="362"/>
      <point x="509" y="301" type="curve" smooth="yes"/>
      <point x="509" y="283"/>
      <point x="515" y="266"/>
      <point x="532" y="261" type="curve"/>
      <point x="544" y="301"/>
      <point x="573" y="325"/>
      <point x="614" y="325" type="curve" smooth="yes"/>
      <point x="648" y="325"/>
      <point x="664" y="306"/>
      <point x="664" y="272" type="curve" smooth="yes"/>
      <point x="664" y="228"/>
      <point x="635" y="192"/>
      <point x="605" y="159" type="curve" smooth="yes"/>
      <point x="571" y="123"/>
      <point x="538" y="88"/>
      <point x="504" y="52" type="curve"/>
      <point x="508" y="0" type="line"/>
      <point x="760" y="0" type="line"/>
      <point x="764" y="65" type="line"/>
      <point x="600" y="65" type="line"/>
      <point x="608" y="71"/>
      <point x="615" y="78"/>
      <point x="623" y="84" type="curve" smooth="yes"/>
      <point x="725" y="183"/>
      <point x="756" y="214"/>
      <point x="756" y="276" type="curve" smooth="yes"/>
      <point x="756" y="354"/>
      <point x="708" y="388"/>
      <point x="630" y="388" type="curve" smooth="yes"/>
    </contour>
  </outline>
</glyph>
<glyph name="threequarters" format="1">
  <advance width="795"/>
  <unicode hex="00BE"/>
  <outline>
    <contour>
      <point x="448" y="720"/>
      <point x="441" y="719"/>
      <point x="435" y="718" type="curve"/>
      <point x="257" y="-17" type="line" smooth="yes"/>
      <point x="254" y="-29"/>
      <point x="251" y="-41"/>
      <point x="251" y="-53" type="curve" smooth="yes"/>
      <point x="251" y="-82"/>
      <point x="272" y="-91"/>
      <point x="301" y="-91" type="curve" smooth="yes"/>
      <point x="313" y="-91"/>
      <point x="320" y="-90"/>
      <point x="326" y="-89" type="curve"/>
      <point x="504" y="646" type="line" smooth="yes"/>
      <point x="507" y="658"/>
      <point x="510" y="670"/>
      <point x="510" y="682" type="curve" smooth="yes"/>
      <point x="510" y="711"/>
      <point x="489" y="720"/>
      <point x="460" y="720" type="curve" smooth="yes"/>
    </contour>
    <contour>
      <point x="99" y="672"/>
      <point x="42" y="650"/>
      <point x="42" y="597" type="curve" smooth="yes"/>
      <point x="42" y="578"/>
      <point x="47" y="560"/>
      <point x="64" y="554" type="curve"/>
      <point x="76" y="589"/>
      <point x="101" y="610"/>
      <point x="137" y="610" type="curve" smooth="yes"/>
      <point x="167" y="610"/>
      <point x="187" y="595"/>
      <point x="187" y="567" type="curve" smooth="yes"/>
      <point x="187" y="519"/>
      <point x="150" y="499"/>
      <point x="102" y="499" type="curve"/>
      <point x="102" y="452" type="line"/>
      <point x="113" y="454"/>
      <point x="120" y="454"/>
      <point x="132" y="454" type="curve" smooth="yes"/>
      <point x="174" y="454"/>
      <point x="203" y="437"/>
      <point x="203" y="395" type="curve" smooth="yes"/>
      <point x="203" y="357"/>
      <point x="175" y="336"/>
      <point x="137" y="336" type="curve" smooth="yes"/>
      <point x="97" y="336"/>
      <point x="65" y="350"/>
      <point x="47" y="387" type="curve"/>
      <point x="34" y="381"/>
      <point x="31" y="363"/>
      <point x="31" y="349" type="curve" smooth="yes"/>
      <point x="31" y="295"/>
      <point x="83" y="274"/>
      <point x="137" y="274" type="curve" smooth="yes"/>
      <point x="221" y="274"/>
      <point x="294" y="311"/>
      <point x="294" y="395" type="curve" smooth="yes"/>
      <point x="294" y="446"/>
      <point x="260" y="476"/>
      <point x="210" y="486" type="curve"/>
      <point x="250" y="503"/>
      <point x="274" y="538"/>
      <point x="274" y="581" type="curve" smooth="yes"/>
      <point x="274" y="649"/>
      <point x="220" y="672"/>
      <point x="152" y="672" type="curve" smooth="yes"/>
    </contour>
    <contour>
      <point x="635" y="138" type="line"/>
      <point x="540" y="138" type="line"/>
      <point x="635" y="305" type="line"/>
    </contour>
    <contour>
      <point x="625" y="388" type="line"/>
      <point x="478" y="141" type="line" smooth="yes"/>
      <point x="473" y="132"/>
      <point x="467" y="120"/>
      <point x="467" y="110" type="curve" smooth="yes"/>
      <point x="467" y="95"/>
      <point x="474" y="84"/>
      <point x="489" y="84" type="curve" smooth="yes"/>
      <point x="635" y="84" type="line"/>
      <point x="635" y="0" type="line"/>
      <point x="723" y="0" type="line"/>
      <point x="723" y="84" type="line"/>
      <point x="771" y="84" type="line"/>
      <point x="775" y="138" type="line"/>
      <point x="723" y="138" type="line"/>
      <point x="723" y="388" type="line"/>
    </contour>
  </outline>
</glyph>
<glyph name="questiondown" format="1">
  <advance width="413"/>
  <unicode hex="00BF"/>
  <outline>
    <contour>
      <point x="225" y="308"/>
      <point x="205" y="305"/>
      <point x="199" y="299" type="curve"/>
      <point x="199" y="186"/>
      <point x="2" y="127"/>
      <point x="2" y="-29" type="curve" smooth="yes"/>
      <point x="2" y="-134"/>
      <point x="92" y="-169"/>
      <point x="197" y="-169" type="curve" smooth="yes"/>
      <point x="278" y="-169"/>
      <point x="395" y="-149"/>
      <point x="395" y="-55" type="curve"/>
      <point x="395" y="-5"/>
      <point x="362" y="20"/>
      <point x="312" y="20" type="curve" smooth="yes"/>
      <point x="299" y="20"/>
      <point x="280" y="17"/>
      <point x="269" y="8" type="curve"/>
      <point x="274" y="-8"/>
      <point x="278" y="-24"/>
      <point x="278" y="-40" type="curve" smooth="yes"/>
      <point x="278" y="-89"/>
      <point x="243" y="-109"/>
      <point x="200" y="-109" type="curve" smooth="yes"/>
      <point x="145" y="-109"/>
      <point x="121" y="-75"/>
      <point x="121" y="-29" type="curve" smooth="yes"/>
      <point x="121" y="94"/>
      <point x="282" y="178"/>
      <point x="282" y="260" type="curve" smooth="yes"/>
      <point x="282" y="292"/>
      <point x="268" y="308"/>
      <point x="236" y="308" type="curve" smooth="yes"/>
    </contour>
    <component base="period" xOffset="115" yOffset="424"/>
  </outline>
</glyph>
<glyph name="AE" format="1">
  <advance width="674"/>
  <unicode hex="00C6"/>
  <outline>
    <contour>
      <point x="255" y="660" type="line"/>
      <point x="-46" y="0" type="line"/>
      <point x="64" y="0" type="line"/>
      <point x="134" y="168" type="line"/>
      <point x="310" y="168" type="line"/>
      <point x="310" y="0" type="line"/>
      <point x="637" y="0" type="line"/>
      <point x="644" y="74" type="line"/>
      <point x="426" y="74" type="line"/>
      <point x="426" y="302" type="line"/>
      <point x="600" y="302" type="line"/>
      <point x="600" y="376" type="line"/>
      <point x="426" y="376" type="line"/>
      <point x="426" y="586" type="line"/>
      <point x="630" y="586" type="line"/>
      <point x="630" y="660" type="line"/>
    </contour>
    <contour>
      <point x="310" y="242" type="line"/>
      <point x="165" y="242" type="line"/>
      <point x="310" y="586" type="line"/>
    </contour>
    <contour>
      <point x="333" y="660" type="move" name="top"/>
    </contour>
  </outline>
</glyph>
<glyph name="multiply" format="1">
  <advance width="540"/>
  <unicode hex="00D7"/>
  <outline>
    <contour>
      <point x="390" y="446"/>
      <point x="374" y="433"/>
      <point x="359" y="416" type="curve" smooth="yes"/>
      <point x="53" y="72" type="line"/>
      <point x="53" y="39"/>
      <point x="75" y="19"/>
      <point x="108" y="19" type="curve" smooth="yes"/>
      <point x="129" y="19"/>
      <point x="145" y="32"/>
      <point x="160" y="49" type="curve" smooth="yes"/>
      <point x="301" y="214" type="line"/>
      <point x="466" y="393" type="line"/>
      <point x="466" y="426"/>
      <point x="444" y="446"/>
      <point x="411" y="446" type="curve" smooth="yes"/>
    </contour>
    <contour>
      <point x="109" y="448"/>
      <point x="82" y="433"/>
      <point x="82" y="400" type="curve" smooth="yes"/>
      <point x="82" y="379"/>
      <point x="96" y="360"/>
      <point x="112" y="344" type="curve" smooth="yes"/>
      <point x="246" y="212" type="line"/>
      <point x="426" y="22" type="line"/>
      <point x="459" y="22"/>
      <point x="486" y="37"/>
      <point x="486" y="70" type="curve" smooth="yes"/>
      <point x="486" y="91"/>
      <point x="472" y="110"/>
      <point x="456" y="126" type="curve" smooth="yes"/>
      <point x="302" y="278" type="line"/>
      <point x="142" y="448" type="line"/>
    </contour>
  </outline>
</glyph>
<glyph name="Oslash" format="1">
  <advance width="580"/>
  <unicode hex="00D8"/>
  <outline>
    <contour>
      <point x="29" y="24" type="line" smooth="yes"/>
      <point x="22" y="14"/>
      <point x="14" y="0"/>
      <point x="14" y="-11" type="curve" smooth="yes"/>
      <point x="14" y="-37"/>
      <point x="57" y="-51"/>
      <point x="68" y="-53" type="curve"/>
      <point x="560" y="636" type="line" smooth="yes"/>
      <point x="567" y="646"/>
      <point x="575" y="660"/>
      <point x="575" y="671" type="curve" smooth="yes"/>
      <point x="575" y="697"/>
      <point x="532" y="711"/>
      <point x="521" y="713" type="curve"/>
    </contour>
    <component base="O"/>
    <contour>
      <point x="303" y="660" type="move" name="top"/>
    </contour>
  </outline>
</glyph>
<glyph name="Thorn" format="1">
  <advance width="494"/>
  <unicode hex="00DE"/>
  <outline>
    <contour>
      <point x="60" y="660" type="line"/>
      <point x="60" y="0" type="line"/>
      <point x="176" y="0" type="line"/>
      <point x="176" y="463" type="line"/>
      <point x="196" y="466"/>
      <point x="220" y="468"/>
      <point x="240" y="468" type="curve" smooth="yes"/>
      <point x="324" y="468"/>
      <point x="365" y="428"/>
      <point x="365" y="344" type="curve" smooth="yes"/>
      <point x="365" y="244"/>
      <point x="316" y="200"/>
      <point x="216" y="200" type="curve"/>
      <point x="216" y="164"/>
      <point x="260" y="154"/>
      <point x="296" y="154" type="curve" smooth="yes"/>
      <point x="411" y="154"/>
      <point x="484" y="233"/>
      <point x="484" y="348" type="curve" smooth="yes"/>
      <point x="484" y="490"/>
      <point x="389" y="538"/>
      <point x="247" y="538" type="curve" smooth="yes"/>
      <point x="224" y="538"/>
      <point x="200" y="537"/>
      <point x="176" y="536" type="curve"/>
      <point x="176" y="660" type="line"/>
    </contour>
  </outline>
</glyph>
<glyph name="germandbls" format="1">
  <advance width="598"/>
  <unicode hex="00DF"/>
  <outline>
    <contour>
      <point x="70" y="68" type="line" smooth="yes"/>
      <point x="70" y="-14"/>
      <point x="53" y="-95"/>
      <point x="-29" y="-95" type="curve"/>
      <point x="-29" y="-127"/>
      <point x="8" y="-139"/>
      <point x="40" y="-139" type="curve" smooth="yes"/>
      <point x="155" y="-139"/>
      <point x="179" y="-19"/>
      <point x="179" y="96" type="curve" smooth="yes"/>
      <point x="179" y="549" type="line" smooth="yes"/>
      <point x="179" y="627"/>
      <point x="197" y="676"/>
      <point x="275" y="676" type="curve" smooth="yes"/>
      <point x="334" y="676"/>
      <point x="372" y="641"/>
      <point x="372" y="582" type="curve" smooth="yes"/>
      <point x="372" y="515"/>
      <point x="241" y="473"/>
      <point x="241" y="390" type="curve" smooth="yes"/>
      <point x="241" y="222"/>
      <point x="484" y="234"/>
      <point x="484" y="108" type="curve" smooth="yes"/>
      <point x="484" y="58"/>
      <point x="458" y="31"/>
      <point x="408" y="31" type="curve" smooth="yes"/>
      <point x="364" y="31"/>
      <point x="334" y="56"/>
      <point x="334" y="100" type="curve" smooth="yes"/>
      <point x="334" y="115"/>
      <point x="337" y="130"/>
      <point x="342" y="145" type="curve"/>
      <point x="332" y="153"/>
      <point x="314" y="156"/>
      <point x="302" y="156" type="curve" smooth="yes"/>
      <point x="255" y="156"/>
      <point x="224" y="133"/>
      <point x="224" y="86" type="curve" smooth="yes"/>
      <point x="224" y="2"/>
      <point x="312" y="-22"/>
      <point x="396" y="-22" type="curve" smooth="yes"/>
      <point x="502" y="-22"/>
      <point x="588" y="30"/>
      <point x="588" y="136" type="curve" smooth="yes"/>
      <point x="588" y="304"/>
      <point x="345" y="291"/>
      <point x="345" y="417" type="curve" smooth="yes"/>
      <point x="345" y="484"/>
      <point x="476" y="526"/>
      <point x="476" y="609" type="curve" smooth="yes"/>
      <point x="476" y="697"/>
      <point x="369" y="720"/>
      <point x="281" y="720" type="curve" smooth="yes"/>
      <point x="153" y="720"/>
      <point x="70" y="677"/>
      <point x="70" y="549" type="curve" smooth="yes"/>
    </contour>
  </outline>
</glyph>
<glyph name="ae" format="1">
  <advance width="745"/>
  <unicode hex="00E6"/>
  <outline>
    <contour>
      <point x="611" y="-22"/>
      <point x="698" y="22"/>
      <point x="698" y="98" type="curve" smooth="yes"/>
      <point x="698" y="116"/>
      <point x="692" y="133"/>
      <point x="675" y="141" type="curve"/>
      <point x="650" y="87"/>
      <point x="604" y="54"/>
      <point x="545" y="54" type="curve" smooth="yes"/>
      <point x="457" y="54"/>
      <point x="438" y="140"/>
      <point x="435" y="232" type="curve"/>
      <point x="448" y="231"/>
      <point x="474" y="230"/>
      <point x="490" y="230" type="curve" smooth="yes"/>
      <point x="614" y="230"/>
      <point x="715" y="259"/>
      <point x="715" y="383" type="curve" smooth="yes"/>
      <point x="715" y="479"/>
      <point x="647" y="530"/>
      <point x="551" y="530" type="curve" smooth="yes"/>
      <point x="488" y="530"/>
      <point x="439" y="511"/>
      <point x="403" y="478" type="curve"/>
      <point x="376" y="514"/>
      <point x="332" y="530"/>
      <point x="261" y="530" type="curve" smooth="yes"/>
      <point x="138" y="530"/>
      <point x="63" y="484"/>
      <point x="63" y="421" type="curve" smooth="yes"/>
      <point x="63" y="374"/>
      <point x="94" y="351"/>
      <point x="141" y="351" type="curve" smooth="yes"/>
      <point x="153" y="351"/>
      <point x="171" y="354"/>
      <point x="181" y="362" type="curve"/>
      <point x="176" y="377"/>
      <point x="173" y="392"/>
      <point x="173" y="407" type="curve" smooth="yes"/>
      <point x="173" y="452"/>
      <point x="209" y="477"/>
      <point x="254" y="477" type="curve" smooth="yes"/>
      <point x="314" y="477"/>
      <point x="326" y="438"/>
      <point x="326" y="378" type="curve" smooth="yes"/>
      <point x="326" y="287" type="line"/>
      <point x="190" y="287"/>
      <point x="37" y="265"/>
      <point x="37" y="129" type="curve" smooth="yes"/>
      <point x="37" y="28"/>
      <point x="118" y="-22"/>
      <point x="219" y="-22" type="curve" smooth="yes"/>
      <point x="284" y="-22"/>
      <point x="339" y="5"/>
      <point x="362" y="66" type="curve"/>
      <point x="396" y="11"/>
      <point x="453" y="-22"/>
      <point x="535" y="-22" type="curve" smooth="yes"/>
    </contour>
    <contour>
      <point x="186" y="45"/>
      <point x="156" y="81"/>
      <point x="156" y="133" type="curve" smooth="yes"/>
      <point x="156" y="220"/>
      <point x="239" y="237"/>
      <point x="326" y="237" type="curve"/>
      <point x="326" y="162" type="line" smooth="yes"/>
      <point x="326" y="100"/>
      <point x="300" y="45"/>
      <point x="238" y="45" type="curve" smooth="yes"/>
    </contour>
    <contour>
      <point x="585" y="473"/>
      <point x="606" y="427"/>
      <point x="606" y="377" type="curve" smooth="yes"/>
      <point x="606" y="302"/>
      <point x="555" y="280"/>
      <point x="480" y="280" type="curve" smooth="yes"/>
      <point x="466" y="280"/>
      <point x="439" y="281"/>
      <point x="418" y="285" type="curve"/>
      <point x="435" y="249" type="line"/>
      <point x="433" y="331"/>
      <point x="443" y="473"/>
      <point x="535" y="473" type="curve" smooth="yes"/>
    </contour>
    <contour>
      <point x="368" y="530" type="move" name="top"/>
    </contour>
  </outline>
</glyph>
<glyph name="eth" format="1">
  <advance width="531"/>
  <unicode hex="00F0"/>
  <outline>
    <contour>
      <point x="184" y="720"/>
      <point x="149" y="701"/>
      <point x="149" y="665" type="curve" smooth="yes"/>
      <point x="149" y="654"/>
      <point x="152" y="641"/>
      <point x="159" y="633" type="curve"/>
      <point x="172" y="642"/>
      <point x="195" y="648"/>
      <point x="213" y="648" type="curve" smooth="yes"/>
      <point x="250" y="648"/>
      <point x="277" y="634"/>
      <point x="296" y="613" type="curve"/>
      <point x="244" y="594" type="line" smooth="yes"/>
      <point x="225" y="587"/>
      <point x="215" y="576"/>
      <point x="215" y="563" type="curve" smooth="yes"/>
      <point x="215" y="550"/>
      <point x="225" y="534"/>
      <point x="233" y="527" type="curve"/>
      <point x="326" y="561" type="line"/>
      <point x="334" y="537"/>
      <point x="339" y="509"/>
      <point x="342" y="480" type="curve"/>
      <point x="315" y="489"/>
      <point x="285" y="493"/>
      <point x="257" y="493" type="curve" smooth="yes"/>
      <point x="105" y="493"/>
      <point x="32" y="379"/>
      <point x="32" y="227" type="curve" smooth="yes"/>
      <point x="32" y="83"/>
      <point x="113" y="-20"/>
      <point x="257" y="-20" type="curve" smooth="yes"/>
      <point x="431" y="-20"/>
      <point x="481" y="141"/>
      <point x="481" y="315" type="curve" smooth="yes"/>
      <point x="481" y="412"/>
      <point x="465" y="517"/>
      <point x="423" y="596" type="curve"/>
      <point x="460" y="610" type="line" smooth="yes"/>
      <point x="485" y="619"/>
      <point x="495" y="628"/>
      <point x="495" y="642" type="curve" smooth="yes"/>
      <point x="495" y="655"/>
      <point x="485" y="671"/>
      <point x="477" y="678" type="curve"/>
      <point x="390" y="647" type="line"/>
      <point x="353" y="692"/>
      <point x="302" y="720"/>
      <point x="235" y="720" type="curve" smooth="yes"/>
    </contour>
    <contour>
      <point x="176" y="40"/>
      <point x="157" y="153"/>
      <point x="157" y="234" type="curve" smooth="yes"/>
      <point x="157" y="302"/>
      <point x="162" y="433"/>
      <point x="257" y="433" type="curve" smooth="yes"/>
      <point x="292" y="433"/>
      <point x="322" y="423"/>
      <point x="351" y="403" type="curve"/>
      <point x="354" y="376"/>
      <point x="356" y="364"/>
      <point x="356" y="301" type="curve" smooth="yes"/>
      <point x="356" y="193"/>
      <point x="345" y="40"/>
      <point x="257" y="40" type="curve" smooth="yes"/>
    </contour>
  </outline>
</glyph>
<glyph name="divide" format="1">
  <advance width="540"/>
  <unicode hex="00F7"/>
  <outline>
    <contour>
      <point x="336" y="428"/>
      <point x="311" y="448"/>
      <point x="274" y="448" type="curve" smooth="yes"/>
      <point x="237" y="448"/>
      <point x="207" y="428"/>
      <point x="207" y="393" type="curve" smooth="yes"/>
      <point x="207" y="360"/>
      <point x="234" y="342"/>
      <point x="271" y="342" type="curve" smooth="yes"/>
      <point x="308" y="342"/>
      <point x="336" y="360"/>
      <point x="336" y="395" type="curve" smooth="yes"/>
    </contour>
    <contour>
      <point x="336" y="119"/>
      <point x="311" y="139"/>
      <point x="274" y="139" type="curve" smooth="yes"/>
      <point x="237" y="139"/>
      <point x="207" y="119"/>
      <point x="207" y="84" type="curve" smooth="yes"/>
      <point x="207" y="51"/>
      <point x="234" y="33"/>
      <point x="271" y="33" type="curve" smooth="yes"/>
      <point x="308" y="33"/>
      <point x="336" y="51"/>
      <point x="336" y="86" type="curve" smooth="yes"/>
    </contour>
    <contour>
      <point x="428" y="198" type="line" smooth="yes"/>
      <point x="459" y="198"/>
      <point x="476" y="217"/>
      <point x="476" y="248" type="curve" smooth="yes"/>
      <point x="476" y="261"/>
      <point x="472" y="272"/>
      <point x="467" y="283" type="curve"/>
      <point x="111" y="283" type="line" smooth="yes"/>
      <point x="80" y="283"/>
      <point x="63" y="264"/>
      <point x="63" y="233" type="curve" smooth="yes"/>
      <point x="63" y="220"/>
      <point x="67" y="209"/>
      <point x="72" y="198" type="curve"/>
    </contour>
  </outline>
</glyph>
<glyph name="oslash" format="1">
  <advance width="502"/>
  <unicode hex="00F8"/>
  <outline>
    <contour>
      <point x="39" y="24" type="line" smooth="yes"/>
      <point x="32" y="14"/>
      <point x="24" y="0"/>
      <point x="24" y="-11" type="curve" smooth="yes"/>
      <point x="24" y="-37"/>
      <point x="67" y="-51"/>
      <point x="78" y="-53" type="curve"/>
      <point x="480" y="510" type="line" smooth="yes"/>
      <point x="487" y="520"/>
      <point x="495" y="534"/>
      <point x="495" y="545" type="curve" smooth="yes"/>
      <point x="495" y="571"/>
      <point x="452" y="585"/>
      <point x="441" y="587" type="curve"/>
    </contour>
    <component base="o"/>
    <contour>
      <point x="263" y="530" type="move" name="top"/>
    </contour>
  </outline>
</glyph>
<glyph name="Dcroat" format="1">
  <advance width="573"/>
  <unicode hex="0110"/>
  <outline>
    <contour>
      <point x="275" y="297" type="line" smooth="yes"/>
      <point x="307" y="297"/>
      <point x="328" y="308"/>
      <point x="328" y="340" type="curve" smooth="yes"/>
      <point x="328" y="351"/>
      <point x="326" y="367"/>
      <point x="320" y="377" type="curve"/>
      <point x="39" y="377" type="line" smooth="yes"/>
      <point x="7" y="377"/>
      <point x="-14" y="366"/>
      <point x="-14" y="334" type="curve" smooth="yes"/>
      <point x="-14" y="323"/>
      <point x="-12" y="307"/>
      <point x="-6" y="297" type="curve"/>
    </contour>
    <component base="D" xOffset="10"/>
  </outline>
</glyph>
<glyph name="dcroat" format="1">
  <advance width="605"/>
  <unicode hex="0111"/>
  <outline>
    <contour>
      <point x="251" y="632" type="line"/>
      <point x="219" y="632"/>
      <point x="203" y="618"/>
      <point x="203" y="594" type="curve" smooth="yes"/>
      <point x="203" y="581"/>
      <point x="207" y="569"/>
      <point x="211" y="560" type="curve"/>
      <point x="507" y="560" type="line" smooth="yes"/>
      <point x="547" y="560"/>
      <point x="562" y="574"/>
      <point x="562" y="597" type="curve" smooth="yes"/>
      <point x="562" y="611"/>
      <point x="557" y="623"/>
      <point x="553" y="632" type="curve"/>
    </contour>
    <component base="d"/>
  </outline>
</glyph>
<glyph name="Hbar" format="1">
  <advance width="587"/>
  <unicode hex="0126"/>
  <outline>
    <contour>
      <point x="181" y="0" type="line"/>
      <point x="181" y="297" type="line"/>
      <point x="406" y="297" type="line"/>
      <point x="406" y="0" type="line"/>
      <point x="522" y="0" type="line"/>
      <point x="522" y="472" type="line"/>
      <point x="494" y="447" type="line"/>
      <point x="538" y="447" type="line" smooth="yes"/>
      <point x="578" y="447"/>
      <point x="593" y="461"/>
      <point x="593" y="484" type="curve" smooth="yes"/>
      <point x="593" y="498"/>
      <point x="588" y="510"/>
      <point x="584" y="519" type="curve"/>
      <point x="522" y="519" type="line"/>
      <point x="522" y="660" type="line"/>
      <point x="406" y="660" type="line"/>
      <point x="406" y="519" type="line"/>
      <point x="181" y="519" type="line"/>
      <point x="181" y="660" type="line"/>
      <point x="65" y="660" type="line"/>
      <point x="65" y="490" type="line"/>
      <point x="92" y="519" type="line"/>
      <point x="44" y="519" type="line" smooth="yes"/>
      <point x="12" y="519"/>
      <point x="-4" y="505"/>
      <point x="-4" y="481" type="curve" smooth="yes"/>
      <point x="-4" y="468"/>
      <point x="0" y="456"/>
      <point x="4" y="447" type="curve"/>
      <point x="65" y="447" type="line"/>
      <point x="65" y="0" type="line"/>
    </contour>
    <contour>
      <point x="406" y="371" type="line"/>
      <point x="181" y="371" type="line"/>
      <point x="181" y="447" type="line"/>
      <point x="406" y="447" type="line"/>
    </contour>
  </outline>
</glyph>
<glyph name="hbar" format="1">
  <advance width="531"/>
  <unicode hex="0127"/>
  <outline>
    <contour>
      <point x="54" y="639" type="line" smooth="yes"/>
      <point x="22" y="639"/>
      <point x="6" y="625"/>
      <point x="6" y="601" type="curve" smooth="yes"/>
      <point x="6" y="588"/>
      <point x="10" y="576"/>
      <point x="14" y="567" type="curve"/>
      <point x="323" y="567" type="line" smooth="yes"/>
      <point x="363" y="567"/>
      <point x="378" y="581"/>
      <point x="378" y="604" type="curve" smooth="yes"/>
      <point x="378" y="618"/>
      <point x="373" y="630"/>
      <point x="369" y="639" type="curve"/>
    </contour>
    <component base="h"/>
  </outline>
</glyph>
<glyph name="dotlessi" format="1">
  <advance width="243"/>
  <unicode hex="0131"/>
  <outline>
    <contour>
      <point x="64" y="510" type="line"/>
      <point x="64" y="69" type="line" smooth="yes"/>
      <point x="64" y="17"/>
      <point x="88" y="-15"/>
      <point x="140" y="-15" type="curve" smooth="yes"/>
      <point x="165" y="-15"/>
      <point x="193" y="-5"/>
      <point x="204" y="16" type="curve"/>
      <point x="180" y="29"/>
      <point x="173" y="53"/>
      <point x="173" y="82" type="curve" smooth="yes"/>
      <point x="173" y="510" type="line"/>
    </contour>
    <contour>
      <point x="201" y="10" type="move" name="ogonek"/>
    </contour>
    <contour>
      <point x="140" y="0" type="move" name="bottom"/>
    </contour>
    <contour>
      <point x="119" y="530" type="move" name="top"/>
    </contour>
  </outline>
</glyph>
<glyph name="kgreenlandic" format="1">
  <advance width="476"/>
  <unicode hex="0138"/>
  <outline>
    <contour>
      <point x="179" y="0" type="line"/>
      <point x="179" y="522" type="line"/>
      <point x="70" y="510" type="line"/>
      <point x="70" y="0" type="line"/>
    </contour>
    <contour>
      <point x="193" y="280" type="line"/>
      <point x="353" y="0" type="line"/>
      <point x="480" y="0" type="line"/>
      <point x="303" y="298" type="line"/>
      <point x="476" y="510" type="line"/>
      <point x="360" y="510" type="line"/>
    </contour>
  </outline>
</glyph>
<glyph name="lacute" format="1">
  <advance width="251"/>
  <unicode hex="013A"/>
  <outline>
    <contour>
      <point x="68" y="69" type="line" smooth="yes"/>
      <point x="68" y="17"/>
      <point x="92" y="-15"/>
      <point x="144" y="-15" type="curve" smooth="yes"/>
      <point x="169" y="-15"/>
      <point x="197" y="-5"/>
      <point x="208" y="16" type="curve"/>
      <point x="184" y="29"/>
      <point x="177" y="53"/>
      <point x="177" y="82" type="curve" smooth="yes"/>
      <point x="177" y="692" type="line"/>
      <point x="68" y="680" type="line"/>
    </contour>
    <component base="acute.case" xOffset="35"/>
  </outline>
</glyph>
<glyph name="Ldot" format="1">
  <advance width="399"/>
  <unicode hex="013F"/>
  <outline>
    <contour>
      <point x="275" y="406"/>
      <point x="245" y="385"/>
      <point x="245" y="347" type="curve" smooth="yes"/>
      <point x="245" y="311"/>
      <point x="272" y="290"/>
      <point x="303" y="290" type="curve" smooth="yes"/>
      <point x="334" y="290"/>
      <point x="364" y="311"/>
      <point x="364" y="349" type="curve" smooth="yes"/>
      <point x="364" y="385"/>
      <point x="337" y="406"/>
      <point x="306" y="406" type="curve" smooth="yes"/>
    </contour>
    <component base="L"/>
  </outline>
</glyph>
<glyph name="ldot" format="1">
  <advance width="268"/>
  <unicode hex="0140"/>
  <outline>
    <contour>
      <point x="68" y="69" type="line" smooth="yes"/>
      <point x="68" y="17"/>
      <point x="92" y="-15"/>
      <point x="144" y="-15" type="curve" smooth="yes"/>
      <point x="169" y="-15"/>
      <point x="197" y="-5"/>
      <point x="208" y="16" type="curve"/>
      <point x="184" y="29"/>
      <point x="177" y="53"/>
      <point x="177" y="82" type="curve" smooth="yes"/>
      <point x="177" y="712" type="line"/>
      <point x="68" y="700" type="line"/>
    </contour>
    <contour>
      <point x="225" y="388"/>
      <point x="195" y="367"/>
      <point x="195" y="329" type="curve" smooth="yes"/>
      <point x="195" y="293"/>
      <point x="222" y="272"/>
      <point x="253" y="272" type="curve" smooth="yes"/>
      <point x="284" y="272"/>
      <point x="314" y="293"/>
      <point x="314" y="331" type="curve" smooth="yes"/>
      <point x="314" y="367"/>
      <point x="287" y="388"/>
      <point x="256" y="388" type="curve" smooth="yes"/>
    </contour>
  </outline>
</glyph>
<glyph name="Lslash" format="1">
  <advance width="439"/>
  <unicode hex="0141"/>
  <outline>
    <contour>
      <point x="100" y="0" type="line"/>
      <point x="427" y="0" type="line"/>
      <point x="434" y="74" type="line"/>
      <point x="216" y="74" type="line"/>
      <point x="216" y="316" type="line"/>
      <point x="337" y="364" type="line" smooth="yes"/>
      <point x="358" y="373"/>
      <point x="366" y="388"/>
      <point x="366" y="405" type="curve" smooth="yes"/>
      <point x="366" y="427"/>
      <point x="352" y="443"/>
      <point x="340" y="454" type="curve"/>
      <point x="216" y="404" type="line"/>
      <point x="216" y="660" type="line"/>
      <point x="100" y="660" type="line"/>
      <point x="100" y="358" type="line"/>
      <point x="14" y="324" type="line" smooth="yes"/>
      <point x="-7" y="315"/>
      <point x="-15" y="300"/>
      <point x="-15" y="283" type="curve" smooth="yes"/>
      <point x="-15" y="261"/>
      <point x="-1" y="245"/>
      <point x="11" y="234" type="curve"/>
      <point x="100" y="269" type="line"/>
    </contour>
  </outline>
</glyph>
<glyph name="lslash" format="1">
  <advance width="321"/>
  <unicode hex="0142"/>
  <outline>
    <contour>
      <point x="311" y="362" type="line"/>
      <point x="332" y="371"/>
      <point x="340" y="386"/>
      <point x="340" y="403" type="curve" smooth="yes"/>
      <point x="340" y="425"/>
      <point x="326" y="441"/>
      <point x="314" y="452" type="curve"/>
      <point x="18" y="334" type="line" smooth="yes"/>
      <point x="-3" y="325"/>
      <point x="-11" y="310"/>
      <point x="-11" y="293" type="curve" smooth="yes"/>
      <point x="-11" y="271"/>
      <point x="3" y="255"/>
      <point x="15" y="244" type="curve"/>
    </contour>
    <component base="l" xOffset="30"/>
  </outline>
</glyph>
<glyph name="Eng" format="1">
  <advance width="567"/>
  <unicode hex="014A"/>
  <outline>
    <contour>
      <point x="507" y="660" type="line"/>
      <point x="413" y="660" type="line"/>
      <point x="413" y="218" type="line"/>
      <point x="147" y="660" type="line"/>
      <point x="60" y="660" type="line"/>
      <point x="60" y="0" type="line"/>
      <point x="154" y="0" type="line"/>
      <point x="154" y="442" type="line"/>
      <point x="420" y="0" type="line"/>
      <point x="447" y="0" type="line"/>
      <point x="419" y="40" type="line"/>
      <point x="424" y="-37"/>
      <point x="413" y="-123"/>
      <point x="336" y="-123" type="curve"/>
      <point x="336" y="-150"/>
      <point x="367" y="-160"/>
      <point x="394" y="-160" type="curve" smooth="yes"/>
      <point x="492" y="-160"/>
      <point x="507" y="-58"/>
      <point x="507" y="39" type="curve"/>
    </contour>
  </outline>
</glyph>
<glyph name="eng" format="1">
  <advance width="507"/>
  <unicode hex="014B"/>
  <outline>
    <contour>
      <point x="354" y="7" type="line" smooth="yes"/>
      <point x="354" y="-75"/>
      <point x="337" y="-156"/>
      <point x="255" y="-156" type="curve"/>
      <point x="255" y="-188"/>
      <point x="292" y="-200"/>
      <point x="324" y="-200" type="curve" smooth="yes"/>
      <point x="439" y="-200"/>
      <point x="463" y="-80"/>
      <point x="463" y="35" type="curve" smooth="yes"/>
      <point x="463" y="342" type="line" smooth="yes"/>
      <point x="463" y="460"/>
      <point x="431" y="530"/>
      <point x="313" y="530" type="curve" smooth="yes"/>
      <point x="243" y="530"/>
      <point x="188" y="497"/>
      <point x="162" y="432" type="curve"/>
      <point x="157" y="522" type="line"/>
      <point x="66" y="510" type="line"/>
      <point x="66" y="0" type="line"/>
      <point x="175" y="0" type="line"/>
      <point x="175" y="259" type="line" smooth="yes"/>
      <point x="175" y="350"/>
      <point x="187" y="453"/>
      <point x="278" y="453" type="curve" smooth="yes"/>
      <point x="348" y="453"/>
      <point x="354" y="398"/>
      <point x="354" y="328" type="curve" smooth="yes"/>
    </contour>
  </outline>
</glyph>
<glyph name="OE" format="1">
  <advance width="757"/>
  <unicode hex="0152"/>
  <outline>
    <contour>
      <point x="97" y="680"/>
      <point x="34" y="520"/>
      <point x="34" y="327" type="curve" smooth="yes"/>
      <point x="34" y="128"/>
      <point x="93" y="-22"/>
      <point x="290" y="-22" type="curve" smooth="yes"/>
      <point x="389" y="-22"/>
      <point x="453" y="18"/>
      <point x="492" y="83" type="curve"/>
      <point x="492" y="580" type="line"/>
      <point x="453" y="642"/>
      <point x="388" y="680"/>
      <point x="290" y="680" type="curve" smooth="yes"/>
    </contour>
    <contour>
      <point x="168" y="48"/>
      <point x="159" y="210"/>
      <point x="159" y="332" type="curve" smooth="yes"/>
      <point x="159" y="450"/>
      <point x="172" y="610"/>
      <point x="290" y="610" type="curve" smooth="yes"/>
      <point x="408" y="610"/>
      <point x="490" y="450"/>
      <point x="490" y="332" type="curve" smooth="yes"/>
      <point x="490" y="210"/>
      <point x="412" y="48"/>
      <point x="290" y="48" type="curve" smooth="yes"/>
    </contour>
    <contour>
      <point x="713" y="660" type="line"/>
      <point x="399" y="660" type="line"/>
      <point x="399" y="0" type="line"/>
      <point x="720" y="0" type="line"/>
      <point x="727" y="74" type="line"/>
      <point x="515" y="74" type="line"/>
      <point x="515" y="302" type="line"/>
      <point x="683" y="302" type="line"/>
      <point x="683" y="376" type="line"/>
      <point x="515" y="376" type="line"/>
      <point x="515" y="586" type="line"/>
      <point x="713" y="586" type="line"/>
    </contour>
    <contour>
      <point x="400" y="660" type="move" name="top"/>
    </contour>
  </outline>
</glyph>
<glyph name="oe" format="1">
  <advance width="776"/>
  <unicode hex="0153"/>
  <outline>
    <contour>
      <point x="507" y="530"/>
      <point x="453" y="503"/>
      <point x="415" y="459" type="curve"/>
      <point x="380" y="503"/>
      <point x="326" y="530"/>
      <point x="251" y="530" type="curve" smooth="yes"/>
      <point x="96" y="530"/>
      <point x="32" y="407"/>
      <point x="32" y="252" type="curve" smooth="yes"/>
      <point x="32" y="92"/>
      <point x="91" y="-22"/>
      <point x="251" y="-22" type="curve" smooth="yes"/>
      <point x="323" y="-22"/>
      <point x="375" y="2"/>
      <point x="409" y="43" type="curve"/>
      <point x="444" y="2"/>
      <point x="495" y="-22"/>
      <point x="566" y="-22" type="curve" smooth="yes"/>
      <point x="642" y="-22"/>
      <point x="729" y="22"/>
      <point x="729" y="98" type="curve" smooth="yes"/>
      <point x="729" y="116"/>
      <point x="723" y="133"/>
      <point x="706" y="141" type="curve"/>
      <point x="681" y="87"/>
      <point x="635" y="54"/>
      <point x="576" y="54" type="curve" smooth="yes"/>
      <point x="488" y="54"/>
      <point x="469" y="140"/>
      <point x="466" y="228" type="curve"/>
      <point x="479" y="227"/>
      <point x="505" y="226"/>
      <point x="521" y="226" type="curve" smooth="yes"/>
      <point x="645" y="226"/>
      <point x="746" y="259"/>
      <point x="746" y="383" type="curve" smooth="yes"/>
      <point x="746" y="479"/>
      <point x="678" y="530"/>
      <point x="582" y="530" type="curve" smooth="yes"/>
    </contour>
    <contour>
      <point x="340" y="470"/>
      <point x="351" y="346"/>
      <point x="351" y="257" type="curve" smooth="yes"/>
      <point x="351" y="254" type="line"/>
      <point x="351" y="242" type="line" smooth="yes"/>
      <point x="350" y="150"/>
      <point x="340" y="38"/>
      <point x="251" y="38" type="curve" smooth="yes"/>
      <point x="157" y="38"/>
      <point x="151" y="163"/>
      <point x="151" y="257" type="curve" smooth="yes"/>
      <point x="151" y="345"/>
      <point x="163" y="470"/>
      <point x="251" y="470" type="curve" smooth="yes"/>
    </contour>
    <contour>
      <point x="616" y="473"/>
      <point x="637" y="427"/>
      <point x="637" y="377" type="curve" smooth="yes"/>
      <point x="637" y="302"/>
      <point x="586" y="276"/>
      <point x="511" y="276" type="curve" smooth="yes"/>
      <point x="488" y="276"/>
      <point x="459" y="278"/>
      <point x="434" y="284" type="curve"/>
      <point x="466" y="243" type="line"/>
      <point x="464" y="331"/>
      <point x="474" y="473"/>
      <point x="566" y="473" type="curve" smooth="yes"/>
    </contour>
    <contour>
      <point x="381" y="530" type="move" name="top"/>
    </contour>
  </outline>
</glyph>
<glyph name="Tbar" format="1">
  <advance width="400"/>
  <unicode hex="0166"/>
  <outline>
    <contour>
      <point x="357" y="307" type="line" smooth="yes"/>
      <point x="397" y="307"/>
      <point x="412" y="321"/>
      <point x="412" y="344" type="curve" smooth="yes"/>
      <point x="412" y="358"/>
      <point x="407" y="370"/>
      <point x="403" y="379" type="curve"/>
      <point x="50" y="379" type="line" smooth="yes"/>
      <point x="18" y="379"/>
      <point x="2" y="365"/>
      <point x="2" y="341" type="curve" smooth="yes"/>
      <point x="2" y="328"/>
      <point x="6" y="316"/>
      <point x="10" y="307" type="curve"/>
    </contour>
    <component base="T"/>
  </outline>
</glyph>
<glyph name="tbar" format="1">
  <advance width="284"/>
  <unicode hex="0167"/>
  <outline>
    <contour>
      <point x="68" y="330" type="line" smooth="yes"/>
      <point x="36" y="330"/>
      <point x="20" y="316"/>
      <point x="20" y="292" type="curve" smooth="yes"/>
      <point x="20" y="279"/>
      <point x="24" y="267"/>
      <point x="28" y="258" type="curve"/>
      <point x="227" y="258" type="line" smooth="yes"/>
      <point x="267" y="258"/>
      <point x="282" y="272"/>
      <point x="282" y="295" type="curve" smooth="yes"/>
      <point x="282" y="309"/>
      <point x="277" y="321"/>
      <point x="273" y="330" type="curve"/>
    </contour>
    <component base="t"/>
  </outline>
</glyph>
<glyph name="longs" format="1">
  <advance width="275"/>
  <unicode hex="017F"/>
  <outline>
    <contour>
      <point x="175" y="564" type="line" smooth="yes"/>
      <point x="175" y="622"/>
      <point x="183" y="676"/>
      <point x="241" y="676" type="curve" smooth="yes"/>
      <point x="275" y="676"/>
      <point x="291" y="655"/>
      <point x="291" y="621" type="curve" smooth="yes"/>
      <point x="291" y="606"/>
      <point x="288" y="591"/>
      <point x="283" y="576" type="curve"/>
      <point x="293" y="568"/>
      <point x="311" y="565"/>
      <point x="323" y="565" type="curve" smooth="yes"/>
      <point x="370" y="565"/>
      <point x="401" y="588"/>
      <point x="401" y="635" type="curve" smooth="yes"/>
      <point x="401" y="703"/>
      <point x="315" y="720"/>
      <point x="247" y="720" type="curve" smooth="yes"/>
      <point x="139" y="720"/>
      <point x="68" y="672"/>
      <point x="68" y="564" type="curve" smooth="yes"/>
      <point x="68" y="-12" type="line"/>
      <point x="175" y="0" type="line"/>
    </contour>
  </outline>
</glyph>
<glyph name="uni018F" format="1">
  <advance width="556"/>
  <unicode hex="018F"/>
  <outline>
    <contour>
      <point x="450" y="-22"/>
      <point x="522" y="139"/>
      <point x="522" y="346" type="curve" smooth="yes"/>
      <point x="522" y="539"/>
      <point x="460" y="683"/>
      <point x="266" y="683" type="curve" smooth="yes"/>
      <point x="169" y="683"/>
      <point x="59" y="626"/>
      <point x="59" y="530" type="curve" smooth="yes"/>
      <point x="59" y="507"/>
      <point x="65" y="485"/>
      <point x="87" y="473" type="curve"/>
      <point x="120" y="543"/>
      <point x="179" y="595"/>
      <point x="254" y="595" type="curve" smooth="yes"/>
      <point x="367" y="595"/>
      <point x="388" y="478"/>
      <point x="391" y="364" type="curve"/>
      <point x="374" y="365"/>
      <point x="342" y="367"/>
      <point x="321" y="367" type="curve" smooth="yes"/>
      <point x="163" y="367"/>
      <point x="34" y="325"/>
      <point x="34" y="166" type="curve" smooth="yes"/>
      <point x="34" y="44"/>
      <point x="121" y="-22"/>
      <point x="243" y="-22" type="curve" smooth="yes"/>
    </contour>
    <contour>
      <point x="201" y="50"/>
      <point x="173" y="109"/>
      <point x="173" y="173" type="curve" smooth="yes"/>
      <point x="173" y="269"/>
      <point x="238" y="302"/>
      <point x="334" y="302" type="curve" smooth="yes"/>
      <point x="364" y="302"/>
      <point x="400" y="300"/>
      <point x="432" y="292" type="curve"/>
      <point x="391" y="344" type="line"/>
      <point x="394" y="232"/>
      <point x="382" y="50"/>
      <point x="263" y="50" type="curve" smooth="yes"/>
    </contour>
  </outline>
</glyph>
<glyph name="florin" format="1">
  <advance width="540"/>
  <unicode hex="0192"/>
  <outline>
    <contour>
      <point x="258" y="720"/>
      <point x="187" y="672"/>
      <point x="187" y="564" type="curve" smooth="yes"/>
      <point x="187" y="411" type="line"/>
      <point x="116" y="411" type="line" smooth="yes"/>
      <point x="91" y="411"/>
      <point x="74" y="402"/>
      <point x="74" y="377" type="curve" smooth="yes"/>
      <point x="74" y="368"/>
      <point x="76" y="356"/>
      <point x="80" y="348" type="curve"/>
      <point x="187" y="348" type="line"/>
      <point x="187" y="-24" type="line" smooth="yes"/>
      <point x="187" y="-82"/>
      <point x="179" y="-136"/>
      <point x="121" y="-136" type="curve" smooth="yes"/>
      <point x="87" y="-136"/>
      <point x="71" y="-115"/>
      <point x="71" y="-81" type="curve" smooth="yes"/>
      <point x="71" y="-66"/>
      <point x="74" y="-51"/>
      <point x="79" y="-36" type="curve"/>
      <point x="69" y="-28"/>
      <point x="51" y="-25"/>
      <point x="39" y="-25" type="curve" smooth="yes"/>
      <point x="-8" y="-25"/>
      <point x="-39" y="-48"/>
      <point x="-39" y="-95" type="curve" smooth="yes"/>
      <point x="-39" y="-163"/>
      <point x="47" y="-180"/>
      <point x="115" y="-180" type="curve" smooth="yes"/>
      <point x="223" y="-180"/>
      <point x="294" y="-132"/>
      <point x="294" y="-24" type="curve" smooth="yes"/>
      <point x="294" y="348" type="line"/>
      <point x="420" y="348" type="line" smooth="yes"/>
      <point x="445" y="348"/>
      <point x="462" y="357"/>
      <point x="462" y="382" type="curve" smooth="yes"/>
      <point x="462" y="391"/>
      <point x="460" y="403"/>
      <point x="456" y="411" type="curve"/>
      <point x="294" y="411" type="line"/>
      <point x="294" y="564" type="line" smooth="yes"/>
      <point x="294" y="622"/>
      <point x="302" y="676"/>
      <point x="360" y="676" type="curve" smooth="yes"/>
      <point x="394" y="676"/>
      <point x="410" y="655"/>
      <point x="410" y="621" type="curve" smooth="yes"/>
      <point x="410" y="606"/>
      <point x="407" y="591"/>
      <point x="402" y="576" type="curve"/>
      <point x="412" y="568"/>
      <point x="430" y="565"/>
      <point x="442" y="565" type="curve" smooth="yes"/>
      <point x="489" y="565"/>
      <point x="520" y="588"/>
      <point x="520" y="635" type="curve" smooth="yes"/>
      <point x="520" y="703"/>
      <point x="434" y="720"/>
      <point x="366" y="720" type="curve" smooth="yes"/>
    </contour>
  </outline>
</glyph>
<glyph name="Aringacute" format="1">
  <advance width="502"/>
  <unicode hex="01FA"/>
  <outline>
    <contour>
      <point x="313" y="626"/>
      <point x="358" y="658"/>
      <point x="358" y="710" type="curve" smooth="yes"/>
      <point x="358" y="762"/>
      <point x="314" y="791"/>
      <point x="257" y="791" type="curve" smooth="yes"/>
      <point x="201" y="791"/>
      <point x="157" y="762"/>
      <point x="157" y="710" type="curve" smooth="yes"/>
      <point x="157" y="658"/>
      <point x="202" y="626"/>
      <point x="257" y="626" type="curve" smooth="yes"/>
    </contour>
    <contour>
      <point x="228" y="660"/>
      <point x="215" y="682"/>
      <point x="215" y="710" type="curve" smooth="yes"/>
      <point x="215" y="736"/>
      <point x="229" y="757"/>
      <point x="257" y="757" type="curve" smooth="yes"/>
      <point x="286" y="757"/>
      <point x="300" y="736"/>
      <point x="300" y="710" type="curve" smooth="yes"/>
      <point x="300" y="682"/>
      <point x="287" y="660"/>
      <point x="257" y="660" type="curve" smooth="yes"/>
    </contour>
    <component base="A"/>
    <component base="acute.case" xOffset="167" yOffset="83"/>
  </outline>
</glyph>
<glyph name="aringacute" format="1">
  <advance width="499"/>
  <unicode hex="01FB"/>
  <outline>
    <contour>
      <point x="187" y="780" type="line"/>
      <point x="306" y="789" type="line" smooth="yes"/>
      <point x="359" y="793"/>
      <point x="416" y="802"/>
      <point x="416" y="855" type="curve" smooth="yes"/>
      <point x="416" y="875"/>
      <point x="405" y="894"/>
      <point x="388" y="906" type="curve"/>
      <point x="176" y="822" type="line"/>
    </contour>
    <component base="a"/>
    <component base="ring" xOffset="136" yOffset="-2"/>
  </outline>
</glyph>
<glyph name="dotlessj" format="1">
  <advance width="246"/>
  <unicode hex="0237"/>
  <outline>
    <contour>
      <point x="180" y="510" type="line"/>
      <point x="70" y="510" type="line"/>
      <point x="70" y="7" type="line" smooth="yes"/>
      <point x="70" y="-73"/>
      <point x="51" y="-154"/>
      <point x="-29" y="-154" type="curve"/>
      <point x="-13" y="-186"/>
      <point x="22" y="-200"/>
      <point x="57" y="-200" type="curve" smooth="yes"/>
      <point x="161" y="-200"/>
      <point x="180" y="-69"/>
      <point x="180" y="35" type="curve" smooth="yes"/>
    </contour>
    <contour>
      <point x="124" y="530" type="move" name="top"/>
    </contour>
  </outline>
</glyph>
<glyph name="uni0259" format="1">
  <advance width="457"/>
  <unicode hex="0259"/>
  <outline>
    <contour>
      <point x="356" y="-22"/>
      <point x="425" y="104"/>
      <point x="425" y="266" type="curve" smooth="yes"/>
      <point x="425" y="418"/>
      <point x="362" y="530"/>
      <point x="210" y="530" type="curve" smooth="yes"/>
      <point x="134" y="530"/>
      <point x="47" y="486"/>
      <point x="47" y="410" type="curve" smooth="yes"/>
      <point x="47" y="392"/>
      <point x="53" y="375"/>
      <point x="70" y="367" type="curve"/>
      <point x="95" y="421"/>
      <point x="141" y="454"/>
      <point x="200" y="454" type="curve" smooth="yes"/>
      <point x="288" y="454"/>
      <point x="307" y="368"/>
      <point x="310" y="280" type="curve"/>
      <point x="297" y="281"/>
      <point x="271" y="282"/>
      <point x="255" y="282" type="curve" smooth="yes"/>
      <point x="131" y="282"/>
      <point x="30" y="249"/>
      <point x="30" y="125" type="curve" smooth="yes"/>
      <point x="30" y="29"/>
      <point x="98" y="-22"/>
      <point x="194" y="-22" type="curve" smooth="yes"/>
    </contour>
    <contour>
      <point x="160" y="35"/>
      <point x="139" y="81"/>
      <point x="139" y="131" type="curve" smooth="yes"/>
      <point x="139" y="206"/>
      <point x="190" y="232"/>
      <point x="265" y="232" type="curve" smooth="yes"/>
      <point x="288" y="232"/>
      <point x="317" y="230"/>
      <point x="342" y="224" type="curve"/>
      <point x="310" y="265" type="line"/>
      <point x="312" y="177"/>
      <point x="302" y="35"/>
      <point x="210" y="35" type="curve" smooth="yes"/>
    </contour>
  </outline>
</glyph>
<glyph name="uni02BC" format="1">
  <advance width="201"/>
  <unicode hex="02BC"/>
  <outline>
    <contour>
      <point x="66" y="713"/>
      <point x="48" y="709"/>
      <point x="35" y="701" type="curve"/>
      <point x="48" y="676"/>
      <point x="54" y="650"/>
      <point x="54" y="622" type="curve" smooth="yes"/>
      <point x="54" y="581"/>
      <point x="39" y="542"/>
      <point x="15" y="507" type="curve"/>
      <point x="26" y="502"/>
      <point x="39" y="500"/>
      <point x="50" y="500" type="curve" smooth="yes"/>
      <point x="105" y="500"/>
      <point x="149" y="564"/>
      <point x="149" y="624" type="curve" smooth="yes"/>
      <point x="149" y="679"/>
      <point x="129" y="713"/>
      <point x="81" y="713" type="curve" smooth="yes"/>
    </contour>
  </outline>
</glyph>
<glyph name="circumflex" format="1">
  <advance width="317"/>
  <unicode hex="02C6"/>
  <outline>
    <contour>
      <point x="158" y="648" type="line"/>
      <point x="278" y="575" type="line"/>
      <point x="307" y="610" type="line"/>
      <point x="158" y="742" type="line"/>
      <point x="155" y="742" type="line"/>
      <point x="10" y="610" type="line"/>
      <point x="39" y="575" type="line"/>
    </contour>
    <contour>
      <point x="158" y="530" type="move" name="_top"/>
    </contour>
  </outline>
</glyph>
<glyph name="caron" format="1">
  <advance width="317"/>
  <unicode hex="02C7"/>
  <outline>
    <contour>
      <point x="159" y="669" type="line"/>
      <point x="39" y="742" type="line"/>
      <point x="10" y="707" type="line"/>
      <point x="159" y="575" type="line"/>
      <point x="162" y="575" type="line"/>
      <point x="307" y="707" type="line"/>
      <point x="278" y="742" type="line"/>
    </contour>
    <contour>
      <point x="159" y="530" type="move" name="_top"/>
    </contour>
  </outline>
</glyph>
<glyph name="breve" format="1">
  <advance width="320"/>
  <unicode hex="02D8"/>
  <outline>
    <contour>
      <point x="219" y="730" type="line"/>
      <point x="219" y="683"/>
      <point x="207" y="644"/>
      <point x="160" y="644" type="curve" smooth="yes"/>
      <point x="113" y="644"/>
      <point x="101" y="683"/>
      <point x="101" y="730" type="curve"/>
      <point x="10" y="730" type="line"/>
      <point x="10" y="642"/>
      <point x="72" y="592"/>
      <point x="160" y="592" type="curve" smooth="yes"/>
      <point x="248" y="592"/>
      <point x="310" y="642"/>
      <point x="310" y="730" type="curve"/>
    </contour>
    <contour>
      <point x="160" y="530" type="move" name="_top"/>
    </contour>
  </outline>
</glyph>
